<svg width="314" height="359" viewBox="0 0 314 359" fill="none" xmlns="http://www.w3.org/2000/svg">
<ellipse cx="160.5" cy="284" rx="153.5" ry="75" fill="#0E82FD"/>
<path d="M249.69 265.246L179.973 224.856C174.066 221.441 169.278 212.265 169.278 204.372V9.38832C169.278 1.49565 174.066 -2.13316 179.973 1.28829L249.69 41.6459C255.596 45.0673 260.385 54.243 260.385 62.1357V257.139C260.385 265.032 255.596 268.667 249.69 265.246Z" fill="#B1B4C4"/>
<path d="M250.886 268.764L256.411 265.965L251.112 256.854L250.886 268.764Z" fill="#B1B4C4"/>
<path d="M168.192 3.2324L173.278 0.556152L172.251 8.07298L168.192 3.2324Z" fill="#B1B4C4"/>
<path d="M245.244 267.475L175.527 227.111C169.621 223.696 164.832 214.52 164.832 206.627V11.6176C164.832 3.72489 169.621 0.0960734 175.527 3.51105L245.244 43.8751C251.151 47.2966 255.939 56.4658 255.939 64.365V259.368C255.939 267.268 251.151 270.896 245.244 267.475Z" fill="#616E84"/>
<path d="M255.177 64.8639V259.848C255.177 267.754 250.394 271.376 244.488 267.961L217.145 252.13L208.647 247.225L174.784 227.61C168.877 224.188 164.095 215.019 164.095 207.12V12.1165C164.095 4.2174 168.877 0.595064 174.784 4.01004L244.507 44.3676C250.414 47.7956 255.177 56.9583 255.177 64.8639Z" fill="#20232D"/>
<path d="M250.168 62.8549V252.784C250.168 257.56 246.827 259.511 242.691 257.113L220.926 244.522L218.987 243.408L218.341 243.025L213.63 240.304L199.994 232.418L194.339 229.145L192.064 227.849L176.613 218.907C172.483 216.516 169.136 210.697 169.136 205.901V15.9589C169.136 11.1702 172.483 9.23268 176.613 11.6238L203.832 27.3832V27.461C203.832 31.187 206.417 35.7165 209.649 37.5763C212.88 39.4361 215.465 37.9262 215.465 34.2067C215.465 34.2067 215.465 34.1484 215.465 34.1225L242.691 49.8948C246.827 52.273 250.168 58.0921 250.168 62.8549Z" fill="white"/>
<path d="M211.217 35.6162C212.079 35.117 212.078 33.4962 211.214 31.9961C210.35 30.496 208.951 29.6847 208.089 30.1839C207.226 30.6832 207.228 32.3039 208.091 33.804C208.955 35.3041 210.354 36.1155 211.217 35.6162Z" fill="#2B303F"/>
<path opacity="0.1" d="M209.649 33.9738C209.377 33.7979 209.152 33.5599 208.99 33.2794C208.828 32.9989 208.735 32.6839 208.718 32.3603C208.718 31.7706 209.132 31.5308 209.649 31.8289C209.921 32.0035 210.147 32.2401 210.31 32.5195C210.473 32.7988 210.567 33.1129 210.586 33.436C210.586 34.0256 210.159 34.2654 209.649 33.9738Z" fill="white"/>
<path d="M258.027 90.5183C257.458 90.8488 256.999 90.5183 256.999 89.7407V81.4269C257.009 81.0453 257.107 80.6713 257.286 80.3341C257.464 79.9969 257.717 79.7055 258.027 79.4828C258.595 79.1524 259.054 79.4828 259.054 80.2669V88.5808C259.043 88.9613 258.945 89.3342 258.767 89.6703C258.589 90.0064 258.335 90.2967 258.027 90.5183Z" fill="#757B89"/>
<path d="M258.027 104.146C257.458 104.47 256.999 104.146 256.999 103.362V95.0478C257.005 94.6608 257.101 94.2806 257.279 93.9374C257.457 93.5943 257.713 93.2977 258.027 93.0714C258.595 92.7474 259.054 93.0714 259.054 93.8555V102.169C259.048 102.556 258.952 102.937 258.774 103.28C258.596 103.623 258.34 103.919 258.027 104.146Z" fill="#757B89"/>
<path d="M237.082 240.926L182.248 209.174C179.405 207.528 177.078 203.102 177.078 199.298V97.1989C177.078 93.3887 179.392 91.6391 182.248 93.3109L237.082 125.063C239.932 126.715 242.252 131.135 242.252 134.945V237.07C242.252 240.822 239.912 242.572 237.082 240.926Z" fill="#E9EAF2"/>
<path d="M203.379 137.595C207.407 135.263 207.406 127.702 203.379 120.707C199.351 113.712 192.821 109.931 188.793 112.263C184.766 114.594 184.766 122.155 188.794 129.15C192.822 136.146 199.352 139.926 203.379 137.595Z" fill="#CED0DB"/>
<path d="M233.851 145.417L212.641 133.137V128.161L233.851 140.44V145.417Z" fill="#CED0DB"/>
<path d="M228.959 151.534L212.641 142.093V137.116L228.959 146.564V151.534Z" fill="#CED0DB"/>
<path d="M233.851 174.143L185.777 146.311V141.341L233.851 169.166V174.143Z" fill="#CED0DB"/>
<path d="M222.755 176.677L185.777 155.267V150.29L222.755 171.7V176.677Z" fill="#CED0DB"/>
<path d="M233.683 191.956L185.609 164.125V159.148L233.683 186.98V191.956Z" fill="#CED0DB"/>
<path d="M222.593 194.49L185.609 173.08V168.104L222.593 189.514V194.49Z" fill="#CED0DB"/>
<path d="M233.683 209.867L185.609 182.036V177.059L233.683 204.891V209.867Z" fill="#CED0DB"/>
<path d="M233.074 227.802L185 199.97V195L233.074 222.825V227.802Z" fill="#CED0DB"/>
<path d="M222.593 212.401L185.609 190.991V186.014L222.593 207.424V212.401Z" fill="#CED0DB"/>
<g filter="url(#filter0_d_205_2404)">
<path d="M192.239 87.706C192.013 87.5529 191.823 87.3526 191.681 87.1188C191.54 86.8851 191.45 86.6234 191.418 86.3517L187.968 45.8645L185.253 63.2374C185.189 63.6716 184.833 63.8142 184.42 63.5744L177.822 59.7512C177.576 59.5891 177.373 59.3716 177.227 59.1161C177.081 58.8606 176.997 58.5743 176.981 58.2802C176.981 57.7424 177.363 57.5221 177.828 57.7877L183.709 61.1962L187.321 37.9718C187.386 37.5312 187.767 37.3951 188.181 37.6543C188.403 37.8095 188.59 38.0096 188.73 38.2418C188.871 38.4739 188.961 38.7329 188.995 39.0022L192.381 78.8932L195.613 55.0078C195.671 54.5672 196.013 54.4181 196.42 54.6385C196.646 54.7817 196.839 54.9713 196.986 55.1947C197.133 55.4181 197.231 55.6702 197.273 55.9345L201.151 79.2172L204.925 48.7611C204.977 48.3075 205.339 48.1519 205.759 48.3917C205.983 48.5353 206.173 48.7252 206.318 48.9487C206.463 49.1722 206.559 49.4242 206.599 49.6877L211.084 89.164L214.806 69.7239C214.884 69.3222 215.22 69.1926 215.62 69.4064C216.042 69.6891 216.337 70.1265 216.441 70.6247L220.228 90.1944L223.621 60.7362C223.672 60.289 224.021 60.1206 224.441 60.3538C224.67 60.4941 224.864 60.6829 225.012 60.9068C225.159 61.1308 225.256 61.3844 225.295 61.6498L229.463 92.754L232.384 79.1459C232.461 78.7571 232.784 78.6275 233.166 78.8284C233.377 78.9568 233.561 79.126 233.706 79.3262C233.851 79.5265 233.955 79.7538 234.012 79.9948L236.83 91.6135L242.885 95.022C243.131 95.1813 243.335 95.3963 243.482 95.6496C243.629 95.9029 243.715 96.1874 243.732 96.48C243.732 97.0243 243.37 97.2511 242.898 96.9919L236.222 93.2335C235.82 92.9654 235.532 92.5564 235.415 92.0865L233.366 83.6625L230.18 98.5665C230.096 98.9748 229.741 99.1109 229.334 98.8452C229.115 98.698 228.93 98.5067 228.79 98.2835C228.65 98.0603 228.557 97.8102 228.519 97.5492L224.584 68.2141L221.352 96.305C221.301 96.7392 220.971 96.9077 220.564 96.7003C220.339 96.5669 220.145 96.387 219.994 96.1724C219.844 95.9579 219.741 95.7137 219.692 95.4561L215.756 74.9469L211.788 95.6246C211.704 96.0458 211.336 96.1625 210.929 95.9162C210.712 95.7667 210.529 95.5748 210.389 95.352C210.249 95.1292 210.155 94.8803 210.114 94.6202L205.804 56.6084L202.185 85.6583C202.133 86.099 201.791 86.261 201.377 86.0407C201.153 85.8957 200.96 85.7057 200.812 85.4827C200.664 85.2596 200.564 85.0084 200.518 84.7446L196.64 61.2481L193.086 87.3302C193.015 87.7967 192.659 87.9458 192.239 87.706Z" fill="#FF0000"/>
</g>
<path opacity="0.4" d="M88.9631 310.664C106.616 310.664 120.926 302.378 120.926 292.157C120.926 281.936 106.616 273.65 88.9631 273.65C71.3104 273.65 57 281.936 57 292.157C57 302.378 71.3104 310.664 88.9631 310.664Z" fill="#D6D8E5"/>
<path d="M66.1894 154.936C65.834 158.053 62.1246 171.499 62.9194 176.106C63.7143 180.714 76.3871 188.418 76.3871 188.418L78.1449 180.532L71.1267 173.663L73.0202 160.606L66.1894 154.936Z" fill="#FFCEA9"/>
<path d="M75.9933 141.684C74.1838 140.9 70.8233 140.725 68.9363 143.823C67.0493 146.92 65.1364 157.535 64.9619 159.375C64.9619 159.375 67.5792 162.997 71.5019 162.395L75.9933 141.684Z" fill="#EDEDED"/>
<path d="M90.4623 291.6C93.2205 292.361 96.1666 292.002 98.6631 290.602C100.634 290.66 111.355 286.066 112.816 289.921C114.108 293.311 109.449 296.44 106.967 297.049C101.552 298.345 97.5451 301.074 95.3673 301.534C93.7517 301.877 91.6514 302.104 90.3589 300.827C88.8144 299.298 88.9436 293.628 90.4623 291.6Z" fill="#FFC618"/>
<path d="M95.3672 300.6C97.545 300.147 101.552 297.438 106.967 296.123C109.048 295.617 112.628 293.336 112.99 290.615C113.468 293.732 109.281 296.499 106.967 297.056C101.552 298.352 97.545 301.08 95.3672 301.54C93.7516 301.883 91.6513 302.11 90.3588 300.834C90.0254 300.462 89.7821 300.019 89.6479 299.538C91.535 301.106 93.7516 300.944 95.3672 300.6Z" fill="#111111"/>
<path d="M73.0719 283.778C75.8289 284.546 78.7766 284.189 81.2727 282.787C83.2502 282.845 93.9649 278.251 95.4254 282.139C96.7179 285.528 92.0585 288.658 89.5769 289.267C84.1614 290.563 80.1547 293.291 77.9833 293.751C76.3612 294.095 74.2609 294.321 72.9749 293.038C71.4239 291.47 71.5597 285.8 73.0719 283.778Z" fill="#FFC618"/>
<path d="M77.9834 292.773C80.1548 292.312 84.1615 289.61 89.577 288.295C91.6579 287.789 95.2381 285.502 95.6 282.787C96.0847 285.904 91.8905 288.671 89.577 289.228C84.1615 290.524 80.1548 293.252 77.9834 293.712C76.3613 294.056 74.261 294.282 72.975 292.999C72.6367 292.632 72.3928 292.187 72.2642 291.703C74.1447 293.272 76.3613 293.116 77.9834 292.773Z" fill="#111111"/>
<path d="M72.8587 254.573C73.3227 250.581 74.1512 246.639 75.3339 242.799C75.3339 242.799 74.5971 232.632 74.2288 223.002C73.8087 212.071 70.0282 202.448 73.0074 193.726L106.651 201.229C106.651 201.229 104.615 244.814 104.163 250.089C103.92 254.194 103.419 258.281 102.663 262.323C101.125 270.786 98.6309 290.913 98.6309 290.913C95.0701 292.987 90.4042 291.84 90.4042 291.84C90.4042 291.84 90.6627 266.386 90.8889 260.288C91.1668 252.843 91.393 253.413 91.393 253.413L90.2814 234.874L89.5576 225.646C89.5576 225.646 88.6271 232.418 88.0196 238.464C87.4897 243.738 86.223 248.508 84.7884 258.318C83.5605 266.833 81.5572 283.94 81.5572 283.94C78.0028 286.014 73.156 284.297 73.156 284.297C73.156 284.297 71.8958 261.96 72.8587 254.573Z" fill="#50555C"/>
<path d="M77.7704 141.866C80.3554 141.996 82.2424 142.657 82.5655 141.866C82.8391 140.54 83.0334 139.198 83.1471 137.848C82.8499 137.103 82.5978 136.306 82.5978 136.306C79.3666 134.317 78.365 130.831 77.9384 126.774C77.2211 119.834 80.9564 113.756 87.8776 113.03C94.3853 112.382 99.174 116.918 100.447 123.236C101.139 126.34 102.509 132.217 100.654 137.33C99.6199 140.188 98.2886 142.456 96.9509 142.896C95.6637 142.859 94.3798 142.747 93.1057 142.559C93.1057 142.559 92.7632 144.503 92.5241 145.722C92.285 146.94 92.3819 147.614 94.8377 149.137C97.2934 150.659 91.1218 153.77 87.0828 153.465C83.0437 153.161 78.5201 150.718 77.2728 148.1C75.8963 145.216 76.0126 141.782 77.7704 141.866Z" fill="#FFCEA9"/>
<path d="M81.4798 142.248C80.769 144.024 82.572 146.195 87.3865 147.711C92.201 149.227 92.6275 147.277 92.6275 147.277C92.6275 147.277 99.6845 150.517 101.979 152.104C104.867 154.133 106.147 159.991 106.541 169.879C106.987 181.323 107.026 198.3 106.651 201.229C106.651 201.229 101.255 206.621 94.3724 206.051C87.4899 205.48 75.8446 199.357 73.0464 194.62C73.1239 184.589 74.2936 182.956 72.6716 177.176C68.9621 163.943 67.0105 158.526 68.7941 149.733C70.2805 142.482 72.3614 141.581 75.2178 141.652C77.3141 141.74 79.4044 141.939 81.4798 142.248Z" fill="#F4F4F4"/>
<path d="M117.398 179.34C111.73 180.772 110.399 177.188 109.643 174.22C107.84 167.034 106.871 160.548 105.526 156.472C103.943 151.664 102.295 150.892 99.9558 149.959C97.2158 148.858 94.8635 151.178 95.7747 157.295C96.8539 164.539 98.2692 169.607 100.945 178.193C101.649 180.428 103.226 184.407 105.598 186.325C108.519 188.697 112.926 188.593 119.589 186.934C122.432 186.222 125.547 184.517 130.924 182.003C132.365 181.355 133.509 180.882 136.255 179.586C139.002 178.29 141.91 176.132 143.364 174.026C144.818 171.92 145.005 170.929 144.708 170.449C144.34 169.846 143.681 169.976 142.905 170.864C141.786 172.363 140.404 173.645 138.827 174.648C138.827 174.648 140.617 172.795 141.587 171.59C142.457 170.521 143.178 169.34 143.732 168.077C144.243 166.846 143.189 165.181 142.388 166.056C141.587 166.93 141.205 167.825 139.739 169.587C138.964 170.525 138.081 171.366 137.108 172.095C138.018 170.865 138.828 169.565 139.532 168.207C140.462 166.302 140.449 165.323 140.411 164.682C140.372 164.04 139.467 163.276 138.621 164.488C137.851 165.583 137.328 167.293 135.577 169.153C134.284 170.501 133.179 171.279 133.147 170.903C133.115 170.527 133.929 169.788 134.394 168.22C134.859 166.652 134.394 164.98 133.528 164.812C132.662 164.643 132.83 164.682 132.132 166.146C131.434 167.611 130.374 168.7 129.547 170.844C128.83 172.73 128.507 173.495 127.214 174.868C125.864 176.333 122.788 177.979 117.398 179.34Z" fill="#FFCEA9"/>
<path d="M97.8617 148.974C101.649 148.417 104.324 150.128 105.991 155.875C107.659 161.623 108.835 166.347 108.835 166.347C107.336 168.513 105.068 170.022 102.495 170.566C97.9716 171.667 96.3366 169.496 96.3366 169.496C96.3366 169.496 95.0441 163.47 94.2944 159.368C93.5448 155.266 93.1764 149.687 97.8617 148.974Z" fill="#EDEDED"/>
<path d="M100.227 122.348C100.227 122.348 106.211 113.231 93.2543 111.371C83.9097 110.036 77.8996 116.056 77.2081 122.588C76.5619 128.828 80.3812 135.308 83.1471 137.881C84.4977 138.367 87.4058 138.645 91.2251 136.902C91.378 135.202 91.4362 133.496 91.3996 131.789C91.3996 131.789 86.8436 122.179 100.227 122.348Z" fill="#111111"/>
<path opacity="0.4" d="M200.537 324C209.085 324 216.014 319.988 216.014 315.038C216.014 310.089 209.085 306.076 200.537 306.076C191.989 306.076 185.059 310.089 185.059 315.038C185.059 319.988 191.989 324 200.537 324Z" fill="#D6D8E5"/>
<path d="M202.837 323.423C211.385 323.423 218.315 319.411 218.315 314.461C218.315 309.512 211.385 305.5 202.837 305.5C194.289 305.5 187.36 309.512 187.36 314.461C187.36 319.411 194.289 323.423 202.837 323.423Z" fill="#D9DCE8"/>
<path d="M187.36 314.319V309.822L192.278 311.474L187.36 314.319Z" fill="#D9DCE8"/>
<path d="M218.302 310.139V314.176L212.634 313.062L218.302 310.139Z" fill="#D9DCE8"/>
<path d="M202.837 318.816C211.385 318.816 218.315 314.803 218.315 309.854C218.315 304.904 211.385 300.892 202.837 300.892C194.289 300.892 187.36 304.904 187.36 309.854C187.36 314.803 194.289 318.816 202.837 318.816Z" fill="#EFF1F9"/>
<path d="M192.691 316.619L191.011 315.647L212.835 303.018L214.509 303.99L192.691 316.619Z" fill="#D3D6E2"/>
<path d="M191.011 315.647V320.248L192.536 321.155L192.75 321.259V316.619L191.011 315.647Z" fill="#C5C8D3"/>
<path opacity="0.4" d="M136.478 289.108C145.025 289.108 151.955 285.095 151.955 280.146C151.955 275.196 145.025 271.184 136.478 271.184C127.93 271.184 121 275.196 121 280.146C121 285.095 127.93 289.108 136.478 289.108Z" fill="#D6D8E5"/>
<path d="M138.779 288.531C147.327 288.531 154.256 284.519 154.256 279.569C154.256 274.62 147.327 270.607 138.779 270.607C130.231 270.607 123.301 274.62 123.301 279.569C123.301 284.519 130.231 288.531 138.779 288.531Z" fill="#D9DCE8"/>
<path d="M123.301 279.42V274.917L128.219 276.575L123.301 279.42Z" fill="#D9DCE8"/>
<path d="M169.511 254.84V258.877L163.843 257.756L169.511 254.84Z" fill="#D9DCE8"/>
<path d="M138.779 283.924C147.327 283.924 154.256 279.911 154.256 274.962C154.256 270.012 147.327 266 138.779 266C130.231 266 123.301 270.012 123.301 274.962C123.301 279.911 130.231 283.924 138.779 283.924Z" fill="#EFF1F9"/>
<path d="M128.633 281.727L126.959 280.755L148.776 268.125L150.456 269.097L128.633 281.727Z" fill="#D3D6E2"/>
<path d="M126.959 280.755V285.356L128.478 286.256L128.691 286.367V281.727L126.959 280.755Z" fill="#C5C8D3"/>
<path opacity="0.4" d="M282.228 298.825C290.776 298.825 297.706 294.813 297.706 289.863C297.706 284.914 290.776 280.901 282.228 280.901C273.68 280.901 266.751 284.914 266.751 289.863C266.751 294.813 273.68 298.825 282.228 298.825Z" fill="#D6D8E5"/>
<path d="M284.522 298.248C293.07 298.248 300 294.236 300 289.287C300 284.337 293.07 280.325 284.522 280.325C275.974 280.325 269.045 284.337 269.045 289.287C269.045 294.236 275.974 298.248 284.522 298.248Z" fill="#D9DCE8"/>
<path d="M269.052 289.144C269.052 289.105 269.052 284.64 269.052 284.64L273.976 286.299L269.052 289.144Z" fill="#D9DCE8"/>
<path d="M299.994 284.964V289.001L294.326 287.88L299.994 284.964Z" fill="#D9DCE8"/>
<path d="M284.522 293.641C293.07 293.641 300 289.629 300 284.679C300 279.73 293.07 275.717 284.522 275.717C275.974 275.717 269.045 279.73 269.045 284.679C269.045 289.629 275.974 293.641 284.522 293.641Z" fill="#EFF1F9"/>
<path d="M274.383 291.444L272.703 290.472L294.52 277.843L296.2 278.815L274.383 291.444Z" fill="#D3D6E2"/>
<path d="M272.703 290.472V295.073L274.228 295.974L274.441 296.084V291.444L272.703 290.472Z" fill="#C5C8D3"/>
<path opacity="0.4" d="M27.0345 240C41.9652 240 54.069 233.246 54.069 224.916C54.069 216.585 41.9652 209.831 27.0345 209.831C12.1038 209.831 0 216.585 0 224.916C0 233.246 12.1038 240 27.0345 240Z" fill="#D6D8E5"/>
<path d="M54.0691 170.034H4.50586C4.50586 170.034 4.67515 212.305 4.54753 220.326C4.51457 220.687 4.505 221.049 4.51888 221.411C4.51888 221.487 4.51888 221.544 4.50586 221.581H4.5267C4.72203 225.108 7.13118 228.598 11.7645 231.29C21.4402 236.91 37.14 236.91 46.8026 231.303C51.436 228.612 53.8347 225.121 54.0404 221.594H54.0691V170.034Z" fill="#FF5A5A"/>
<path d="M29.2875 184.156C42.974 184.156 54.0691 177.689 54.0691 169.713C54.0691 161.737 42.974 155.271 29.2875 155.271C15.601 155.271 4.50586 161.737 4.50586 169.713C4.50586 177.689 15.601 184.156 29.2875 184.156Z" fill="white"/>
<path d="M55.3593 172.104C55.0981 172.789 54.767 173.446 54.3713 174.063C53.5806 175.283 52.6115 176.377 51.4962 177.311C51.1669 177.601 50.8193 177.88 50.4507 178.154C49.7174 178.703 48.9511 179.206 48.1559 179.661C47.9834 179.76 47.8135 179.856 47.6332 179.95C47.2803 180.146 46.9144 180.337 46.5407 180.517C45.6494 180.953 44.7111 181.355 43.7518 181.713C43.3938 181.849 43.0331 181.974 42.6645 182.099C41.7419 182.41 40.7931 182.681 39.8208 182.922C39.4941 183.005 39.1648 183.084 38.8329 183.154C37.8815 183.366 36.9179 183.54 35.9421 183.676C35.6102 183.726 35.2808 183.773 34.9489 183.812C33.9923 183.929 33.0339 184.016 32.0738 184.073C31.7445 184.091 31.4152 184.11 31.0806 184.117C30.1188 184.159 29.1543 184.164 28.2056 184.144C27.8736 184.144 27.5443 184.125 27.2124 184.11C26.2453 184.065 25.2808 183.995 24.3216 183.888C23.9897 183.851 23.6577 183.815 23.3284 183.768C22.3561 183.642 21.3916 183.48 20.4403 183.29C20.1083 183.225 19.7764 183.151 19.4497 183.078C18.4652 182.854 17.5025 182.593 16.5615 182.295C16.2296 182.191 15.895 182.081 15.5683 181.969C14.5725 181.624 13.6054 181.238 12.6776 180.809C12.343 180.658 12.0111 180.499 11.6896 180.334C11.2488 180.111 10.8184 179.879 10.3984 179.637C9.83388 179.311 9.3033 178.977 8.79886 178.627C8.45385 178.394 8.1219 178.151 7.80565 177.903C6.72816 177.079 5.75717 176.124 4.9149 175.06C4.55234 174.597 4.22307 174.108 3.92954 173.598C0.855826 168.243 3.01213 162.11 10.3984 157.849C20.8271 151.843 37.7403 151.843 48.1742 157.849C51.1094 159.541 53.2134 161.525 54.4994 163.642C54.8411 164.203 55.1316 164.792 55.3671 165.405C56.2136 167.558 56.2108 169.953 55.3593 172.104Z" fill="#EF990F"/>
<path d="M2.57471 168.108C2.57471 167.983 2.57471 161.047 2.57471 161.047L10.9425 164.578L2.57471 168.108Z" fill="#EF990F"/>
<path d="M56 161.047L55.9923 168.16L51.2015 171.96L48.2759 165.437L56 161.047Z" fill="#EF990F"/>
<path d="M5.14954 164.898V175.169C4.9127 174.687 4.69761 174.178 4.50586 173.648V164.898H5.14954Z" fill="#DD8910"/>
<path d="M9.01135 167.466V177.737C8.78776 177.507 8.57264 177.267 8.36768 177.021V167.466H9.01135Z" fill="#DD8910"/>
<path d="M12.8737 171.317V180.304C12.6557 180.166 12.4394 180.021 12.23 179.871V171.317H12.8737Z" fill="#DD8910"/>
<path d="M16.7356 171.959V181.588C16.3053 181.489 15.8717 181.385 15.4482 181.279V171.972L16.7356 171.959Z" fill="#DD8910"/>
<path d="M20.5979 173.243V182.23C20.1665 182.17 19.7351 182.103 19.3105 182.036V173.243H20.5979Z" fill="#DD8910"/>
<path d="M23.816 173.885V184.156C23.6009 184.116 23.3858 184.076 23.1724 184.025V173.885H23.816Z" fill="#DD8910"/>
<path d="M27.6783 173.885V184.156C27.4632 184.156 27.2498 184.136 27.0347 184.12V173.885H27.6783Z" fill="#DD8910"/>
<path d="M32.8275 173.885V184.108C32.1872 184.128 31.5469 184.147 30.8965 184.156V173.894L32.8275 173.885Z" fill="#DD8910"/>
<path d="M35.4021 173.885V183.379C34.9719 183.428 34.545 183.475 34.1147 183.514V173.885H35.4021Z" fill="#DD8910"/>
<path d="M39.9078 173.243V182.023C39.695 182.097 39.4804 182.167 39.2642 182.23V173.243H39.9078Z" fill="#DD8910"/>
<path d="M43.7701 171.317V181.207C43.5582 181.341 43.3446 181.464 43.1265 181.588V171.317H43.7701Z" fill="#DD8910"/>
<path d="M47.6321 169.392V179.743C47.2163 179.937 46.7851 180.126 46.3447 180.304V169.392H47.6321Z" fill="#DD8910"/>
<path d="M51.4944 166.183V176.854C51.0889 177.158 50.6608 177.45 50.207 177.737V166.183H51.4944Z" fill="#DD8910"/>
<path d="M54.7125 162.973V171.83C54.5424 172.549 54.3267 173.238 54.0688 173.885V162.973H54.7125Z" fill="#DD8910"/>
<path d="M29.2873 175.811C44.0403 175.811 56 168.914 56 160.405C56 151.897 44.0403 145 29.2873 145C14.5344 145 2.57471 151.897 2.57471 160.405C2.57471 168.914 14.5344 175.811 29.2873 175.811Z" fill="#FCA70D"/>
<path d="M47.0793 188.278C37.2536 193.922 21.3235 193.922 11.4978 188.278L11.0376 188.015L10.9424 188.073V207.835C11.1222 207.946 11.3074 208.056 11.4978 208.164C21.3235 213.81 37.2536 213.81 47.0793 208.164C47.2697 208.056 47.4495 207.943 47.632 207.83V188.067L47.5342 188.007C47.3861 188.102 47.2353 188.188 47.0793 188.278Z" fill="#ECE8F9"/>
<path d="M33.4711 196.72C26.5828 197.267 19.3042 196.508 13.5171 194.426V196.452C19.3042 198.53 26.5908 199.294 33.4711 198.749V196.72Z" fill="#50555C"/>
<path d="M33.4711 201.227C26.5828 201.928 19.3042 200.953 13.5171 198.277V200.882C19.2988 203.553 26.5828 204.536 33.4711 203.835V201.227Z" fill="#50555C"/>
<path d="M39.9082 195.032V202.77C40.4724 202.589 41.1802 202.358 41.8392 202.136V194.426H41.8125C41.2118 194.661 40.4457 194.887 39.9082 195.032Z" fill="#50555C"/>
<path d="M43.7703 196.352C41.6952 197.243 39.5384 197.91 37.3335 198.342V200.845C39.5384 200.413 41.6952 199.746 43.7703 198.855V196.352Z" fill="#50555C"/>
<defs>
<filter id="filter0_d_205_2404" x="166.981" y="31.5234" width="86.7505" height="81.4585" filterUnits="userSpaceOnUse" color-interpolation-filters="sRGB">
<feFlood flood-opacity="0" result="BackgroundImageFix"/>
<feColorMatrix in="SourceAlpha" type="matrix" values="0 0 0 0 0 0 0 0 0 0 0 0 0 0 0 0 0 0 127 0" result="hardAlpha"/>
<feOffset dy="4"/>
<feGaussianBlur stdDeviation="5"/>
<feColorMatrix type="matrix" values="0 0 0 0 1 0 0 0 0 0.352941 0 0 0 0 0.352941 0 0 0 0.2 0"/>
<feBlend mode="normal" in2="BackgroundImageFix" result="effect1_dropShadow_205_2404"/>
<feBlend mode="normal" in="SourceGraphic" in2="effect1_dropShadow_205_2404" result="shape"/>
</filter>
</defs>
</svg>
