<svg width="23" height="21" viewBox="0 0 23 21" fill="none" xmlns="http://www.w3.org/2000/svg">
<path fill-rule="evenodd" clip-rule="evenodd" d="M20.8802 10.6853V10.6853C20.6819 10.487 20.4196 10.3719 20.1446 10.3719C19.8439 10.3719 19.5817 10.487 19.3962 10.6853C19.1979 10.8644 19.0955 11.133 19.0955 11.4209C19.0955 11.7087 19.1979 11.9646 19.3962 12.1565C19.5817 12.3484 19.8439 12.4571 20.1446 12.4571C20.4196 12.4571 20.6819 12.3484 20.8802 12.1565C21.0657 11.9646 21.1808 11.7087 21.1808 11.4209C21.1808 11.133 21.0657 10.8644 20.8802 10.6853V10.6853ZM2.61807 1.92204V1.92204H2.004C1.8249 1.92204 1.67777 1.9924 1.56264 2.10115C1.45389 2.21628 1.38993 2.36341 1.38993 2.52972C1.38993 2.70242 1.45389 2.86234 1.56264 2.97108C1.67777 3.08622 1.8249 3.15018 2.004 3.15018H2.61807V1.92204ZM20.1445 8.61295V8.61295C20.9056 8.61295 21.6093 8.92638 22.1146 9.4381C22.6199 9.94983 22.9334 10.6343 22.9334 11.421C22.9334 12.195 22.6199 12.8986 22.1146 13.404C21.6093 13.9093 20.9056 14.2227 20.1445 14.2227C19.3577 14.2227 18.6541 13.9093 18.1487 13.404C17.976 13.2313 17.8161 13.0202 17.6882 12.8091C17.3619 13.0714 17.0741 13.3976 16.8566 13.7494C16.4792 14.3443 16.2553 15.0543 16.2553 15.8155V15.8283V15.8411V15.8539C16.2425 17.2099 15.6924 18.4189 14.8033 19.3208C13.9142 20.2035 12.6861 20.76 11.3236 20.76C9.96112 20.76 8.72018 20.2035 7.83745 19.3208C6.93554 18.4189 6.38543 17.1907 6.38543 15.8283V13.4551C4.7735 13.3208 3.34067 12.6236 2.25965 11.549C1.06349 10.3592 0.327881 8.70889 0.327881 6.88587V2.56179V2.52981C0.327881 2.07565 0.513381 1.66627 0.826813 1.36563C1.12745 1.0522 1.54323 0.866699 2.00378 0.866699H3.14877C3.43022 0.866699 3.67968 1.10337 3.67968 1.39122V1.40401V3.67479C3.67968 3.96904 3.43022 4.21211 3.14877 4.21211H3.12958H2.08694V6.88587C2.08694 8.21636 2.62425 9.42531 3.50058 10.2952C4.37691 11.1716 5.58586 11.7217 6.90355 11.7217H8.33639C9.66048 11.7217 10.8758 11.1716 11.7458 10.2952C12.6157 9.42531 13.153 8.21636 13.153 6.88587V4.21211H12.1168H12.104C11.8097 4.21211 11.5731 3.96904 11.5731 3.67479V1.40401V1.39122C11.5731 1.10337 11.8097 0.866699 12.104 0.866699H13.249C13.7095 0.866699 14.1317 1.0522 14.4323 1.36563C14.733 1.66627 14.9185 2.07565 14.9185 2.52981V2.56179V6.88587C14.9185 8.70889 14.1829 10.3592 12.9867 11.549C11.7969 12.7323 10.1466 13.4743 8.33639 13.4743H7.43447V15.8283C7.43447 16.8965 7.87583 17.8688 8.56666 18.566C9.28308 19.2696 10.249 19.7046 11.3236 19.7046C12.3982 19.7046 13.3513 19.2696 14.0613 18.566C14.7585 17.8688 15.1935 16.9093 15.1935 15.8411V15.8283V15.8155C15.2063 14.8432 15.4814 13.9477 15.9547 13.1865C16.3129 12.6236 16.7863 12.1247 17.3428 11.7537C17.3428 11.6385 17.33 11.5234 17.33 11.421C17.33 10.6343 17.6434 9.94983 18.1487 9.4381C18.6541 8.92638 19.3577 8.61295 20.1445 8.61295V8.61295ZM13.2491 1.92204H12.6351V3.15018H13.2491C13.4218 3.15018 13.569 3.08622 13.6841 2.97108C13.7928 2.86234 13.8696 2.70242 13.8696 2.52972C13.8696 2.36341 13.7928 2.21628 13.6841 2.10115C13.569 1.9924 13.4218 1.92204 13.2491 1.92204V1.92204Z" fill="#989BA5"/>
</svg>
