<svg width="307" height="213" viewBox="0 0 307 213" fill="none" xmlns="http://www.w3.org/2000/svg">
<ellipse cx="153.5" cy="138" rx="153.5" ry="75" fill="#CBDFE1"/>
<path opacity="0.4" d="M88.5295 191.216L23.7059 153.776C18.2146 150.609 18.901 145.071 25.2659 141.41L181.834 51.0125C188.178 47.3724 197.767 46.9512 203.258 50.1233L268.082 87.5635C273.573 90.7355 272.881 96.2736 266.521 99.9344L109.959 190.321C103.61 193.987 94.0207 194.383 88.5295 191.216Z" fill="#D6D8E5"/>
<path d="M96.7404 186.286L31.9168 148.846C26.4255 145.674 27.1171 140.136 33.4768 136.475L190.039 46.0831C196.383 42.4431 205.972 42.0271 211.464 45.1939L276.287 82.6341C281.778 85.801 281.092 91.339 274.727 94.9998L118.165 185.397C111.821 189.058 102.232 189.458 96.7404 186.286Z" fill="#B1B4C4"/>
<path d="M28.209 143.412V137.442L35.2082 140.084L28.209 143.412Z" fill="#B1B4C4"/>
<path d="M280 87.7926V82.0518L274.431 85.6398L280 87.7926Z" fill="#B1B4C4"/>
<path d="M96.7404 181.237L31.9168 143.797C26.4255 140.63 27.1171 135.092 33.4768 131.431L190.039 41.0335C196.383 37.3934 205.972 36.9722 211.464 40.1442L276.287 77.5845C281.778 80.7565 281.092 86.2946 274.727 89.9554L118.165 180.348C111.821 184.008 102.232 184.404 96.7404 181.237Z" fill="#616E84"/>
<path d="M39.7412 151.473C40.0745 151.281 40.0757 150.659 39.744 150.085C39.4123 149.51 38.8733 149.2 38.54 149.393C38.2067 149.585 38.2054 150.207 38.5371 150.781C38.8688 151.356 39.4079 151.666 39.7412 151.473Z" fill="#757B89"/>
<path d="M42.8591 153.276C43.1924 153.084 43.1937 152.462 42.8619 151.887C42.5302 151.313 41.9912 151.003 41.6579 151.196C41.3246 151.388 41.3233 152.01 41.655 152.584C41.9868 153.159 42.5258 153.469 42.8591 153.276Z" fill="#757B89"/>
<path d="M45.9851 155.078C46.3184 154.885 46.3196 154.264 45.9879 153.689C45.6562 153.115 45.1171 152.805 44.7839 152.997C44.4506 153.19 44.4493 153.811 44.781 154.386C45.1127 154.961 45.6518 155.27 45.9851 155.078Z" fill="#757B89"/>
<path d="M49.103 156.881C49.4363 156.688 49.4375 156.066 49.1058 155.492C48.7741 154.917 48.2351 154.608 47.9018 154.8C47.5685 154.992 47.5672 155.614 47.8989 156.189C48.2306 156.763 48.7697 157.073 49.103 156.881Z" fill="#757B89"/>
<path d="M76.1148 173.033C76.4496 172.841 76.4521 172.217 76.1204 171.64C75.7887 171.063 75.2484 170.751 74.9136 170.943C74.5788 171.136 74.5763 171.759 74.908 172.337C75.2397 172.914 75.78 173.226 76.1148 173.033Z" fill="#757B89"/>
<path d="M79.0132 174.15C79.3464 173.958 79.3477 173.336 79.016 172.761C78.6843 172.187 78.1452 171.877 77.8119 172.07C77.4787 172.262 77.4774 172.884 77.8091 173.458C78.1408 174.033 78.6799 174.343 79.0132 174.15Z" fill="#757B89"/>
<path d="M82.1338 175.952C82.467 175.76 82.4683 175.138 82.1366 174.564C81.8049 173.989 81.2658 173.679 80.9326 173.872C80.5993 174.064 80.598 174.686 80.9297 175.26C81.2614 175.835 81.8005 176.145 82.1338 175.952Z" fill="#757B89"/>
<path d="M85.2517 177.755C85.585 177.562 85.5862 176.94 85.2545 176.366C84.9228 175.791 84.3837 175.482 84.0505 175.674C83.7172 175.866 83.7159 176.488 84.0476 177.063C84.3793 177.637 84.9184 177.947 85.2517 177.755Z" fill="#757B89"/>
<path d="M66.185 167.353L57.6154 162.408C57.316 162.194 57.0711 161.912 56.9004 161.586C56.7297 161.26 56.638 160.899 56.6326 160.531C56.6326 159.803 57.0694 159.491 57.6154 159.787L66.185 164.732C66.4848 164.947 66.7299 165.229 66.9006 165.556C67.0713 165.883 67.1628 166.246 67.1678 166.615C67.1678 167.337 66.731 167.67 66.185 167.353Z" fill="#757B89"/>
<path d="M260.38 101.999L252.409 106.601C251.889 106.892 251.493 106.601 251.493 105.909C251.499 105.568 251.585 105.232 251.744 104.929C251.903 104.627 252.13 104.366 252.409 104.167L260.38 99.5654C260.9 99.2741 261.29 99.5654 261.29 100.257C261.286 100.598 261.201 100.934 261.043 101.236C260.885 101.539 260.658 101.8 260.38 101.999Z" fill="#757B89"/>
<path d="M248.171 109.05L240.199 113.652C239.679 113.943 239.284 113.652 239.284 112.961C239.289 112.618 239.375 112.282 239.534 111.978C239.693 111.675 239.921 111.413 240.199 111.213L248.171 106.601C248.691 106.31 249.081 106.601 249.081 107.293C249.078 107.637 248.994 107.975 248.836 108.28C248.678 108.586 248.45 108.85 248.171 109.05Z" fill="#757B89"/>
<path d="M96.7404 180.317L31.9168 142.876C26.4255 139.704 27.1171 134.166 33.4768 130.506L190.039 40.1134C196.383 36.4733 205.972 36.0573 211.464 39.2242L276.287 76.6644C281.778 79.8312 281.092 85.3693 274.727 89.0301L118.165 179.427C111.821 183.088 102.232 183.489 96.7404 180.317Z" fill="#20232D"/>
<path d="M269.335 78.1463L244.026 63.5342L243.964 63.5706C240.974 65.297 236.127 65.297 233.137 63.5706C230.147 61.8442 230.147 59.0414 233.137 57.3306L233.2 57.2994L207.891 42.6873C204.048 40.4669 197.813 40.4669 193.971 42.6873L41.4588 130.724C37.616 132.939 37.616 136.538 41.4588 138.758L102.897 174.233C106.745 176.453 112.975 176.453 116.818 174.233L269.335 86.1804C273.178 83.96 273.178 80.3615 269.335 78.1463Z" fill="white"/>
<path opacity="0.5" d="M269.335 86.1802L116.823 174.232C113.349 176.24 107.915 176.427 104.067 174.804C103.668 174.64 103.281 174.449 102.908 174.232L41.464 138.758C40.6145 138.302 39.8773 137.662 39.3059 136.886C37.8551 134.806 38.5727 132.388 41.464 130.724L193.971 42.6663C197.813 40.4511 204.043 40.4511 207.891 42.6663L233.2 57.2836L233.137 57.32C230.147 59.0464 230.147 61.8388 233.137 63.56C236.127 65.2812 240.979 65.2916 243.964 63.56L244.021 63.5288L269.335 78.1409C273.178 80.3665 273.178 83.9598 269.335 86.1802Z" fill="url(#paint0_linear_1_5114)"/>
<path d="M236.887 63.0819C238.492 63.0819 239.793 62.3299 239.793 61.4023C239.793 60.4746 238.492 59.7227 236.887 59.7227C235.281 59.7227 233.98 60.4746 233.98 61.4023C233.98 62.3299 235.281 63.0819 236.887 63.0819Z" fill="#2B303F"/>
<path opacity="0.1" d="M236.029 61.8807C235.921 61.8492 235.826 61.7835 235.758 61.6935C235.691 61.6035 235.654 61.494 235.654 61.3815C235.654 61.269 235.691 61.1595 235.758 61.0695C235.826 60.9795 235.921 60.9138 236.029 60.8823C236.296 60.749 236.591 60.6797 236.889 60.6797C237.188 60.6797 237.483 60.749 237.75 60.8823C237.858 60.9138 237.953 60.9795 238.02 61.0695C238.088 61.1595 238.124 61.269 238.124 61.3815C238.124 61.494 238.088 61.6035 238.02 61.6935C237.953 61.7835 237.858 61.8492 237.75 61.8807C237.483 62.0139 237.188 62.0833 236.889 62.0833C236.591 62.0833 236.296 62.0139 236.029 61.8807Z" fill="white"/>
<path d="M204.823 110.366L150.582 79.0406C147.43 77.2206 147.826 74.0434 151.466 71.9426L187.959 50.8824C191.599 48.8024 197.112 48.5476 200.263 50.3624L254.52 81.6874C257.671 83.5075 257.276 86.6847 253.636 88.7907L217.147 109.856C213.481 111.957 207.974 112.186 204.823 110.366Z" fill="#E9EAF2"/>
<path d="M149.443 142.336L95.2012 111.021C92.05 109.201 92.4452 106.024 96.0853 103.918L132.569 82.8525C136.209 80.7725 141.721 80.5229 144.872 82.3325L199.114 113.647C202.265 115.472 201.87 118.65 198.23 120.75L161.741 141.816C158.101 143.932 152.599 144.156 149.443 142.336Z" fill="#E9EAF2"/>
<path d="M142.849 152.736L106.36 173.796C105.635 174.215 104.866 174.553 104.067 174.805C103.668 174.64 103.281 174.449 102.908 174.233L41.4639 138.758C40.6145 138.302 39.8773 137.663 39.3059 136.886C39.7376 136.509 40.2062 136.176 40.7047 135.893L77.1986 114.828C80.8386 112.748 86.3506 112.498 89.5018 114.308L143.759 145.633C146.879 147.453 146.489 150.63 142.849 152.736Z" fill="#E9EAF2"/>
<path d="M247.307 73.5028L246.21 72.8684L248.046 71.8076L249.143 72.442L247.307 73.5028Z" fill="#E9EAF2"/>
<path d="M248.779 74.3503L247.677 73.7159L250.245 72.2339L251.348 72.8683L248.779 74.3503Z" fill="#E9EAF2"/>
<path d="M250.245 75.1979L249.143 74.5635L252.814 72.4419L253.917 73.0763L250.245 75.1979Z" fill="#E9EAF2"/>
<path d="M251.712 76.0455L250.615 75.4111L255.752 72.4419L256.855 73.0763L251.712 76.0455Z" fill="#E9EAF2"/>
<path d="M256.485 78.8017L254.775 77.8137L258.196 75.8325L259.912 76.8205L256.485 78.8017Z" fill="#E9EAF2"/>
<path d="M258.768 80.1173L257.057 79.1293L260.484 77.1533L262.195 78.1413L258.768 80.1173Z" fill="#E9EAF2"/>
<path d="M261.051 81.438L259.34 80.45L262.767 78.4688L264.478 79.462L261.051 81.438Z" fill="#E9EAF2"/>
<path d="M178.246 31.7517L124.592 0.775052C123.136 -0.0621541 121.815 -0.197355 120.806 0.255048C120.666 0.318198 120.533 0.392996 120.406 0.47865L114.805 3.59867L118.882 9.31871V49.8062C118.882 53.4462 121.44 57.8766 124.602 59.6862L145.621 71.8179L148.179 78.4168L145.496 90.0909L151.429 86.794L157.227 78.5208L175.427 89.0352L176.067 94.4901L181.943 91.2141C183.165 90.6941 183.945 89.368 183.945 87.3608V41.6421C183.955 38.0021 181.402 33.5717 178.246 31.7517Z" fill="#EDEEF7"/>
<path d="M172.312 35.0484L118.659 4.07175C115.507 2.25174 112.938 3.72855 112.938 7.36858V53.1289C112.938 56.7689 115.497 61.1993 118.659 63.0089L139.677 75.1406L145.486 90.1167L151.294 81.8487L172.312 93.9856C175.469 95.8056 178.033 94.3288 178.033 90.6887V44.9388C178.022 41.2988 175.479 36.8684 172.312 35.0484Z" fill="#F8F9FF"/>
<path fill-rule="evenodd" clip-rule="evenodd" d="M130.223 118.789C138.078 123.324 150.875 123.289 158.804 118.711C166.734 114.133 166.795 106.746 158.94 102.211C151.084 97.6761 138.288 97.711 130.358 102.289C122.428 106.867 122.368 114.254 130.223 118.789ZM149.458 110.487L156.683 114.657L151.783 117.486L144.558 113.315L137.294 117.509L132.44 114.707L139.704 110.513L132.508 106.359L137.408 103.53L144.604 107.685L151.897 103.474L156.751 106.276L149.458 110.487Z" fill="#FA7269"/>
<path d="M163.398 56.6899C163.398 47.0111 156.482 35.1614 147.967 30.3082C143.421 27.7225 139.353 27.6534 136.533 29.5892L131.398 32.4513L133.587 33.3086C132.835 35.1485 132.468 37.119 132.507 39.1021C132.507 48.7809 139.423 60.6167 147.939 65.4838C149.252 66.252 150.669 66.8339 152.147 67.2121V70.2402L158.769 66.5623C161.687 64.9169 163.398 61.5155 163.398 56.6899Z" fill="#DD990E"/>
<path d="M152.76 70.1378C158.789 66.6571 158.786 55.3656 152.754 44.9176C146.722 34.4696 136.945 28.8214 130.916 32.3021C124.887 35.7828 124.89 47.0743 130.922 57.5223C136.954 67.9703 146.732 73.6184 152.76 70.1378Z" fill="#F9CB07"/>
<path d="M137.296 46.3879C138.154 45.8923 138.153 44.2837 137.294 42.795C136.434 41.3062 135.042 40.5011 134.183 40.9967C133.325 41.4923 133.326 43.1009 134.185 44.5897C135.045 46.0784 136.437 46.8835 137.296 46.3879Z" fill="#CC8B09"/>
<path d="M149.271 53.2849C150.13 52.7893 150.129 51.1807 149.269 49.692C148.41 48.2032 147.017 47.3981 146.159 47.8937C145.3 48.3893 145.301 49.9979 146.161 51.4866C147.02 52.9754 148.413 53.7805 149.271 53.2849Z" fill="#CC8B09"/>
<path d="M135.398 53.2402C135.398 53.2402 137.492 58.9128 141.709 61.3171C145.926 63.7215 148.398 60.6692 148.398 60.6692L135.398 53.2402Z" fill="#CC8B09"/>
<path d="M251 170L228 156.553L230.877 130L248.129 140.082L251 170Z" fill="#BDA461"/>
<path d="M245 173L222 159.557L224.876 133L242.124 143.084L245 173Z" fill="#EFDA86"/>
<path d="M244.925 173L251 169.669L248.081 140L242 143.337L244.925 173Z" fill="#D1B66B"/>
<path d="M225 133.131L231 130L230.296 136L225 133.131Z" fill="#BDA461"/>
<path d="M238 141L236.892 140.367C236.892 137.817 235.371 134.878 233.5 133.797C231.629 132.716 230.114 133.941 230.114 136.491L229 135.858C229 132.615 231.023 131.122 233.5 132.531C235.977 133.941 238 137.757 238 141Z" fill="#20232D"/>
<path d="M243 137L242.015 136.367C242.015 133.817 240.664 130.878 239 129.797C237.336 128.716 235.991 129.941 235.991 132.491L235 131.858C235 128.615 236.798 127.122 239 128.531C241.202 129.941 243 133.787 243 137Z" fill="#20232D"/>
<path d="M234 185L201 165.505L205.125 127L229.875 141.624L234 185Z" fill="#BDA461"/>
<path d="M225 189L192 169.841L196.124 132L220.876 146.366L225 189Z" fill="#EFDA86"/>
<path d="M207.606 170.731C212.912 173.794 217.213 171.311 217.213 165.185C217.213 159.059 212.912 151.609 207.606 148.546C202.301 145.483 198 147.966 198 154.093C198 160.219 202.301 167.668 207.606 170.731Z" fill="#EB5757"/>
<path d="M213.345 157.956C212.975 157.299 212.532 156.689 212.042 156.163C211.552 155.637 211.025 155.204 210.492 154.89C209.959 154.577 209.43 154.389 208.936 154.337C208.443 154.285 207.994 154.371 207.617 154.589C207.24 153.936 206.792 153.333 206.299 152.815C205.806 152.297 205.277 151.874 204.744 151.572C204.211 151.27 203.685 151.094 203.195 151.055C202.705 151.016 202.263 151.115 201.893 151.344C201.169 151.831 200.778 152.801 200.805 154.049C200.832 155.296 201.274 156.722 202.037 158.025L206.588 165.907C206.724 166.144 206.887 166.363 207.065 166.551C207.243 166.739 207.435 166.894 207.628 167.005C207.821 167.117 208.012 167.183 208.19 167.201C208.369 167.218 208.531 167.187 208.667 167.108L213.219 164.48C213.979 164.055 214.418 163.136 214.441 161.917C214.465 160.699 214.071 159.278 213.345 157.956Z" fill="white"/>
<path d="M207.606 164.486C207.535 164.442 207.467 164.376 207.41 164.294C207.354 164.213 207.311 164.122 207.287 164.031L205.26 156.017L204.413 158.39C204.389 158.455 204.344 158.498 204.284 158.512C204.225 158.527 204.154 158.511 204.081 158.469L200.688 156.51C200.595 156.456 200.506 156.362 200.441 156.249C200.375 156.135 200.338 156.011 200.338 155.904C200.338 155.797 200.375 155.715 200.441 155.677C200.506 155.639 200.595 155.648 200.688 155.702L203.839 157.521L204.938 154.448C204.962 154.383 205.007 154.34 205.066 154.325C205.125 154.311 205.196 154.325 205.269 154.367C205.342 154.409 205.413 154.477 205.472 154.56C205.531 154.643 205.576 154.737 205.6 154.83L207.662 162.986L209.664 158.697C209.69 158.642 209.731 158.606 209.785 158.594C209.838 158.581 209.9 158.591 209.966 158.624C210.031 158.658 210.096 158.713 210.154 158.782C210.212 158.852 210.259 158.934 210.291 159.018L211.348 161.852L214.538 163.694C214.631 163.747 214.72 163.841 214.785 163.955C214.851 164.069 214.888 164.193 214.888 164.3C214.888 164.407 214.851 164.489 214.785 164.527C214.72 164.564 214.631 164.556 214.538 164.502L211.145 162.543C211.083 162.508 211.021 162.454 210.967 162.386C210.913 162.318 210.868 162.24 210.837 162.159L210.008 159.966L207.928 164.425C207.901 164.483 207.856 164.519 207.799 164.53C207.742 164.541 207.675 164.525 207.606 164.486Z" fill="#EB5757"/>
<path d="M225.223 189L234 184.25L229.777 142L221 146.744L225.223 189Z" fill="#D1B66B"/>
<path d="M196 131.693L205 127L203.945 136L196 131.693Z" fill="#BDA461"/>
<path d="M215 143L213.397 142.059C213.397 138.375 211.199 134.127 208.503 132.594C205.807 131.06 203.603 132.797 203.603 136.482L202 135.571C202 130.88 204.915 128.723 208.503 130.778C212.092 132.833 215 138.309 215 143Z" fill="#20232D"/>
<path d="M223 138L221.52 137.082C221.52 133.391 219.491 129.135 217.003 127.593C214.514 126.051 212.48 127.803 212.48 131.494L211 130.582C211 125.877 213.696 123.722 217.003 125.781C220.31 127.839 223 133.295 223 138Z" fill="#20232D"/>
<defs>
<linearGradient id="paint0_linear_1_5114" x1="155.397" y1="175.896" x2="155.397" y2="41.0075" gradientUnits="userSpaceOnUse">
<stop offset="0.21" stop-color="white" stop-opacity="0"/>
<stop offset="1" stop-color="white" stop-opacity="0.2"/>
</linearGradient>
</defs>
</svg>
