<svg width="23" height="21" viewBox="0 0 23 21" fill="none" xmlns="http://www.w3.org/2000/svg">
<path fill-rule="evenodd" clip-rule="evenodd" d="M21.567 8.97691L12.4142 1.21208C11.871 0.751572 11.0744 0.751572 10.5312 1.21208L1.37846 8.97691C0.923935 9.36417 0.751965 9.98971 0.944642 10.5549C1.13732 11.1201 1.65557 11.5103 2.252 11.5393V19.3041C2.252 20.1082 2.90383 20.76 3.7079 20.76H19.2376C20.0416 20.76 20.6935 20.1082 20.6935 19.3041V11.5442C21.2899 11.5152 21.8081 11.1249 22.0008 10.5597C22.1935 9.99456 22.0215 9.36902 21.567 8.98176V8.97691ZM10.9874 19.3091H10.0168V14.9413H12.9286V19.3091H10.9874ZM19.2374 10.0883V19.309H14.3844V14.9413C14.3844 14.1372 13.7326 13.4854 12.9285 13.4854H10.0167C9.21262 13.4854 8.56079 14.1372 8.56079 14.9413V19.309H3.70777V10.0883H2.31981L11.4726 2.32345L20.6254 10.0883H19.2374Z" fill="#989BA5"/>
</svg>
