<svg width="317" height="82" viewBox="0 0 317 82" fill="none" xmlns="http://www.w3.org/2000/svg">
<g clip-path="url(#clip0_1_4280)">
<path d="M130.522 4.98315L127.194 14.7128" stroke="white" stroke-width="3.15385"/>
<path d="M117.591 40.9211C114.868 42.8555 113.155 45.6572 112.45 49.3261" stroke="white" stroke-width="3.15385"/>
<path d="M178.098 4.69922C174.323 8.55742 172.505 11.911 172.641 14.76" stroke="white" stroke-width="3.15385"/>
<path d="M170.655 42.3403C170.097 44.1485 169.172 45.8884 167.879 47.5599C167.564 47.9699 167.359 48.4325 167.264 48.9476C167.075 50.1041 166.36 50.7558 165.12 50.903" stroke="white" stroke-width="3.15385"/>
<path d="M213.105 38.0195L209.62 42.293C209.294 42.6925 209.047 43.1288 208.879 43.6018C208.122 45.7359 206.729 46.6558 204.7 46.3615" stroke="white" stroke-width="3.15385"/>
<path d="M212.301 0H213.137C219.981 2.49154 218.719 9.96615 211.891 10.045C211.439 10.045 211.218 10.2658 211.229 10.7073L211.308 18.0558C211.318 18.6445 211.523 19.1491 211.923 19.5696L212.585 20.2635C212.963 20.6735 213.153 21.1571 213.153 21.7142L213.105 38.0196L209.62 42.2931C209.294 42.6926 209.047 43.1288 208.879 43.6019C208.122 45.736 206.729 46.6559 204.7 46.3615C202.587 38.8659 201.936 30.5976 202.745 21.5565C202.786 21.0029 203.001 20.4736 203.36 20.0427C205.473 17.5038 204.811 11.2435 204.653 7.90039C204.569 6.37603 205.247 5.3668 206.687 4.87269C207.234 4.69397 207.633 4.34705 207.886 3.83192C208.821 1.93962 210.293 0.662308 212.301 0Z" fill="white"/>
<path d="M227.739 0H228.386L234.883 5.66115C235.082 5.83525 235.242 6.04587 235.353 6.27944C235.465 6.51301 235.524 6.76436 235.529 7.01731C235.582 9.92936 235.618 12.8414 235.639 15.7535C235.655 18.4027 237.611 20.0112 237.5 22.3765C236.964 33.9669 240.875 47.9385 225.878 52.2592C222.346 53.2159 218.877 53.2842 215.471 52.4642C214.482 52.2224 214.377 52.4222 215.155 53.0635C216.196 53.915 216.338 54.8769 217.836 55.4762C221.148 56.8218 223.828 55.7495 225.878 52.2592C226.278 52.2277 226.63 52.275 226.935 52.4011C227.503 52.6429 227.665 53.0477 227.424 53.6154C226.656 55.4131 225.426 56.7745 223.734 57.6996C223.25 57.9624 223.103 58.3514 223.292 58.8665C224.79 63.1242 228.386 67.1454 233.148 67.1296C251.283 67.077 269.191 67.0718 286.874 67.1138C287.139 67.1143 287.395 67.0134 287.588 66.8316C287.782 66.6499 287.898 66.4011 287.914 66.1361C287.935 65.7682 288.014 65.416 288.151 65.0796C288.372 64.5435 288.771 64.2754 289.349 64.2754L297.581 64.2912C298.128 64.2912 298.595 64.0967 298.984 63.7077C304.314 58.3462 311.458 60.27 314.959 66.3096C320.525 75.9762 306.475 86.2735 298.921 77.3481C298.574 76.9486 298.138 76.7488 297.613 76.7488H289.365C288.629 76.7488 288.151 76.4019 287.93 75.7081C287.688 74.9091 287.662 74.1049 287.851 73.2954C288.02 72.5595 287.73 72.181 286.984 72.16C279.778 71.8762 272.792 72.57 265.869 72.3019C258.31 71.997 250.179 71.9708 241.474 72.2231C235.597 72.3913 231.334 71.9077 228.685 70.7723C223.902 68.7328 220.801 65.1164 219.381 59.9231C219.27 59.4998 219.057 59.1106 218.763 58.7892C218.469 58.4677 218.102 58.2236 217.694 58.0781C214.919 57.0688 213.342 55.2606 212.963 52.6535C212.9 52.1804 212.648 51.8492 212.206 51.66C209.862 50.6508 207.36 48.8846 204.7 46.3615C206.729 46.6559 208.122 45.736 208.879 43.6019C209.047 43.1288 209.294 42.6926 209.62 42.2931L213.105 38.0196C214.588 45.3681 227.424 44.7215 227.045 35.9854C226.84 31.0654 227.045 26.0665 226.966 21.2569C226.956 20.6997 227.208 20.3213 227.723 20.1215C228.522 19.8167 228.938 19.2647 228.969 18.4658C229.064 15.8586 229.1 13.3933 229.079 11.07C229.069 10.5233 228.79 10.2132 228.244 10.1396C221.084 9.225 220.832 1.37192 227.739 0ZM313.382 70.3465C313.382 68.4394 312.624 66.6104 311.276 65.2619C309.927 63.9134 308.098 63.1558 306.191 63.1558C304.284 63.1558 302.455 63.9134 301.106 65.2619C299.758 66.6104 299 68.4394 299 70.3465C299 72.2536 299.758 74.0826 301.106 75.4312C302.455 76.7797 304.284 77.5373 306.191 77.5373C308.098 77.5373 309.927 76.7797 311.276 75.4312C312.624 74.0826 313.382 72.2536 313.382 70.3465Z" fill="white"/>
<path d="M96.634 28.7C96.634 31.8912 96.0054 35.0511 94.7842 37.9994C93.563 40.9477 91.7731 43.6265 89.5166 45.883C87.2601 48.1395 84.5812 49.9295 81.6329 51.1507C78.6847 52.3719 75.5248 53.0004 72.3336 53.0004C65.8887 53.0004 59.7078 50.4402 55.1506 45.883C50.5934 41.3258 48.0332 35.1449 48.0332 28.7C48.0332 22.2552 50.5934 16.0743 55.1506 11.5171C59.7078 6.95987 65.8887 4.39966 72.3336 4.39966C75.5248 4.39966 78.6847 5.02821 81.6329 6.24942C84.5812 7.47062 87.2601 9.26058 89.5166 11.5171C91.7731 13.7736 93.563 16.4524 94.7842 19.4007C96.0054 22.3489 96.634 25.5089 96.634 28.7ZM72.8316 42.9783C74.6715 42.9141 76.4804 42.4815 78.1552 41.7054C79.83 40.9293 81.3378 39.8248 82.5926 38.455C83.8473 37.0851 84.8244 35.4768 85.4681 33.7218C86.1117 31.9668 86.4093 30.0995 86.3439 28.2265C86.2118 24.4439 84.6091 20.8677 81.8882 18.2848C79.1674 15.7018 75.5513 14.3236 71.8356 14.4533C69.9957 14.5176 68.1867 14.9501 66.5119 15.7262C64.8372 16.5023 63.3293 17.6068 62.0746 18.9767C60.8199 20.3465 59.8428 21.9548 59.1991 23.7098C58.5555 25.4648 58.2578 27.3321 58.3233 29.2051C58.4554 32.9878 60.0581 36.5639 62.779 39.1469C65.4998 41.7298 69.1158 43.108 72.8316 42.9783Z" fill="white"/>
<path d="M130.522 4.98313L127.195 14.7127C124.482 14.4815 121.975 14.8074 119.673 15.6904C117.465 16.542 115.641 18.1294 114.201 20.4527C109.701 27.6856 110.831 34.5084 117.591 40.9212C114.868 42.8556 113.155 45.6572 112.45 49.3262C105.901 45.1526 102.279 39.0184 101.585 30.9235C100.135 14.0662 113.712 2.01852 130.522 4.98313Z" fill="white"/>
<path d="M178.098 4.69914C174.324 8.55734 172.505 11.9109 172.642 14.7599C157.976 17.5195 157.33 37.3099 170.655 42.3403C170.097 44.1485 169.172 45.8884 167.879 47.5599C167.564 47.9699 167.359 48.4325 167.264 48.9476C167.075 50.104 166.36 50.7558 165.12 50.903C149.098 43.8541 145.865 21.9191 158.907 10.3603C163.879 5.94491 170.276 4.05786 178.098 4.69914Z" fill="white"/>
<path d="M178.098 4.69922C187.422 5.78204 193.935 10.9964 197.636 20.3423C198.182 21.751 197.704 22.4554 196.201 22.4554L188.221 22.4396C187.727 22.4396 187.359 22.2188 187.118 21.7773C184.121 16.2791 179.296 13.94 172.641 14.76C172.505 11.911 174.323 8.55742 178.098 4.69922Z" fill="white"/>
<path d="M130.522 4.98315C138.806 6.61264 144.667 11.7008 148.105 20.2478C148.203 20.4867 148.241 20.746 148.215 21.003C148.19 21.26 148.102 21.5068 147.958 21.7217C147.815 21.9366 147.621 22.1131 147.394 22.2355C147.166 22.3579 146.912 22.4226 146.654 22.4239L139.81 22.4397C138.38 22.4502 137.34 21.8142 136.688 20.5316C135.048 17.2726 131.884 15.333 127.195 14.7128L130.522 4.98315Z" fill="white"/>
<path d="M0.583562 6.76489C0.587714 6.39541 0.737409 6.04247 1.00016 5.78267C1.26291 5.52287 1.61752 5.37717 1.98702 5.3772L20.5001 5.44027C26.4931 5.46144 32.2324 7.82916 36.4554 12.0226C40.6784 16.216 43.0392 21.8917 43.0186 27.801V29.9141C43.0084 32.8403 42.4137 35.7358 41.2686 38.4353C40.1235 41.1348 38.4503 43.5854 36.3446 45.6472C34.2389 47.7089 31.742 49.3415 28.9963 50.4516C26.2506 51.5617 23.31 52.1277 20.3424 52.1172L1.82933 52.0541C1.64369 52.0541 1.45989 52.0173 1.28858 51.9458C1.11727 51.8743 0.961849 51.7695 0.831317 51.6375C0.700785 51.5055 0.597738 51.3489 0.528142 51.1768C0.458546 51.0047 0.423784 50.8205 0.42587 50.6349L0.583562 6.76489ZM10.7232 15.9268L10.6286 41.3941C10.6265 41.4762 10.6408 41.5579 10.6708 41.6343C10.7007 41.7108 10.7457 41.7804 10.803 41.8392C10.8603 41.898 10.9288 41.9447 11.0045 41.9766C11.0802 42.0085 11.1615 42.0249 11.2436 42.0249L20.847 42.0564C24.134 42.0685 27.2914 40.7197 29.6246 38.3066C31.9579 35.8935 33.276 32.6137 33.2889 29.1887V28.3057C33.2954 26.6095 32.9811 24.9287 32.3641 23.3593C31.747 21.7899 30.8393 20.3626 29.6927 19.1589C28.5461 17.9552 27.1832 16.9987 25.6816 16.344C24.1801 15.6894 22.5695 15.3493 20.9416 15.3434L11.3382 15.3118C11.1751 15.3118 11.0186 15.3766 10.9033 15.4919C10.788 15.6073 10.7232 15.7637 10.7232 15.9268Z" fill="white"/>
<path d="M271.577 35.4651L283.168 50.1147C284.24 51.4708 283.914 52.1489 282.19 52.1489L274.716 52.1647C274.058 52.1697 273.408 52.0246 272.815 51.7404C272.222 51.4562 271.702 51.0404 271.294 50.5247C267.972 46.2985 264.755 42.1933 261.643 38.2089C260.381 36.5794 258.683 36.0801 256.549 36.7108C256.045 36.858 255.792 37.1997 255.792 37.7358L255.871 50.1147C255.871 51.4708 255.193 52.1489 253.837 52.1489L247.451 52.1805C246.073 52.191 245.385 51.5076 245.385 50.1305V6.65468C245.385 6.49116 245.418 6.32931 245.481 6.17882C245.545 6.02833 245.639 5.89231 245.757 5.77892C245.875 5.66553 246.014 5.5771 246.167 5.51893C246.32 5.46077 246.483 5.43408 246.646 5.44045C250.872 5.58763 255.482 5.56134 260.476 5.3616C265.48 5.17237 269.37 6.03968 272.145 7.96352C281.985 14.8074 281.985 27.5489 271.767 34.2351C271.252 34.5715 271.188 34.9815 271.577 35.4651ZM255.824 15.8481L255.792 26.6974C255.792 26.9274 255.884 27.148 256.046 27.3106C256.209 27.4733 256.43 27.5647 256.66 27.5647L262.731 27.5804C263.564 27.5827 264.388 27.4291 265.158 27.1283C265.928 26.8276 266.628 26.3857 267.219 25.8277C267.809 25.2698 268.277 24.6069 268.598 23.8767C268.918 23.1466 269.084 22.3636 269.086 21.5724V21.0362C269.09 19.4388 268.426 17.9052 267.24 16.7726C266.054 15.64 264.443 15.0011 262.762 14.9966L256.691 14.9808C256.461 14.9808 256.241 15.0722 256.078 15.2349C255.915 15.3975 255.824 15.6181 255.824 15.8481Z" fill="white"/>
<path d="M297.708 34.5976L297.723 40.9053C297.723 41.1939 297.838 41.4706 298.042 41.6747C298.246 41.8787 298.523 41.9934 298.811 41.9934H314.234C314.522 41.9934 314.799 42.108 315.003 42.3121C315.207 42.5161 315.322 42.7929 315.322 43.0814L315.274 51.0607C315.274 51.3492 315.16 51.626 314.956 51.8301C314.752 52.0341 314.475 52.1487 314.186 52.1487L288.64 52.1803C288.352 52.1803 288.075 52.0657 287.871 51.8616C287.667 51.6575 287.552 51.3808 287.552 51.0922L287.505 6.59144C287.505 6.30286 287.62 6.02611 287.824 5.82205C288.028 5.618 288.304 5.50336 288.593 5.50336L314.013 5.45605C314.156 5.45605 314.297 5.4842 314.429 5.53888C314.561 5.59356 314.681 5.67371 314.782 5.77474C314.883 5.87578 314.964 5.99573 315.018 6.12774C315.073 6.25975 315.101 6.40124 315.101 6.54413L315.085 14.2395C315.085 14.3824 315.057 14.5239 315.002 14.6559C314.948 14.7879 314.868 14.9079 314.767 15.0089C314.666 15.1099 314.546 15.1901 314.414 15.2448C314.282 15.2994 314.14 15.3276 313.997 15.3276L298.827 15.3434C298.541 15.3433 298.267 15.4558 298.063 15.6565C297.86 15.8571 297.743 16.1298 297.739 16.4157L297.692 22.1872C297.692 22.4731 297.804 22.7475 298.005 22.9511C298.206 23.1547 298.478 23.2711 298.764 23.2753L312.231 23.3699C312.514 23.374 312.785 23.4883 312.985 23.6885C313.185 23.8887 313.299 24.1591 313.303 24.4422L313.335 32.3899C313.335 32.6785 313.22 32.9552 313.016 33.1593C312.812 33.3633 312.535 33.478 312.247 33.478L298.796 33.5095C298.653 33.5095 298.511 33.5377 298.379 33.5923C298.247 33.647 298.127 33.7272 298.026 33.8282C297.925 33.9292 297.845 34.0492 297.79 34.1812C297.736 34.3132 297.708 34.4547 297.708 34.5976Z" fill="white"/>
<path d="M112.45 49.326C113.155 45.6571 114.868 42.8554 117.591 40.921C126.201 44.8003 132.871 43.1025 137.602 35.8276C138.002 35.2178 138.569 34.9182 139.305 34.9287L147.19 35.0391C148.02 35.0496 148.33 35.4544 148.12 36.2533C146.522 42.2667 143 46.7557 137.555 49.7203C129.218 54.2618 120.85 54.1304 112.45 49.326Z" fill="white"/>
<path d="M165.12 50.903C166.36 50.7559 167.075 50.1041 167.264 48.9477C167.359 48.4325 167.564 47.97 167.879 47.56C169.172 45.8884 170.097 44.1486 170.655 42.3403C178.014 44.0434 183.459 41.883 186.992 35.8592C187.36 35.2495 187.896 34.9446 188.6 34.9446L196.075 35.0234C197.504 35.0445 197.998 35.733 197.557 37.0892C193.078 50.6823 178.003 56.3277 165.12 50.903Z" fill="white"/>
<path d="M306.191 74.3361C308.377 74.3361 310.149 72.564 310.149 70.378C310.149 68.192 308.377 66.4199 306.191 66.4199C304.005 66.4199 302.233 68.192 302.233 70.378C302.233 72.564 304.005 74.3361 306.191 74.3361Z" fill="white"/>
</g>
<defs>
<clipPath id="clip0_1_4280">
<rect width="316.962" height="82" fill="white"/>
</clipPath>
</defs>
</svg>
