<svg width="108" height="116" viewBox="0 0 108 116" fill="none" xmlns="http://www.w3.org/2000/svg">
<g clip-path="url(#clip0_10_3712)">
<mask id="mask0_10_3712" style="mask-type:luminance" maskUnits="userSpaceOnUse" x="0" y="0" width="108" height="116">
<path d="M0 0H107.037V115.184H0V0Z" fill="white"/>
</mask>
<g mask="url(#mask0_10_3712)">
<path d="M53.2164 115.378C52.1814 115.378 51.2293 115.101 50.3558 114.546L49.0021 113.681C34.7779 104.619 18.6619 94.3526 6.93818 69.5472C-1.21297 52.3011 -0.0993787 27.9801 0.757548 18.3221C0.815504 17.6639 0.989374 17.0388 1.2833 16.4468C1.57308 15.8507 1.96221 15.3332 2.44656 14.882C2.93505 14.4349 3.48564 14.0913 4.09832 13.847C4.71514 13.6028 5.35266 13.4827 6.01088 13.4786C24.4493 13.2757 39.2696 9.22292 50.066 1.42779C50.5255 1.09661 51.0223 0.839947 51.5605 0.666077C52.0986 0.492209 52.6492 0.405273 53.2164 0.405273C53.7835 0.405273 54.3341 0.492209 54.8723 0.666077C55.4104 0.839947 55.9113 1.09661 56.3667 1.42779C67.1631 9.22292 81.9876 13.2757 100.422 13.4786C101.08 13.4827 101.718 13.6028 102.334 13.847C102.951 14.0913 103.498 14.4349 103.986 14.882C104.47 15.3332 104.86 15.8507 105.149 16.4468C105.443 17.0388 105.617 17.6639 105.675 18.3221C106.532 27.9801 107.646 52.3011 99.4945 69.5472C87.7708 94.3526 71.6548 104.619 57.4306 113.681L56.0769 114.546C55.2076 115.101 54.2513 115.378 53.2164 115.378ZM53.2164 2.88912C52.5913 2.88912 52.0241 3.07127 51.5191 3.4397C40.2962 11.537 24.9957 15.7513 6.03986 15.9583C5.68798 15.9583 5.34438 16.0245 5.01734 16.1529C4.6903 16.2853 4.39638 16.4675 4.13558 16.7076C3.87477 16.9435 3.66779 17.2209 3.51048 17.5397C3.35317 17.8543 3.26209 18.1896 3.22897 18.5415C2.38861 27.9967 1.29158 51.7919 9.18192 68.4875C20.5993 92.6429 36.3966 102.707 50.3351 111.59L51.6888 112.452C52.1566 112.75 52.6658 112.899 53.2164 112.899C53.7711 112.899 54.2761 112.75 54.7439 112.452L56.0976 111.59C70.0361 102.707 85.8334 92.6429 97.2549 68.4875C105.141 51.7919 104.044 27.9967 103.204 18.5415C103.171 18.1896 103.08 17.8584 102.922 17.5397C102.765 17.225 102.558 16.9435 102.297 16.7076C102.04 16.4675 101.742 16.2812 101.415 16.1529C101.088 16.0245 100.745 15.9583 100.393 15.9583C81.437 15.7513 66.1365 11.537 54.9178 3.4397C54.4086 3.07127 53.8415 2.88912 53.2164 2.88912Z" fill="white"/>
</g>
<path d="M89.4721 24.4908C77.6242 24.3335 64.9069 22.0235 55.2199 15.0936C54.9301 14.8824 54.6114 14.721 54.2678 14.6133C53.9283 14.5016 53.5764 14.4478 53.2163 14.4478C52.8561 14.4478 52.5042 14.5016 52.1648 14.6133C51.8212 14.721 51.5066 14.8824 51.2126 15.0936C41.5298 22.0235 28.8084 24.3335 16.9604 24.4908C16.5382 24.4949 16.1325 24.5777 15.7392 24.735C15.3459 24.8882 14.994 25.1117 14.6877 25.4015C14.3772 25.6872 14.1288 26.0225 13.9425 26.4033C13.7604 26.78 13.6486 27.1816 13.6114 27.6039C12.9821 34.8939 12.1583 53.4151 18.3183 66.4512C27.5085 85.8956 40.2092 93.6121 51.3824 100.741C51.9412 101.097 52.5539 101.275 53.2163 101.275C53.8786 101.275 54.4913 101.097 55.0502 100.741C66.2233 93.6121 78.9241 85.8956 88.1143 66.4512C94.2742 53.4151 93.4504 34.8939 92.8212 27.6039C92.7839 27.1816 92.6763 26.78 92.49 26.4033C92.3037 26.0225 92.0553 25.6872 91.749 25.4015C91.4385 25.1117 91.0866 24.8882 90.6934 24.735C90.3001 24.5777 89.8944 24.4949 89.4721 24.4908ZM72.1432 62.8413H61.5993C61.3136 62.8413 61.0694 62.9448 60.8665 63.1477C60.6637 63.3505 60.5602 63.5948 60.5602 63.8846V74.4243C60.5602 74.71 60.4608 74.9542 60.258 75.1571C60.0551 75.3599 59.8109 75.4634 59.5211 75.4634H45.9759C45.6902 75.4634 45.446 75.3599 45.239 75.1571C45.0361 74.9542 44.9368 74.71 44.9368 74.4243V63.8846C44.9368 63.5948 44.8333 63.3505 44.6305 63.1477C44.4276 62.9448 44.1834 62.8413 43.8977 62.8413H33.3579C33.0682 62.8413 32.8239 62.742 32.6211 62.5391C32.4182 62.3363 32.3147 62.092 32.3147 61.8023V48.257C32.3147 47.9714 32.4182 47.7271 32.6211 47.5243C32.8239 47.3214 33.0682 47.218 33.3579 47.218H43.8977C44.1834 47.218 44.4276 47.1186 44.6305 46.9158C44.8374 46.7129 44.9368 46.4645 44.9368 46.1789V35.6391C44.9368 35.3493 45.0403 35.1051 45.2431 34.9022C45.446 34.6994 45.6902 34.6 45.9759 34.6H59.5211C59.8109 34.6 60.0551 34.6994 60.258 34.9022C60.4608 35.1051 60.5602 35.3493 60.5602 35.6391V46.1789C60.5602 46.4645 60.6637 46.7129 60.8665 46.9158C61.0694 47.1186 61.3136 47.218 61.5993 47.218H72.1432C72.4288 47.218 72.6731 47.3214 72.8759 47.5243C73.0788 47.7271 73.1823 47.9714 73.1823 48.257V61.8023C73.1823 62.092 73.0788 62.3363 72.8759 62.5391C72.6731 62.742 72.4288 62.8413 72.1432 62.8413Z" fill="white"/>
</g>
<defs>
<clipPath id="clip0_10_3712">
<rect width="107.037" height="115.515" fill="white"/>
</clipPath>
</defs>
</svg>
