<svg width="350" height="61" viewBox="0 0 350 61" fill="none" xmlns="http://www.w3.org/2000/svg">
<g clip-path="url(#clip0_10_3719)">
<path d="M0.6875 3.16675H17C24.8177 3.16675 31.5052 5.84904 37.0625 11.2084C42.6146 16.5574 45.3958 23.2605 45.3958 31.3126C45.3958 39.4115 42.6302 46.1355 37.1042 51.4792C31.5729 56.8282 24.875 59.5001 17 59.5001H0.6875V3.16675ZM13.5208 48.0209H15.5C20.1771 48.0209 24.0104 46.448 27 43.2917C29.9844 40.1251 31.5 36.1563 31.5417 31.3751C31.5417 26.599 30.0469 22.6199 27.0625 19.4376C24.0885 16.2449 20.2344 14.6459 15.5 14.6459H13.5208V48.0209Z" fill="white"/>
<path d="M47.9408 55.3333C44.0501 51.8749 42.1074 47.4374 42.1074 42.0208C42.1074 36.6041 44.1335 32.1614 48.1908 28.6874C52.2428 25.203 57.2533 23.4583 63.2116 23.4583C69.0866 23.4583 74.0345 25.2083 78.0658 28.7083C82.0918 32.2083 84.1074 36.6458 84.1074 42.0208C84.1074 47.3958 82.1335 51.828 78.1908 55.3124C74.2585 58.7864 69.2637 60.5208 63.2116 60.5208C56.9303 60.5208 51.8418 58.7916 47.9408 55.3333ZM57.2949 36.0833C55.722 37.6249 54.9408 39.6041 54.9408 42.0208C54.9408 44.4374 55.6908 46.4114 57.1908 47.9374C58.7012 49.453 60.6908 50.2083 63.1491 50.2083C65.5085 50.2083 67.4512 49.4374 68.9824 47.8958C70.5085 46.3437 71.2741 44.3853 71.2741 42.0208C71.2741 39.6041 70.4876 37.6249 68.9199 36.0833C67.347 34.5416 65.4251 33.7708 63.1491 33.7708C60.8262 33.7708 58.8783 34.5416 57.2949 36.0833Z" fill="white"/>
<path d="M101.979 33.3541C99.6974 33.3541 97.7391 34.1978 96.1037 35.8749C94.4631 37.5572 93.6453 39.5833 93.6453 41.9583C93.6453 44.3645 94.4631 46.4114 96.1037 48.1041C97.7391 49.7864 99.6974 50.6249 101.979 50.6249C103.072 50.6249 104.109 50.4947 105.083 50.2291C106.067 49.953 106.791 49.677 107.25 49.3958L107.854 48.9791L111.958 57.3749C111.635 57.6145 111.192 57.9062 110.625 58.2499C110.052 58.5833 108.755 59.0416 106.729 59.6249C104.697 60.2187 102.526 60.5208 100.208 60.5208C95.0672 60.5208 90.5464 58.7187 86.6453 55.1041C82.7547 51.4791 80.812 47.1405 80.812 42.0833C80.812 36.9895 82.7547 32.6145 86.6453 28.9583C90.5464 25.2916 95.0672 23.4583 100.208 23.4583C102.526 23.4583 104.666 23.7291 106.625 24.2708C108.583 24.8124 109.968 25.3645 110.791 25.9166L111.958 26.7291L107.854 34.9999C106.354 33.9062 104.395 33.3541 101.979 33.3541Z" fill="white"/>
<path d="M112.495 24.4792V11.4375H124.578V24.4792H131.953V33.6875H124.578V44.8125C124.578 48.0521 125.485 49.6667 127.308 49.6667C127.766 49.6667 128.245 49.5781 128.745 49.3958C129.245 49.2188 129.631 49.0365 129.912 48.8542L130.308 48.5833L133.308 58.3333C130.724 59.7917 127.766 60.5208 124.433 60.5208C122.167 60.5208 120.214 60.125 118.578 59.3333C116.938 58.5313 115.693 57.4583 114.849 56.125C114 54.7813 113.396 53.3698 113.037 51.8958C112.672 50.4115 112.495 48.8281 112.495 47.1458V33.6875H107.433V24.4792H112.495Z" fill="white"/>
<path d="M134.291 55.3333C130.4 51.8749 128.458 47.4374 128.458 42.0208C128.458 36.6041 130.484 32.1614 134.541 28.6874C138.593 25.203 143.603 23.4583 149.562 23.4583C155.437 23.4583 160.385 25.2083 164.416 28.7083C168.442 32.2083 170.458 36.6458 170.458 42.0208C170.458 47.3958 168.484 51.828 164.541 55.3124C160.609 58.7864 155.614 60.5208 149.562 60.5208C143.28 60.5208 138.192 58.7916 134.291 55.3333ZM143.645 36.0833C142.072 37.6249 141.291 39.6041 141.291 42.0208C141.291 44.4374 142.041 46.4114 143.541 47.9374C145.051 49.453 147.041 50.2083 149.499 50.2083C151.859 50.2083 153.801 49.4374 155.333 47.8958C156.859 46.3437 157.624 44.3853 157.624 42.0208C157.624 39.6041 156.838 37.6249 155.27 36.0833C153.697 34.5416 151.775 33.7708 149.499 33.7708C147.176 33.7708 145.228 34.5416 143.645 36.0833Z" fill="white"/>
<path d="M169.704 59.4999V24.4791H181.787V29.5208H181.912C182.006 29.3437 182.152 29.1197 182.35 28.8541C182.558 28.578 183.001 28.0989 183.683 27.4166C184.376 26.7395 185.105 26.1249 185.871 25.5833C186.647 25.0312 187.647 24.5364 188.871 24.1041C190.105 23.677 191.36 23.4583 192.642 23.4583C193.959 23.4583 195.251 23.6405 196.517 23.9999C197.793 24.3645 198.73 24.7239 199.329 25.0833L200.287 25.6458L195.225 35.8749C193.725 34.5989 191.631 33.9583 188.954 33.9583C187.496 33.9583 186.235 34.2812 185.183 34.9166C184.142 35.5572 183.402 36.3333 182.975 37.2499C182.543 38.1562 182.235 38.927 182.058 39.5624C181.876 40.203 181.787 40.703 181.787 41.0624V59.4999H169.704Z" fill="white"/>
<path d="M210.13 36.8959V59.5001H197.297V3.16675H210.13V25.6459H228.276V3.16675H241.109V59.5001H228.276V36.8959H210.13Z" fill="#202224"/>
<path d="M254.292 24.4792V41.1251C254.292 44.599 254.813 47.0626 255.855 48.5209C256.907 49.9688 258.688 50.6876 261.188 50.6876C263.688 50.6876 265.459 49.9688 266.501 48.5209C267.553 47.0626 268.084 44.599 268.084 41.1251V24.4792H280.167V44.0626C280.167 49.8959 278.652 54.099 275.626 56.6667C272.594 59.2397 267.782 60.5209 261.188 60.5209C254.589 60.5209 249.777 59.2397 246.751 56.6667C243.719 54.099 242.209 49.8959 242.209 44.0626V24.4792H254.292Z" fill="#202224"/>
<path d="M317.302 28.8542C320.578 32.4532 322.219 36.849 322.219 42.0417C322.219 47.224 320.578 51.599 317.302 55.1667C314.021 58.7397 309.854 60.5209 304.802 60.5209C300.161 60.5209 296.344 58.8647 293.344 55.5417H293.198V59.5001H281.26V0.791748H293.344V27.8126C296.344 24.9115 300.161 23.4584 304.802 23.4584C309.854 23.4584 314.021 25.2605 317.302 28.8542ZM307.114 47.9376C308.625 46.4115 309.385 44.4376 309.385 42.0209C309.385 39.6042 308.599 37.6251 307.031 36.0834C305.458 34.5417 303.515 33.7709 301.198 33.7709C298.917 33.7709 296.995 34.5417 295.427 36.0834C293.854 37.6251 293.073 39.6042 293.073 42.0209C293.073 44.3855 293.828 46.3438 295.344 47.8959C296.87 49.4376 298.823 50.2084 301.198 50.2084C303.64 50.2084 305.614 49.4532 307.114 47.9376Z" fill="#202224"/>
<path d="M341.455 44.8958C343.632 44.8958 345.487 45.6614 347.018 47.1874C348.544 48.703 349.31 50.5572 349.31 52.7499C349.31 54.8905 348.544 56.7239 347.018 58.2499C345.487 59.7603 343.632 60.5208 341.455 60.5208C339.315 60.5208 337.481 59.7603 335.955 58.2499C334.44 56.7239 333.685 54.8905 333.685 52.7499C333.685 50.5572 334.44 48.703 335.955 47.1874C337.481 45.6614 339.315 44.8958 341.455 44.8958Z" fill="#202224"/>
</g>
<defs>
<clipPath id="clip0_10_3719">
<rect width="350" height="61" fill="white"/>
</clipPath>
</defs>
</svg>
