<svg width="307" height="349" viewBox="0 0 307 349" fill="none" xmlns="http://www.w3.org/2000/svg">
<ellipse cx="153.5" cy="274" rx="153.5" ry="75" fill="#0E82FD"/>
<path d="M256.592 248.029L191.223 210.26C185.685 207.067 181.195 198.487 181.195 191.106V8.77892C181.195 1.39857 185.685 -1.9947 191.223 1.20467L256.592 38.9426C262.13 42.142 266.62 50.7221 266.62 58.1025V240.448C266.62 247.829 262.13 251.228 256.592 248.029Z" fill="#B1B4C4"/>
<path d="M257.713 251.319L262.894 248.701L257.925 240.182L257.713 251.319Z" fill="#B1B4C4"/>
<path d="M180.177 3.02255L184.946 0.52002L183.982 7.54893L180.177 3.02255Z" fill="#B1B4C4"/>
<path d="M252.424 250.113L187.055 212.369C181.516 209.176 177.026 200.596 177.026 193.215V10.8635C177.026 3.4831 181.516 0.0898325 187.055 3.28314L252.424 41.0272C257.962 44.2265 262.452 52.8006 262.452 60.187V242.533C262.452 249.919 257.962 253.312 252.424 250.113Z" fill="#616E84"/>
<path d="M261.737 60.6537V242.981C261.737 250.374 257.253 253.761 251.714 250.568L226.077 235.765L218.109 231.178L186.358 212.836C180.819 209.636 176.335 201.062 176.335 193.676V11.3302C176.335 3.94374 180.819 0.556535 186.358 3.74984L251.733 41.4878C257.271 44.6933 261.737 53.2613 261.737 60.6537Z" fill="#20232D"/>
<path d="M257.04 58.775V236.376C257.04 240.842 253.908 242.666 250.03 240.424L229.622 228.65L227.804 227.608L227.198 227.251L222.781 224.706L209.995 217.331L204.693 214.271L202.56 213.06L188.072 204.698C184.2 202.462 181.062 197.02 181.062 192.536V14.9231C181.062 10.4452 184.2 8.63342 188.072 10.8693L213.594 25.6058V25.6785C213.594 29.1627 216.018 33.3982 219.048 35.1373C222.078 36.8763 224.501 35.4645 224.501 31.9864C224.501 31.9864 224.501 31.9318 224.501 31.9076L250.03 46.6562C253.908 48.88 257.04 54.3213 257.04 58.775Z" fill="white"/>
<path d="M220.518 33.3042C221.327 32.8374 221.326 31.3218 220.516 29.9191C219.706 28.5164 218.394 27.7577 217.586 28.2245C216.777 28.6914 216.778 30.2069 217.588 31.6097C218.398 33.0124 219.71 33.7711 220.518 33.3042Z" fill="#2B303F"/>
<path opacity="0.1" d="M219.048 31.7681C218.793 31.6036 218.582 31.3811 218.43 31.1188C218.278 30.8565 218.191 30.5619 218.175 30.2593C218.175 29.7079 218.563 29.4837 219.048 29.7625C219.303 29.9257 219.515 30.147 219.668 30.4082C219.821 30.6694 219.909 30.9631 219.926 31.2652C219.926 31.8166 219.527 32.0408 219.048 31.7681Z" fill="white"/>
<path d="M264.409 84.6429C263.876 84.9519 263.446 84.6429 263.446 83.9157V76.1415C263.455 75.7848 263.547 75.435 263.714 75.1197C263.881 74.8043 264.119 74.5319 264.409 74.3237C264.942 74.0147 265.372 74.3237 265.372 75.0569V82.8311C265.362 83.1869 265.27 83.5356 265.103 83.8499C264.936 84.1642 264.698 84.4356 264.409 84.6429Z" fill="#757B89"/>
<path d="M264.409 97.3856C263.876 97.6886 263.446 97.3856 263.446 96.6524V88.8782C263.451 88.5164 263.541 88.1608 263.708 87.8399C263.875 87.519 264.115 87.2417 264.409 87.0301C264.942 86.7271 265.372 87.0301 265.372 87.7633V95.5375C265.367 95.8993 265.277 96.2549 265.11 96.5758C264.943 96.8967 264.703 97.174 264.409 97.3856Z" fill="#757B89"/>
<path d="M244.77 225.287L193.356 195.596C190.69 194.057 188.509 189.919 188.509 186.362V90.8898C188.509 87.3268 190.678 85.6908 193.356 87.2541L244.77 116.945C247.443 118.49 249.618 122.623 249.618 126.186V221.682C249.618 225.19 247.424 226.826 244.77 225.287Z" fill="#E9EAF2"/>
<path d="M244.77 164.626L193.356 134.935C190.69 133.396 188.509 129.257 188.509 125.701V30.2286C188.509 26.6657 190.678 25.0297 193.356 26.593L244.77 56.2841C247.443 57.8292 249.618 61.9617 249.618 65.5247V161.021C249.618 164.529 247.424 166.165 244.77 164.626Z" fill="#E9EAF2"/>
<path d="M236.307 150.596C244.279 145.994 244.278 131.068 236.306 117.259C228.333 103.45 215.407 95.9866 207.435 100.589C199.463 105.192 199.463 120.118 207.436 133.927C215.408 147.736 228.334 155.199 236.307 150.596Z" fill="#CED0DB"/>
<path d="M242.085 74.1362L222.198 62.6536V58L242.085 69.4826V74.1362Z" fill="#CED0DB"/>
<path d="M237.498 79.8562L222.198 71.0276V66.374L237.498 75.2086V79.8562Z" fill="#CED0DB"/>
<path d="M242.085 100.997L197.009 74.9723V70.3247L242.085 96.3438V100.997Z" fill="#CED0DB"/>
<path d="M231.336 165.209L196.665 145.188V140.535L231.336 160.555V165.209Z" fill="#CED0DB"/>
<path d="M241.583 179.497L196.507 153.471V148.818L241.583 174.843V179.497Z" fill="#CED0DB"/>
<path d="M231.185 181.866L196.507 161.846V157.192L231.185 177.212V181.866Z" fill="#CED0DB"/>
<path d="M241.583 196.245L196.507 170.22V165.566L241.583 191.591V196.245Z" fill="#CED0DB"/>
<path d="M241.183 212.757L196.107 186.732V182.084L241.183 208.103V212.757Z" fill="#CED0DB"/>
<path d="M231.185 198.614L196.507 178.594V173.94L231.185 193.96V198.614Z" fill="#CED0DB"/>
<path d="M211.529 61.4536C212.795 59.4176 222.478 58.0785 225.659 66.3011C226.871 69.4096 226.683 77.3595 227.695 82.3585C228.707 87.3575 231.083 90.1812 231.937 94.235C232.791 98.2887 231.398 105.075 221.636 106.275C211.874 107.475 204.361 104.051 202.058 100.937C199.755 97.8221 199.701 91.2053 202.1 87.6544C204.5 84.1036 206.312 81.2072 206.257 76.5839L211.529 61.4536Z" fill="#2B2A30"/>
<path d="M217.921 60.0417C217.921 60.0417 210.65 57.939 206.214 61.8595C202.173 65.4588 202.512 70.3427 203.1 72.6634C203.687 74.9842 204.863 78.1169 206.693 78.2805C208.523 78.4441 217.921 60.0417 217.921 60.0417Z" fill="#2B2A30"/>
<path d="M220.709 79.9165C220.709 79.9165 220.23 88.0422 220.375 88.636C220.521 89.2298 223.569 89.8115 224.417 90.5205C225.265 91.2294 220 99.4702 217.321 100.694C214.643 101.918 206.342 98.7976 205.766 94.6348C205.239 90.8355 208.141 87.8846 209.262 86.8545C210.023 86.7812 210.789 86.761 211.553 86.7939L211.795 82.8553C215.431 81.7283 220.709 79.9165 220.709 79.9165Z" fill="#FFCEA9"/>
<path d="M201.064 95.265C201.015 95.0408 199.852 95.6952 199.822 95.7134C199.791 95.7316 199.246 116.558 198.216 118.442C195.623 122.872 188.727 130.355 188.557 131.197C188.048 133.724 189.515 131.458 191.884 131.197C193.217 131.034 201.04 123.114 202.791 121.308L202.9 121.375C202.9 121.302 202.9 121.236 202.93 121.169L203.16 120.933C203.224 120.374 203.242 119.81 203.215 119.248C206.469 96.6041 202.47 95.0953 201.064 95.265Z" fill="#FFCEA9"/>
<path d="M199.288 98.4642L198.876 108.499L198.216 116.406C198.216 116.406 198.343 117.467 197.18 119.321C196.016 121.175 189.799 128.876 189.799 128.876L192.611 131.209L199.016 125.95L203.257 97.6159L201.027 94.8589L199.288 98.4642Z" fill="white"/>
<path d="M221.823 89.4295C224.102 89.7809 226.713 90.9989 227.071 92.2471C227.489 93.7074 228.392 100.579 226.416 105.808C224.441 111.037 223.108 114.364 221.975 116.612C221.975 116.612 212.098 120.854 204.136 115.909C204.136 115.909 203.591 110.31 203.53 107.311C196.18 100.9 202.464 92.9924 208.687 86.8542C209.431 86.7777 210.182 86.7676 210.928 86.8239C210.928 86.8239 205.378 93.3923 209.238 97.1249C217.533 94.6224 219.175 90.8898 221.823 89.4295Z" fill="#F4F4F4"/>
<path d="M205.53 69.8517C206.354 64.6345 210.123 60.6898 215.503 61.0049C217.668 61.1237 219.741 61.9196 221.429 63.2803C223.117 64.641 224.334 66.4977 224.91 68.588C225.485 70.6784 225.389 72.8966 224.635 74.9294C223.881 76.9621 222.508 78.7066 220.708 79.9163C220.52 80.7072 220.242 81.4737 219.878 82.2007C217.97 84.4185 212.904 85.8364 211.232 85.8364C209.789 85.8364 208.541 84.5033 207.19 82.2613C204.366 77.6077 205.081 72.433 205.53 69.8517Z" fill="#FFCEA9"/>
<path d="M217.17 61.1019C220.945 61.8412 224.054 62.9197 225.078 66.6099C225.781 69.1609 226.696 74.0327 225.823 76.0808L225.278 77.5593L220.709 79.9164C220.709 79.9164 218.576 78.141 219.236 72.9299C219.216 72.2236 218.993 71.538 218.594 70.9545C218.32 70.4602 218.116 69.9299 217.988 69.3791C217.528 67.9248 216.358 66.9553 215.025 66.1736C211.62 64.2649 206.639 65.9131 205.936 66.6039C208.214 61.8896 212.783 60.2415 217.17 61.1019Z" fill="#2B2A30"/>
<path d="M230.567 143.716C229.961 150.308 226.289 178.327 226.289 178.327C227.729 183.043 228.492 187.939 228.555 192.87C228.519 196.948 227.452 203.867 226.247 210.278L224.132 225.518L219.084 222.597L219.284 211.236C219.024 207.43 218.648 201.813 218.406 198.22C218.012 192.379 216.964 183.072 216.661 180.781C216.358 178.491 215.618 174.419 215.261 169.874C214.903 165.33 213.195 142.274 213.195 142.274L212.958 146.594C212.958 146.594 212.734 153.611 211.746 162.251C210.759 170.892 210.377 174.746 210.377 174.746C210.377 174.746 212.128 177.957 212.352 180.327C212.534 182.199 214.667 196.984 213.389 204.51L211.516 218.216L205.457 214.738L204.675 204.952C203.639 197.62 201.452 182.072 201.112 180.048C200.676 177.388 200.312 176.079 199.803 167.717C199.294 159.355 199.482 141.195 200.325 134.608C201.167 128.022 203.597 118.454 203.597 118.454C205.89 119.532 208.373 120.149 210.904 120.272C215.146 120.49 221.963 119.199 221.963 119.199C223.152 121.278 224.453 123.29 225.859 125.229C227.768 127.852 231.44 133.627 230.567 143.716Z" fill="#FFCEA9"/>
<path d="M221.975 116.612L227.646 128.01C227.646 128.01 236.305 140.68 227.331 173.256L229.016 183.302C229.016 183.302 212.05 194.209 200.676 183.302C200.676 183.302 196.731 153.199 198.828 139.317C199.992 131.333 201.76 123.45 204.118 115.734C204.118 115.734 206.899 118.806 221.217 116.776" fill="#FFC618"/>
<path d="M208.711 86.8545C208.711 86.8545 200.313 88.2239 199.289 98.4643L201.209 96.5435C201.209 96.5435 205.918 89.4176 208.711 86.8545Z" fill="white"/>
<path d="M210.953 86.824C208.784 91.011 203.076 97.8521 204.694 105.257C206.839 115.127 202.73 174.273 202.73 174.273C202.73 174.273 197.883 171.201 197.883 168.741C197.883 166.281 199.701 102.439 199.701 99.4154C199.701 96.3918 205.009 91.0232 208.614 86.83C209.568 86.4874 210.576 86.3211 211.589 86.3392C211.589 86.5634 211.589 86.5937 211.559 86.824C211.377 86.8361 211.274 86.824 210.953 86.824Z" fill="white"/>
<path d="M173.524 141.014L192.914 129.743L206.839 137.784L187.442 149.054L173.524 141.014Z" fill="#ADB3BC"/>
<path d="M190.412 130.567C189.2 130.846 187.988 130.937 186.97 131.694C186.594 132.029 186.188 132.329 185.758 132.591C185.564 132.694 185.376 132.815 185.152 132.9C184.854 133.004 184.588 133.181 184.376 133.415C184.156 133.73 184.036 134.104 184.031 134.488C183.936 134.95 183.914 135.424 183.964 135.893C184.134 136.59 184.855 136.536 185.237 136.051C185.429 135.808 185.542 135.512 185.558 135.203C185.567 134.908 185.647 134.62 185.789 134.362C185.931 134.104 186.132 133.883 186.376 133.718L191.011 130.84C190.953 130.737 190.863 130.656 190.755 130.607C190.648 130.558 190.527 130.544 190.412 130.567Z" fill="#FFCEA9"/>
<path d="M228.089 104.863C228.089 104.863 227.932 122.259 228.568 127.889C229.204 133.518 237.233 150.011 230.161 172.389C229.119 173.601 228.162 176.055 219.255 177.085C213.94 177.085 212.014 176.273 212.014 176.273C212.014 176.273 214.068 138.747 211.086 105.796C211.086 96.7068 218.903 97.7612 220.351 87.6904C227.253 90.914 227.259 91.932 227.259 91.932L228.089 104.863Z" fill="white"/>
<path opacity="0.1" d="M224.586 91.7385C220.787 92.1627 220.29 96.9799 220.29 96.9799L220.115 104.354C220.115 104.354 220.527 113.758 221.617 116.625L205.136 127.95L208.729 132.137C208.729 132.137 226.144 124.096 227.513 122.823C228.883 121.551 227.513 106.796 227.725 102.549C228.64 94.5259 228.41 91.3144 224.586 91.7385Z" fill="black"/>
<path d="M227.313 95.8166C226.671 93.1807 224.605 94.029 222.829 92.4839C218.703 98.3191 221.442 114.104 221.999 115.788L206.172 125.877C205.918 126.047 205.372 126.38 205.112 126.544C203.676 127.41 200.912 128.913 199.228 129.107C197.64 129.289 196.804 131.531 195.12 131.719C194.991 131.723 194.866 131.765 194.762 131.84C194.657 131.915 194.576 132.019 194.53 132.139C194.484 132.26 194.475 132.391 194.503 132.516C194.532 132.642 194.596 132.757 194.689 132.846C195.368 133.5 197.18 132.961 198.416 131.513C198.413 131.549 198.413 131.585 198.416 131.622C198.411 131.909 198.509 132.188 198.691 132.41C198.873 132.632 199.127 132.782 199.41 132.833C199.41 132.938 199.44 133.041 199.495 133.13C199.582 133.315 199.714 133.474 199.879 133.594C200.045 133.714 200.237 133.79 200.44 133.815C200.524 134.086 200.701 134.318 200.939 134.472C201.177 134.626 201.461 134.691 201.743 134.657C202.103 134.637 202.443 134.481 202.694 134.221C204.044 133.702 205.236 132.842 206.154 131.725C206.969 130.886 207.827 130.089 208.723 129.337C213.019 127.489 225.901 121.987 226.477 121.205C227.313 120.048 228.228 99.5795 227.313 95.8166Z" fill="#FFCEA9"/>
<path d="M223.951 90.466C220.151 90.8902 219.655 95.7074 219.655 95.7074L219.479 103.076C219.479 103.076 219.891 112.486 220.976 115.352L204.5 126.677L208.093 130.864C208.093 130.864 225.508 122.823 226.847 121.551C228.186 120.278 228.526 107.166 228.756 102.924C229.701 94.9137 227.756 90.0419 223.951 90.466Z" fill="white"/>
<path opacity="0.4" d="M105.889 290.499C122.441 290.499 135.859 282.751 135.859 273.193C135.859 263.635 122.441 255.887 105.889 255.887C89.3369 255.887 75.9189 263.635 75.9189 273.193C75.9189 282.751 89.3369 290.499 105.889 290.499Z" fill="#D6D8E5"/>
<path d="M84.5352 144.879C84.2019 147.794 80.7238 160.367 81.4691 164.675C82.2145 168.984 94.0969 176.188 94.0969 176.188L95.7451 168.814L89.1646 162.391L90.94 150.181L84.5352 144.879Z" fill="#FFCEA9"/>
<path d="M93.7277 132.488C92.031 131.755 88.8802 131.591 87.1108 134.487C85.3415 137.384 83.5479 147.309 83.3843 149.03C83.3843 149.03 85.8383 152.417 89.5164 151.854L93.7277 132.488Z" fill="#FFC618"/>
<path d="M107.295 272.672C109.881 273.384 112.643 273.048 114.984 271.739C116.832 271.793 126.885 267.497 128.254 271.103C129.466 274.272 125.097 277.198 122.77 277.768C117.693 278.98 113.936 281.531 111.894 281.961C110.379 282.282 108.41 282.494 107.198 281.301C105.749 279.871 105.871 274.569 107.295 272.672Z" fill="#50555C"/>
<path d="M111.894 281.089C113.936 280.665 117.693 278.132 122.77 276.902C124.722 276.429 128.078 274.296 128.418 271.751C128.866 274.666 124.94 277.253 122.77 277.774C117.693 278.986 113.936 281.537 111.894 281.967C110.379 282.289 108.41 282.501 107.198 281.307C106.885 280.96 106.657 280.545 106.531 280.095C108.301 281.561 110.379 281.41 111.894 281.089Z" fill="#111111"/>
<path d="M90.9888 265.358C93.5739 266.076 96.3377 265.743 98.6782 264.431C100.532 264.486 110.579 260.19 111.948 263.825C113.16 266.995 108.791 269.921 106.465 270.491C101.387 271.703 97.6299 274.254 95.5939 274.684C94.073 275.005 92.1037 275.217 90.8979 274.017C89.4437 272.551 89.5709 267.249 90.9888 265.358Z" fill="#50555C"/>
<path d="M95.594 273.769C97.63 273.339 101.387 270.812 106.465 269.582C108.416 269.109 111.773 266.97 112.112 264.431C112.566 267.346 108.634 269.933 106.465 270.454C101.387 271.666 97.63 274.217 95.594 274.648C94.0731 274.969 92.1038 275.181 90.898 273.981C90.5808 273.637 90.352 273.221 90.2314 272.769C91.9947 274.236 94.0731 274.09 95.594 273.769Z" fill="#111111"/>
<path d="M90.7889 238.049C91.224 234.315 92.0008 230.63 93.1097 227.039C93.1097 227.039 92.4189 217.532 92.0735 208.527C91.6797 198.305 88.1349 189.307 90.9283 181.151L122.474 188.168C122.474 188.168 120.565 228.923 120.141 233.856C119.913 237.695 119.443 241.516 118.735 245.296C117.293 253.209 114.954 272.03 114.954 272.03C111.615 273.969 107.24 272.896 107.24 272.896C107.24 272.896 107.483 249.095 107.695 243.393C107.955 236.431 108.167 236.964 108.167 236.964L107.125 219.628L106.446 211C106.446 211 105.574 217.332 105.004 222.985C104.507 227.917 103.32 232.377 101.975 241.551C100.823 249.513 98.9449 265.51 98.9449 265.51C95.6122 267.449 91.0677 265.843 91.0677 265.843C91.0677 265.843 89.8861 244.956 90.7889 238.049Z" fill="#ADB3BC"/>
<path d="M95.3938 132.658C97.8175 132.779 99.5869 133.397 99.8899 132.658C100.146 131.417 100.329 130.163 100.435 128.901C100.156 128.204 99.9202 127.459 99.9202 127.459C96.8905 125.599 95.9512 122.339 95.5513 118.545C94.8787 112.056 98.3811 106.372 104.871 105.693C110.973 105.087 115.463 109.329 116.656 115.237C117.305 118.139 118.589 123.635 116.85 128.416C115.881 131.088 114.632 133.209 113.378 133.621C112.171 133.586 110.967 133.481 109.773 133.306C109.773 133.306 109.452 135.124 109.227 136.263C109.003 137.402 109.094 138.032 111.397 139.456C113.699 140.88 107.913 143.789 104.125 143.504C100.338 143.219 96.0967 140.935 94.9272 138.487C93.6366 135.79 93.7456 132.579 95.3938 132.658Z" fill="#FFCEA9"/>
<path d="M98.8721 133.015C98.2056 134.675 99.8962 136.705 104.41 138.123C108.925 139.541 109.325 137.717 109.325 137.717C109.325 137.717 115.941 140.747 118.093 142.231C120.801 144.128 122.001 149.606 122.37 158.852C122.789 169.553 122.825 185.429 122.474 188.168C122.474 188.168 117.414 193.209 110.961 192.676C104.507 192.143 93.5883 186.417 90.9646 181.987C91.0373 172.607 92.1341 171.08 90.6132 165.675C87.1351 153.302 85.3051 148.236 86.9775 140.014C88.3712 133.233 90.3223 132.391 93.0006 132.458C94.9662 132.54 96.9261 132.726 98.8721 133.015Z" fill="#FFFAF3"/>
<path d="M132.55 167.699C127.236 169.038 125.988 165.687 125.279 162.912C123.588 156.192 122.679 150.127 121.419 146.316C119.934 141.819 118.389 141.098 116.196 140.226C113.627 139.196 111.421 141.365 112.275 147.085C113.287 153.859 114.614 158.598 117.123 166.627C117.783 168.717 119.262 172.438 121.486 174.231C124.225 176.449 128.357 176.352 134.604 174.801C137.27 174.134 140.191 172.541 145.233 170.19C146.584 169.584 147.656 169.141 150.232 167.929C152.807 166.718 155.534 164.7 156.897 162.73C158.26 160.761 158.436 159.834 158.157 159.386C157.812 158.822 157.194 158.943 156.467 159.773C155.418 161.175 154.122 162.374 152.643 163.312C152.643 163.312 154.322 161.579 155.231 160.452C156.046 159.453 156.723 158.348 157.242 157.168C157.721 156.017 156.733 154.459 155.982 155.277C155.231 156.095 154.873 156.932 153.498 158.58C152.771 159.456 151.943 160.243 151.031 160.925C151.884 159.775 152.644 158.559 153.304 157.289C154.176 155.508 154.164 154.593 154.128 153.993C154.091 153.393 153.243 152.678 152.449 153.811C151.728 154.835 151.237 156.435 149.595 158.174C148.383 159.434 147.347 160.161 147.317 159.81C147.287 159.458 148.05 158.768 148.486 157.301C148.923 155.835 148.486 154.272 147.674 154.114C146.862 153.956 147.02 153.993 146.366 155.362C145.711 156.732 144.717 157.75 143.942 159.755C143.269 161.519 142.966 162.234 141.754 163.518C140.488 164.888 137.604 166.427 132.55 167.699Z" fill="#FFCEA9"/>
<path d="M114.233 139.305C117.784 138.783 120.292 140.383 121.855 145.758C123.419 151.133 124.522 155.55 124.522 155.55C123.116 157.575 120.99 158.986 118.577 159.495C114.336 160.525 112.803 158.495 112.803 158.495C112.803 158.495 111.591 152.859 110.888 149.024C110.185 145.188 109.84 139.971 114.233 139.305Z" fill="#FFC618"/>
<path d="M116.451 114.406C116.451 114.406 122.062 105.881 109.913 104.142C101.151 102.894 95.5155 108.523 94.8672 114.631C94.2612 120.466 97.8424 126.525 100.436 128.931C101.702 129.385 104.429 129.646 108.01 128.016C108.153 126.427 108.208 124.83 108.174 123.235C108.174 123.235 103.902 114.249 116.451 114.406Z" fill="#111111"/>
<path opacity="0.4" d="M210.504 302.969C218.519 302.969 225.017 299.217 225.017 294.589C225.017 289.961 218.519 286.209 210.504 286.209C202.49 286.209 195.992 289.961 195.992 294.589C195.992 299.217 202.49 302.969 210.504 302.969Z" fill="#D6D8E5"/>
<path d="M212.662 302.43C220.677 302.43 227.174 298.678 227.174 294.05C227.174 289.421 220.677 285.669 212.662 285.669C204.647 285.669 198.149 289.421 198.149 294.05C198.149 298.678 204.647 302.43 212.662 302.43Z" fill="#D9DCE8"/>
<path d="M198.149 293.916V289.711L202.761 291.256L198.149 293.916Z" fill="#D9DCE8"/>
<path d="M227.162 290.008V293.783L221.848 292.741L227.162 290.008Z" fill="#D9DCE8"/>
<path d="M212.662 298.122C220.677 298.122 227.174 294.37 227.174 289.741C227.174 285.113 220.677 281.361 212.662 281.361C204.647 281.361 198.149 285.113 198.149 289.741C198.149 294.37 204.647 298.122 212.662 298.122Z" fill="#EFF1F9"/>
<path d="M203.148 296.068L201.573 295.159L222.035 283.349L223.605 284.258L203.148 296.068Z" fill="#D3D6E2"/>
<path d="M201.573 295.158V299.461L203.003 300.309L203.203 300.406V296.067L201.573 295.158Z" fill="#C5C8D3"/>
<path opacity="0.4" d="M17.5123 287.79C25.5272 287.79 32.0246 284.038 32.0246 279.41C32.0246 274.782 25.5272 271.03 17.5123 271.03C9.49737 271.03 3 274.782 3 279.41C3 284.038 9.49737 287.79 17.5123 287.79Z" fill="#D6D8E5"/>
<path d="M19.6695 287.251C27.6844 287.251 34.1818 283.499 34.1818 278.871C34.1818 274.243 27.6844 270.491 19.6695 270.491C11.6546 270.491 5.15723 274.243 5.15723 278.871C5.15723 283.499 11.6546 287.251 19.6695 287.251Z" fill="#D9DCE8"/>
<path d="M5.15723 278.732V274.52L9.76843 276.071L5.15723 278.732Z" fill="#D9DCE8"/>
<path d="M34.1696 274.829V278.604L28.8555 277.556L34.1696 274.829Z" fill="#D9DCE8"/>
<path d="M19.6695 282.943C27.6844 282.943 34.1818 279.191 34.1818 274.563C34.1818 269.935 27.6844 266.183 19.6695 266.183C11.6546 266.183 5.15723 269.935 5.15723 274.563C5.15723 279.191 11.6546 282.943 19.6695 282.943Z" fill="#EFF1F9"/>
<path d="M10.1563 280.889L8.58691 279.98L29.0435 268.17L30.6189 269.079L10.1563 280.889Z" fill="#D3D6E2"/>
<path d="M8.58691 279.98V284.282L10.0109 285.124L10.2108 285.227V280.889L8.58691 279.98Z" fill="#C5C8D3"/>
<path opacity="0.4" d="M287.101 279.428C295.116 279.428 301.614 275.676 301.614 271.048C301.614 266.42 295.116 262.668 287.101 262.668C279.086 262.668 272.589 266.42 272.589 271.048C272.589 275.676 279.086 279.428 287.101 279.428Z" fill="#D6D8E5"/>
<path d="M150.512 321.068C158.527 321.068 165.025 317.316 165.025 312.688C165.025 308.06 158.527 304.308 150.512 304.308C142.497 304.308 136 308.06 136 312.688C136 317.316 142.497 321.068 150.512 321.068Z" fill="#D9DCE8"/>
<path d="M274.746 270.376C274.746 270.339 274.746 266.164 274.746 266.164L279.363 267.716L274.746 270.376Z" fill="#D9DCE8"/>
<path d="M303.759 266.467V270.242L298.445 269.194L303.759 266.467Z" fill="#D9DCE8"/>
<path d="M150.512 316.76C158.527 316.76 165.025 313.008 165.025 308.38C165.025 303.752 158.527 300 150.512 300C142.497 300 136 303.752 136 308.38C136 313.008 142.497 316.76 150.512 316.76Z" fill="#EFF1F9"/>
<path d="M141.005 314.706L139.43 313.797L159.886 301.987L161.462 302.896L141.005 314.706Z" fill="#D3D6E2"/>
<path d="M139.43 313.797V318.1L140.86 318.942L141.06 319.045V314.706L139.43 313.797Z" fill="#C5C8D3"/>
<path opacity="0.4" d="M196.451 272L165 253.65L169.549 251L201 269.35L196.451 272Z" fill="#D6D8E5"/>
<path d="M50 188.051L64.0388 196L71 182.717L57.8436 175L50 188.051Z" fill="#D1D5DB"/>
<path d="M182 260.429L195.37 268L202 255.349L189.47 248L182 260.429Z" fill="#50555C"/>
<path d="M37 180.305L49.2345 187L58 174.498L44.2596 167L37 180.305Z" fill="#FCA70D"/>
<path d="M169 253.305L180.652 260L189 247.498L175.914 240L169 253.305Z" fill="#FCA70D"/>
<path d="M41.5 182C45.0899 182 48 178.418 48 174C48 169.582 45.0899 166 41.5 166C37.9102 166 35 169.582 35 174C35 178.418 37.9102 182 41.5 182Z" fill="#FCA70D"/>
<path d="M172 254C175.866 254 179 250.418 179 246C179 241.582 175.866 238 172 238C168.134 238 165 241.582 165 246C165 250.418 168.134 254 172 254Z" fill="#FCA70D"/>
<path d="M57.6769 183.342C59.7601 179.734 59.7597 175.834 57.6759 174.631C55.5921 173.428 52.2141 175.378 50.1309 178.986C48.0477 182.594 48.0481 186.494 50.1319 187.697C52.2157 188.9 55.5937 186.951 57.6769 183.342Z" fill="#D1D5DB"/>
<path d="M189.166 256.055C191.249 252.447 191.249 248.547 189.165 247.344C187.081 246.141 183.703 248.09 181.62 251.699C179.537 255.307 179.537 259.207 181.621 260.41C183.705 261.613 187.083 259.664 189.166 256.055Z" fill="#50555C"/>
<path d="M67.5 197C71.6421 197 75 193.642 75 189.5C75 185.358 71.6421 182 67.5 182C63.3579 182 60 185.358 60 189.5C60 193.642 63.3579 197 67.5 197Z" fill="#D1D5DB"/>
<path d="M198.5 269C202.642 269 206 265.642 206 261.5C206 257.358 202.642 254 198.5 254C194.358 254 191 257.358 191 261.5C191 265.642 194.358 269 198.5 269Z" fill="#50555C"/>
<path opacity="0.4" d="M56.6552 261C61.9876 261 66.3103 258.512 66.3103 255.443C66.3103 252.373 61.9876 249.885 56.6552 249.885C51.3228 249.885 47 252.373 47 255.443C47 258.512 51.3228 261 56.6552 261Z" fill="#D6D8E5"/>
<path d="M66.31 235.223H48.6089C48.6089 235.223 48.6693 250.797 48.6238 253.752C48.612 253.885 48.6086 254.018 48.6135 254.151C48.6135 254.179 48.6135 254.201 48.6089 254.214H48.6163C48.6861 255.513 49.5465 256.799 51.2013 257.791C54.6569 259.862 60.2639 259.862 63.7149 257.796C65.3696 256.804 66.2263 255.518 66.2998 254.219H66.31V235.223Z" fill="#ADB3BC"/>
<path d="M57.4595 240.426C62.3475 240.426 66.31 238.043 66.31 235.105C66.31 232.166 62.3475 229.784 57.4595 229.784C52.5714 229.784 48.6089 232.166 48.6089 235.105C48.6089 238.043 52.5714 240.426 57.4595 240.426Z" fill="#8C50FF"/>
<path d="M66.7711 235.986C66.6778 236.238 66.5595 236.48 66.4182 236.707C66.1358 237.157 65.7897 237.56 65.3914 237.904C65.2738 238.011 65.1496 238.113 65.018 238.214C64.7561 238.417 64.4824 238.602 64.1984 238.77C64.1368 238.806 64.0762 238.842 64.0117 238.876C63.8857 238.948 63.755 239.019 63.6216 239.085C63.3032 239.246 62.9681 239.394 62.6256 239.526C62.4977 239.576 62.3689 239.622 62.2372 239.668C61.9077 239.782 61.5689 239.882 61.2216 239.971C61.1049 240.002 60.9873 240.031 60.8688 240.057C60.529 240.135 60.1849 240.199 59.8364 240.249C59.7178 240.267 59.6002 240.285 59.4816 240.299C59.14 240.342 58.7977 240.374 58.4548 240.395C58.3372 240.402 58.2196 240.409 58.1001 240.412C57.7566 240.427 57.4122 240.429 57.0733 240.421C56.9548 240.421 56.8371 240.414 56.7186 240.409C56.3732 240.392 56.0288 240.366 55.6862 240.327C55.5676 240.313 55.4491 240.3 55.3315 240.283C54.9842 240.236 54.6398 240.177 54.3 240.107C54.1814 240.083 54.0629 240.056 53.9462 240.029C53.5946 239.946 53.2508 239.85 52.9147 239.74C52.7962 239.702 52.6767 239.661 52.56 239.62C52.2044 239.493 51.859 239.351 51.5276 239.193C51.4081 239.137 51.2896 239.078 51.1748 239.018C51.0173 238.936 50.8636 238.85 50.7136 238.761C50.512 238.641 50.3225 238.518 50.1423 238.389C50.0191 238.303 49.9006 238.214 49.7876 238.122C49.4028 237.818 49.056 237.466 48.7552 237.075C48.6257 236.904 48.5081 236.724 48.4033 236.536C47.3055 234.563 48.0757 232.303 50.7136 230.734C54.4381 228.521 60.4786 228.521 64.205 230.734C65.2533 231.357 66.0047 232.088 66.464 232.868C66.586 233.074 66.6897 233.292 66.7739 233.517C67.0762 234.311 67.0752 235.193 66.7711 235.986Z" fill="#EF990F"/>
<path d="M47.9194 234.513C47.9194 234.467 47.9194 231.912 47.9194 231.912L50.9079 233.213L47.9194 234.513Z" fill="#EF990F"/>
<path d="M66.9998 231.912L66.9971 234.533L65.2861 235.932L64.2412 233.529L66.9998 231.912Z" fill="#EF990F"/>
<path d="M48.8388 233.331V237.115C48.7542 236.937 48.6774 236.75 48.6089 236.555V233.331H48.8388Z" fill="#DD8910"/>
<path d="M50.2182 234.277V238.061C50.1383 237.976 50.0615 237.888 49.9883 237.797V234.277H50.2182Z" fill="#DD8910"/>
<path d="M51.5976 235.696V239.007C51.5197 238.956 51.4425 238.903 51.3677 238.848V235.696H51.5976Z" fill="#DD8910"/>
<path d="M52.9769 235.932V239.48C52.8232 239.443 52.6683 239.405 52.5171 239.366V235.937L52.9769 235.932Z" fill="#DD8910"/>
<path d="M54.3563 236.406V239.716C54.2022 239.694 54.0481 239.67 53.8965 239.645V236.406H54.3563Z" fill="#DD8910"/>
<path d="M55.5058 236.642V240.426C55.4289 240.411 55.3521 240.396 55.2759 240.377V236.642H55.5058Z" fill="#DD8910"/>
<path d="M56.8852 236.642V240.426C56.8083 240.426 56.7321 240.418 56.6553 240.412V236.642H56.8852Z" fill="#DD8910"/>
<path d="M58.7243 236.642V240.408C58.4956 240.415 58.267 240.423 58.0347 240.426V236.645L58.7243 236.642Z" fill="#DD8910"/>
<path d="M59.6439 236.642V240.14C59.4902 240.158 59.3377 240.175 59.1841 240.189V236.642H59.6439Z" fill="#DD8910"/>
<path d="M61.2528 236.406V239.64C61.1768 239.667 61.1002 239.693 61.0229 239.716V236.406H61.2528Z" fill="#DD8910"/>
<path d="M62.6322 235.696V239.34C62.5565 239.389 62.4803 239.434 62.4023 239.48V235.696H62.6322Z" fill="#DD8910"/>
<path d="M64.0115 234.986V238.8C63.863 238.871 63.709 238.941 63.5518 239.007V234.986H64.0115Z" fill="#DD8910"/>
<path d="M65.3909 233.804V237.736C65.2461 237.848 65.0932 237.955 64.9312 238.061V233.804H65.3909Z" fill="#DD8910"/>
<path d="M66.5404 232.622V235.885C66.4797 236.149 66.4026 236.403 66.3105 236.642V232.622H66.5404Z" fill="#DD8910"/>
<path d="M57.4597 237.351C62.7286 237.351 66.9999 234.81 66.9999 231.676C66.9999 228.541 62.7286 226 57.4597 226C52.1907 226 47.9194 228.541 47.9194 231.676C47.9194 234.81 52.1907 237.351 57.4597 237.351Z" fill="#FCA70D"/>
<path d="M63.8142 241.944C60.3051 244.024 54.6157 244.024 51.1066 241.944L50.9422 241.847L50.9082 241.869V249.15C50.9724 249.19 51.0386 249.231 51.1066 249.271C54.6157 251.351 60.3051 251.351 63.8142 249.271C63.8822 249.231 63.9465 249.189 64.0117 249.148V241.867L63.9767 241.844C63.9238 241.879 63.87 241.911 63.8142 241.944Z" fill="#ECE8F9"/>
<path d="M58.9541 245.055C56.4939 245.256 53.8944 244.976 51.8276 244.209V244.956C53.8944 245.721 56.4968 246.003 58.9541 245.802V245.055Z" fill="#111111"/>
<path d="M58.9541 246.715C56.4939 246.973 53.8944 246.615 51.8276 245.628V246.588C53.8925 247.572 56.4939 247.934 58.9541 247.676V246.715Z" fill="#111111"/>
<path d="M61.2529 244.433V247.284C61.4544 247.217 61.7072 247.132 61.9426 247.05V244.209H61.933C61.7185 244.296 61.4449 244.379 61.2529 244.433Z" fill="#111111"/>
<path d="M62.6323 244.919C61.8912 245.247 61.1209 245.493 60.3335 245.652V246.574C61.1209 246.415 61.8912 246.169 62.6323 245.841V244.919Z" fill="#111111"/>
<path opacity="0.4" d="M252.138 306C257.737 306 262.276 303.583 262.276 300.601C262.276 297.62 257.737 295.203 252.138 295.203C246.539 295.203 242 297.62 242 300.601C242 303.583 246.539 306 252.138 306Z" fill="#D6D8E5"/>
<path d="M262.276 280.959H243.689C243.689 280.959 243.753 296.088 243.705 298.959C243.693 299.088 243.689 299.218 243.694 299.347C243.694 299.374 243.694 299.395 243.689 299.408H243.697C243.771 300.67 244.674 301.919 246.411 302.883C250.04 304.894 255.927 304.894 259.551 302.887C261.288 301.924 262.188 300.675 262.265 299.413H262.276V280.959Z" fill="#37B9C5"/>
<path d="M252.983 286.014C258.115 286.014 262.276 283.699 262.276 280.845C262.276 277.99 258.115 275.676 252.983 275.676C247.85 275.676 243.689 277.99 243.689 280.845C243.689 283.699 247.85 286.014 252.983 286.014Z" fill="#8C50FF"/>
<path d="M262.76 281.701C262.662 281.946 262.538 282.181 262.39 282.401C262.093 282.838 261.73 283.23 261.311 283.564C261.188 283.668 261.058 283.768 260.919 283.866C260.644 284.062 260.357 284.242 260.059 284.405C259.994 284.44 259.93 284.475 259.863 284.509C259.73 284.579 259.593 284.647 259.453 284.711C259.119 284.867 258.767 285.011 258.407 285.139C258.273 285.188 258.138 285.233 258 285.278C257.654 285.389 257.298 285.486 256.933 285.572C256.811 285.602 256.687 285.63 256.563 285.655C256.206 285.731 255.845 285.793 255.479 285.842C255.354 285.86 255.231 285.877 255.106 285.891C254.747 285.932 254.388 285.964 254.028 285.984C253.904 285.991 253.781 285.997 253.656 286C253.295 286.015 252.933 286.017 252.577 286.009C252.453 286.009 252.329 286.003 252.205 285.997C251.842 285.981 251.481 285.956 251.121 285.918C250.996 285.905 250.872 285.892 250.748 285.875C250.384 285.83 250.022 285.772 249.665 285.704C249.541 285.68 249.416 285.654 249.294 285.628C248.925 285.548 248.564 285.454 248.211 285.348C248.086 285.31 247.961 285.271 247.838 285.231C247.465 285.108 247.102 284.969 246.754 284.816C246.629 284.762 246.504 284.705 246.384 284.646C246.219 284.566 246.057 284.483 245.9 284.396C245.688 284.28 245.489 284.16 245.3 284.035C245.17 283.952 245.046 283.865 244.927 283.776C244.523 283.481 244.159 283.139 243.843 282.758C243.707 282.592 243.584 282.418 243.474 282.235C242.321 280.319 243.13 278.124 245.9 276.598C249.81 274.449 256.153 274.449 260.066 276.598C261.166 277.204 261.955 277.914 262.438 278.672C262.566 278.873 262.675 279.084 262.763 279.303C263.08 280.074 263.079 280.93 262.76 281.701Z" fill="#EF990F"/>
<path d="M242.966 280.27C242.966 280.225 242.966 277.743 242.966 277.743L246.104 279.007L242.966 280.27Z" fill="#EF990F"/>
<path d="M263 277.743L262.997 280.289L261.2 281.649L260.103 279.314L263 277.743Z" fill="#EF990F"/>
<path d="M243.931 279.122V282.797C243.842 282.625 243.761 282.443 243.689 282.253V279.122H243.931Z" fill="#DD8910"/>
<path d="M245.379 280.041V283.716C245.295 283.634 245.215 283.548 245.138 283.46V280.041H245.379Z" fill="#DD8910"/>
<path d="M246.828 281.419V284.635C246.746 284.586 246.665 284.534 246.586 284.48V281.419H246.828Z" fill="#DD8910"/>
<path d="M248.276 281.649V285.095C248.114 285.059 247.952 285.022 247.793 284.984V281.653L248.276 281.649Z" fill="#DD8910"/>
<path d="M249.724 282.108V285.324C249.562 285.303 249.401 285.279 249.241 285.255V282.108H249.724Z" fill="#DD8910"/>
<path d="M250.931 282.338V286.014C250.85 285.999 250.77 285.985 250.69 285.967V282.338H250.931Z" fill="#DD8910"/>
<path d="M252.379 282.338V286.014C252.299 286.014 252.219 286.007 252.138 286.001V282.338H252.379Z" fill="#DD8910"/>
<path d="M254.31 282.338V285.997C254.07 286.004 253.83 286.011 253.586 286.014V282.341L254.31 282.338Z" fill="#DD8910"/>
<path d="M255.276 282.338V285.736C255.115 285.753 254.955 285.77 254.793 285.784V282.338H255.276Z" fill="#DD8910"/>
<path d="M256.966 282.108V285.25C256.886 285.277 256.805 285.302 256.724 285.324V282.108H256.966Z" fill="#DD8910"/>
<path d="M258.414 281.419V284.958C258.334 285.006 258.254 285.05 258.172 285.095V281.419H258.414Z" fill="#DD8910"/>
<path d="M259.862 280.73V284.434C259.706 284.504 259.545 284.571 259.379 284.635V280.73H259.862Z" fill="#DD8910"/>
<path d="M261.31 279.581V283.4C261.158 283.509 260.998 283.614 260.828 283.716V279.581H261.31Z" fill="#DD8910"/>
<path d="M262.517 278.432V281.602C262.453 281.859 262.373 282.106 262.276 282.338V278.432H262.517Z" fill="#DD8910"/>
<path d="M252.983 283.027C258.515 283.027 263 280.559 263 277.514C263 274.468 258.515 272 252.983 272C247.451 272 242.966 274.468 242.966 277.514C242.966 280.559 247.451 283.027 252.983 283.027Z" fill="#FCA70D"/>
<path d="M259.655 287.489C255.97 289.509 249.996 289.509 246.312 287.489L246.139 287.395L246.104 287.415V294.488C246.171 294.528 246.24 294.567 246.312 294.606C249.996 296.627 255.97 296.627 259.655 294.606C259.726 294.567 259.794 294.527 259.862 294.486V287.414L259.825 287.392C259.77 287.426 259.713 287.457 259.655 287.489Z" fill="#ECE8F9"/>
<path d="M254.552 290.51C251.968 290.706 249.239 290.434 247.069 289.689V290.414C249.239 291.158 251.971 291.431 254.552 291.236V290.51Z" fill="#FFC618"/>
<path d="M254.552 292.123C251.968 292.374 249.239 292.026 247.069 291.068V292C249.237 292.956 251.968 293.308 254.552 293.057V292.123Z" fill="#FFC618"/>
<path d="M256.966 289.906V292.676C257.177 292.611 257.443 292.528 257.69 292.448V289.689H257.68C257.454 289.773 257.167 289.854 256.966 289.906Z" fill="#FFC618"/>
<path d="M258.414 290.378C257.636 290.697 256.827 290.936 256 291.091V291.987C256.827 291.832 257.636 291.593 258.414 291.274V290.378Z" fill="#FFC618"/>
<path d="M131.374 53.0809L96.6091 32.4892C96.2751 32.253 95.8935 32.0971 95.4926 32.033C95.0918 31.969 94.682 31.9983 94.2938 32.119C94.1454 32.182 94.0058 32.265 93.8789 32.3658L90 34.6421L93.0069 38.2632V53.1303C93.0744 54.4161 93.4362 55.6676 94.0631 56.7833C94.69 57.899 95.5643 58.8476 96.6151 59.5521L107.44 66.5291L110.381 73.4444L107.283 78.8298L111.595 76.3006L115.691 71.421L128.758 78.6818L129.462 83L133.864 80.4214L133.984 80.3474H134.026C134.362 80.0693 134.626 79.7104 134.794 79.3024C134.962 78.8945 135.029 78.4503 134.989 78.0094V59.5027C134.92 58.2163 134.558 56.9644 133.93 55.8487C133.302 54.733 132.426 53.7847 131.374 53.0809Z" fill="#111111"/>
<path d="M127.31 55.8047L91.6963 35.5013C89.651 34.3331 88 35.2762 88 37.6065V55.8594C88.0692 57.1277 88.4398 58.362 89.082 59.4624C89.7242 60.5628 90.6198 61.4983 91.6963 62.1932L102.785 69.0806L107.042 78.7121L111.237 73.8994L127.304 82.5026C129.349 83.6647 131 82.7216 131 80.3914V62.1384C130.932 60.8707 130.562 59.6367 129.921 58.5364C129.28 57.436 128.385 56.5002 127.31 55.8047Z" fill="#50555C"/>
</svg>
