<svg width="261" height="229" viewBox="0 0 261 229" fill="none" xmlns="http://www.w3.org/2000/svg">
<ellipse cx="115.012" cy="114.081" rx="114.091" ry="114.081" fill="#EFF7FF"/>
<path d="M233.815 130.554C233.815 179.996 193.73 220.077 144.283 220.077C94.8355 220.077 54.7506 179.996 54.7506 130.554C54.7506 81.1111 94.8355 41.0299 144.283 41.0299C193.73 41.0299 233.815 81.1111 233.815 130.554Z" fill="white" stroke="#A7B4CF" stroke-width="1.2"/>
<path opacity="0.5" d="M173.956 213.169C103.203 218.508 65.7676 161.443 56.3115 132.243C56.3115 163.112 75.5018 190.643 94.6921 203.157C113.882 215.672 138.079 224.849 173.956 213.169Z" fill="#DCE0EB"/>
<mask id="mask0_1_5687" style="mask-type:alpha" maskUnits="userSpaceOnUse" x="56" y="42" width="178" height="178">
<ellipse cx="144.754" cy="130.575" rx="88.4423" ry="88.434" fill="url(#paint0_linear_1_5687)"/>
</mask>
<g mask="url(#mask0_1_5687)">
<path opacity="0.4" d="M95.0278 87.6099C95.0278 98.6226 86.0993 107.55 75.0854 107.55C64.0715 107.55 55.1431 98.6226 55.1431 87.6099C55.1431 76.5971 64.0715 67.6694 75.0854 67.6694C86.0993 67.6694 95.0278 76.5971 95.0278 87.6099Z" fill="url(#paint1_linear_1_5687)" stroke="#B2BDD5"/>
<path opacity="0.4" d="M205.581 59.4531C205.581 76.1104 192.076 89.6138 175.417 89.6138C158.759 89.6138 145.254 76.1104 145.254 59.4531C145.254 42.7959 158.759 29.2925 175.417 29.2925C192.076 29.2925 205.581 42.7959 205.581 59.4531Z" fill="url(#paint2_linear_1_5687)" stroke="#B2BDD5"/>
<path opacity="0.4" d="M228.677 161.937C228.677 168.844 223.076 174.444 216.168 174.444C209.26 174.444 203.659 168.844 203.659 161.937C203.659 155.029 209.26 149.429 216.168 149.429C223.076 149.429 228.677 155.029 228.677 161.937Z" fill="url(#paint3_linear_1_5687)" stroke="#B2BDD5"/>
<ellipse opacity="0.5" cx="127.896" cy="130.404" rx="6.50439" ry="6.50378" fill="url(#paint4_linear_1_5687)"/>
<path opacity="0.4" d="M133.901 130.404C133.901 133.72 131.212 136.408 127.896 136.408C124.58 136.408 121.892 133.72 121.892 130.404C121.892 127.089 124.58 124.401 127.896 124.401C131.212 124.401 133.901 127.089 133.901 130.404Z" fill="url(#paint5_linear_1_5687)" stroke="#B2BDD5"/>
</g>
<path d="M56.938 151.459C56.0088 151.923 40.3541 167.618 34.6373 177.009C8.61974 219.748 78.7742 198.379 120.588 177.938C160.079 158.633 235.994 112.436 255.322 80.8462C263.994 67.9934 266.286 46.8407 206.074 65.0513" stroke="#A7B4CF" stroke-width="1.5"/>
<ellipse opacity="0.4" cx="32.7788" cy="147.278" rx="6.50439" ry="6.50378" fill="url(#paint6_linear_1_5687)"/>
<path opacity="0.4" d="M38.7832 147.09C38.7832 150.406 36.095 153.094 32.7788 153.094C29.4626 153.094 26.7744 150.406 26.7744 147.09C26.7744 143.774 29.4626 141.086 32.7788 141.086C36.095 141.086 38.7832 143.774 38.7832 147.09Z" fill="#F6F7FB" stroke="#B2BDD5"/>
<path opacity="0.4" d="M124.27 31.6032C124.27 33.123 123.037 34.3551 121.517 34.3551C119.997 34.3551 118.765 33.123 118.765 31.6032C118.765 30.0834 119.997 28.8513 121.517 28.8513C123.037 28.8513 124.27 30.0834 124.27 31.6032Z" fill="#F6F7FB" stroke="#B2BDD5"/>
<path opacity="0.4" d="M256.216 114.294C256.216 116.84 254.152 118.904 251.605 118.904C249.059 118.904 246.995 116.84 246.995 114.294C246.995 111.748 249.059 109.684 251.605 109.684C254.152 109.684 256.216 111.748 256.216 114.294Z" fill="#F6F7FB" stroke="#B2BDD5"/>
<path opacity="0.4" d="M194.888 44.1465C194.888 45.4097 193.864 46.4338 192.601 46.4338C191.337 46.4338 190.313 45.4097 190.313 44.1465C190.313 42.8832 191.337 41.8591 192.601 41.8591C193.864 41.8591 194.888 42.8832 194.888 44.1465Z" fill="#F6F7FB" stroke="#B2BDD5"/>
<path d="M187.026 5.58819C192.292 4.96878 205.331 5.86692 215.367 14.4147C225.402 22.9626 229.46 32.2227 230.234 35.7843" stroke="#0E82FD" stroke-width="1.5" stroke-linecap="round" stroke-linejoin="round"/>
<path d="M187.026 18.1311C190.743 17.5117 200.035 17.8523 207.468 24.1703C214.902 30.4883 218.309 37.9521 219.083 40.8943" stroke="#0E82FD" stroke-width="1.5" stroke-linecap="round" stroke-linejoin="round"/>
<path d="M186.561 29.7451C189.039 29.1257 194.684 29.6399 200.034 33.4615C206.539 38.1071 207.313 42.7527 207.933 44.6109" stroke="#0E82FD" stroke-width="1.5" stroke-linecap="round" stroke-linejoin="round"/>
<defs>
<linearGradient id="paint0_linear_1_5687" x1="144.754" y1="42.1409" x2="144.754" y2="219.009" gradientUnits="userSpaceOnUse">
<stop stop-color="white"/>
<stop offset="1" stop-color="#E1E3E9"/>
</linearGradient>
<linearGradient id="paint1_linear_1_5687" x1="75.0854" y1="67.1694" x2="75.0854" y2="108.05" gradientUnits="userSpaceOnUse">
<stop stop-color="white"/>
<stop offset="1" stop-color="#E1E3E9"/>
</linearGradient>
<linearGradient id="paint2_linear_1_5687" x1="175.417" y1="28.7925" x2="175.417" y2="90.1138" gradientUnits="userSpaceOnUse">
<stop stop-color="white"/>
<stop offset="1" stop-color="#E1E3E9"/>
</linearGradient>
<linearGradient id="paint3_linear_1_5687" x1="216.168" y1="148.929" x2="216.168" y2="174.944" gradientUnits="userSpaceOnUse">
<stop stop-color="white"/>
<stop offset="1" stop-color="#E1E3E9"/>
</linearGradient>
<linearGradient id="paint4_linear_1_5687" x1="127.896" y1="123.901" x2="127.896" y2="136.908" gradientUnits="userSpaceOnUse">
<stop stop-color="white"/>
<stop offset="1" stop-color="#E1E3E9"/>
</linearGradient>
<linearGradient id="paint5_linear_1_5687" x1="127.896" y1="123.901" x2="127.896" y2="136.908" gradientUnits="userSpaceOnUse">
<stop stop-color="white"/>
<stop offset="1" stop-color="#E1E3E9"/>
</linearGradient>
<linearGradient id="paint6_linear_1_5687" x1="32.7788" y1="140.774" x2="32.7788" y2="153.781" gradientUnits="userSpaceOnUse">
<stop stop-color="#DCE0EB"/>
<stop offset="1" stop-color="#DCE0EB"/>
</linearGradient>
</defs>
</svg>
