<svg width="381" height="202" viewBox="0 0 381 202" fill="none" xmlns="http://www.w3.org/2000/svg">
<g clip-path="url(#clip0_1_4928)" filter="url(#filter0_d_1_4928)">
<path d="M377 194H4C8.08714 184.305 15.6349 176.079 26.2749 173.64C41.8394 170.075 58.3109 179.877 73.8408 176.191C82.664 174.099 89.6101 168.004 96.9092 162.942C124.446 143.844 162.181 138.199 194.765 148.308C211.797 153.589 227.317 162.825 244.764 166.751C267.326 171.831 290.919 167.619 314.121 166.924C336.717 166.249 369.093 174.814 377 194Z" fill="#F3F5FD"/>
<path d="M306.148 3.95093H82.2578V154.78H306.148V3.95093Z" fill="#DEE8F5"/>
<path d="M259.09 43.7549H129.316V119.508H259.09V43.7549Z" fill="white"/>
<path d="M129.316 43.7549L194.203 79.3655L259.09 43.7549H129.316Z" fill="#0CBC8B"/>
<path d="M306.148 3.95093H82.2578V16.3754H306.148V3.95093Z" fill="#C1D8ED"/>
<path d="M298.65 13.2802C300.5 13.2802 302.001 11.8846 302.001 10.1629C302.001 8.44131 300.5 7.04565 298.65 7.04565C296.799 7.04565 295.299 8.44131 295.299 10.1629C295.299 11.8846 296.799 13.2802 298.65 13.2802Z" fill="white"/>
<path d="M242.698 131.605C256.105 131.605 266.973 121.495 266.973 109.023C266.973 96.5514 256.105 86.4412 242.698 86.4412C229.291 86.4412 218.423 96.5514 218.423 109.023C218.423 121.495 229.291 131.605 242.698 131.605Z" fill="#0CBC8B"/>
<path d="M238.535 121.185C238.075 121.185 237.633 121.021 237.298 120.728L228.077 112.634C227.729 112.329 227.526 111.908 227.512 111.463C227.499 111.018 227.675 110.587 228.003 110.263C228.331 109.94 228.784 109.751 229.262 109.738C229.74 109.725 230.204 109.889 230.552 110.195L238.436 117.115L254.746 100.395C255.068 100.066 255.516 99.8688 255.994 99.8472C256.471 99.8256 256.938 99.9814 257.292 100.28C257.646 100.579 257.858 100.996 257.882 101.441C257.905 101.885 257.737 102.319 257.416 102.649L239.87 120.635C239.709 120.8 239.514 120.934 239.297 121.028C239.08 121.122 238.845 121.175 238.605 121.184C238.582 121.184 238.559 121.185 238.535 121.185Z" fill="white"/>
<path d="M43.078 64.4038C43.078 64.4038 40.3791 60.4153 40.4894 59.3352C40.5997 58.2551 43.9734 57.1626 43.9734 57.1626C43.9734 57.1626 43.4853 56.2072 43.0502 55.159C42.5484 53.9494 42.117 52.6154 42.5877 52.4827C43.0416 52.3542 43.7305 53.4524 44.3613 54.7294C45.172 56.3685 45.8876 58.3001 45.8876 58.3001C45.8876 58.3001 45.9622 56.3923 46.7207 56.5137C47.0325 56.5637 47.1641 56.9084 47.1651 58.2759C47.1651 59.8342 47.4272 62.2641 47.4272 62.2641L43.078 64.4038Z" fill="#FFCEA9"/>
<path d="M51.6467 82.2844C50.8649 82.2845 50.1007 82.0675 49.4521 81.6613C48.8035 81.2551 48.3 80.6781 48.0059 80.0042L40.9404 63.8189L48.2222 61.0691L50.3613 65.9697L52.0404 58.1631L59.7479 59.598L55.5021 79.3459C55.3363 80.1168 54.9078 80.8174 54.2801 81.3438C53.6525 81.8702 52.8591 82.1943 52.0177 82.268C51.8934 82.2792 51.7698 82.2847 51.6467 82.2844Z" fill="#0E82FD"/>
<path d="M38.8922 69.1623L43.2619 68.5138C43.4337 68.4883 43.5977 68.4293 43.7432 68.3408C43.8887 68.2523 44.0125 68.1361 44.1065 68C44.2005 67.8639 44.2624 67.7109 44.2884 67.5509C44.3144 67.391 44.3038 67.2277 44.2572 67.0718L41.5078 57.8927C41.4265 57.6208 41.2404 57.3862 40.985 57.2338C40.7296 57.0814 40.4228 57.0218 40.1232 57.0664L35.7535 57.715C35.5817 57.7405 35.4178 57.7994 35.2722 57.888C35.1267 57.9765 35.0029 58.0926 34.9089 58.2287C34.815 58.3649 34.753 58.5179 34.727 58.6779C34.701 58.8378 34.7116 59.0011 34.7582 59.1569L37.5076 68.3361C37.589 68.608 37.7751 68.8425 38.0305 68.9949C38.2858 69.1472 38.5926 69.2069 38.8922 69.1623Z" fill="#C1D8ED"/>
<path d="M78.4842 151.692C71.9313 150.152 71.2864 149.922 71.0745 149.847L73.7824 143.271C73.7611 143.264 73.7334 143.254 73.6995 143.244C74.2323 143.407 77.5603 144.212 80.3381 144.865L78.4842 151.692Z" fill="#FFCEA9"/>
<path d="M78.1896 160.89C78.1239 161.069 78.0192 161.234 77.882 161.374C77.7448 161.514 77.5781 161.626 77.3922 161.703C77.2064 161.781 77.0054 161.821 76.8018 161.823C76.5982 161.825 76.3965 161.788 76.2091 161.714C75.9494 161.611 75.7266 161.442 75.5669 161.225C75.4073 161.009 75.3174 160.754 75.3079 160.492L75.3129 151.848C75.3137 151.681 75.3533 151.515 75.429 151.364C75.5047 151.212 75.6148 151.077 75.7516 150.969C76.9339 150.149 77.8022 148.999 78.2288 147.686C78.5167 146.65 78.4857 145.559 78.1394 144.538C78.1018 144.446 78.0931 144.346 78.1143 144.25C78.1355 144.153 78.1857 144.065 78.2591 143.994C78.3325 143.923 78.4261 143.873 78.5288 143.85C78.6316 143.827 78.7394 143.831 78.8395 143.863L82.9245 145.137C83.0449 145.175 83.1562 145.234 83.2519 145.312C83.3476 145.389 83.4259 145.484 83.4823 145.59C83.5386 145.696 83.572 145.811 83.5804 145.929C83.5888 146.047 83.572 146.165 83.5312 146.277L78.1896 160.89Z" fill="#C1D8ED"/>
<path d="M60.5462 191.071C60.5462 191.071 60.521 183.779 60.521 183.133H68.0911C68.0911 183.777 68.1164 191.049 68.1164 191.049L60.5462 191.071Z" fill="#FFCEA9"/>
<path d="M80.3814 90.094C75.5242 85.5756 52.957 91.67 52.957 91.67L52.9364 91.8011L52.4743 91.5594C46.7344 102.291 38.6062 118.353 32.9827 129.292C32.5531 130.044 32.2942 130.871 32.2221 131.72C32.1501 132.569 32.2664 133.423 32.5639 134.228C32.8613 135.034 33.3336 135.774 33.9513 136.403C34.5691 137.031 35.3191 137.535 36.1549 137.883L60.7218 148.051C59.4601 160.941 58.0117 173.82 56.8059 186.69L70.041 188.226C72.4461 172.873 74.9194 157.537 77.1277 142.164L77.4881 141.41L77.2506 141.312C78.6049 131.841 80.1629 122.381 80.9253 112.842C81.5731 104.729 82.9945 92.5248 80.3814 90.094ZM48.4553 129.395C53.1917 122.051 58.7651 113.397 63.5872 106.052C63.34 115.697 62.7253 125.335 61.9179 134.967L48.4553 129.395Z" fill="#262626"/>
<path d="M45.9289 66.7567L43.3519 70.0094C43.3519 70.0094 36.4248 68.7177 35.7753 63.7538C35.7003 63.182 35.7652 61.6009 36.5261 61.8132C38.5088 62.3658 40.9759 65.1957 42.7062 65.5723C42.3115 64.9147 41.8299 63.9858 42.1403 63.8161C42.9575 63.3695 45.1543 66.0646 45.9289 66.7567Z" fill="#FFCEA9"/>
<path d="M71.9583 55.2119C71.9583 55.2119 69.0593 54.0537 69.0593 46.969L63.2321 46.4167C63.2321 46.4167 64.4332 52.6771 61.7058 54.9007L71.9583 55.2119Z" fill="#FFCEA9"/>
<g opacity="0.15">
<path d="M62.7656 53.4931L67.2356 49.7373L63.4866 49.9868C63.483 51.1871 63.2385 52.3763 62.7656 53.4931Z" fill="black"/>
</g>
<path d="M72.0755 43.9919C71.8664 46.1572 70.7922 48.2745 68.8283 49.1189C66.6932 50.102 64.332 50.5841 61.9506 50.5233C55.6249 50.5233 55.6963 37.1374 58.4518 34.3282C61.2073 31.5191 70.1072 32.4862 71.5528 36.7229C72.3004 38.9143 72.2752 41.9306 72.0755 43.9919Z" fill="#FFCEA9"/>
<path d="M62.8993 43.0345C63.1878 43.0345 63.4216 42.817 63.4216 42.5486C63.4216 42.2803 63.1878 42.0627 62.8993 42.0627C62.6108 42.0627 62.377 42.2803 62.377 42.5486C62.377 42.817 62.6108 43.0345 62.8993 43.0345Z" fill="#0F1011"/>
<path d="M58.7645 43.0345C59.053 43.0345 59.2869 42.817 59.2869 42.5486C59.2869 42.2803 59.053 42.0627 58.7645 42.0627C58.476 42.0627 58.2422 42.2803 58.2422 42.5486C58.2422 42.817 58.476 43.0345 58.7645 43.0345Z" fill="#0F1011"/>
<path d="M57.7513 41.5861C57.6875 41.5872 57.6257 41.5651 57.5792 41.5245C57.5326 41.4839 57.5049 41.428 57.502 41.3687C57.499 41.3094 57.521 41.2513 57.5634 41.2069C57.6057 41.1625 57.6649 41.1351 57.7286 41.1307L59.1063 41.0093C59.171 41.0044 59.2351 41.0231 59.285 41.0616C59.335 41.1001 59.3667 41.1552 59.3735 41.2152C59.3765 41.2451 59.3733 41.2752 59.3638 41.3039C59.3543 41.3326 59.3389 41.3593 59.3183 41.3824C59.2977 41.4055 59.2725 41.4246 59.244 41.4386C59.2154 41.4526 59.1842 41.4613 59.1521 41.464L57.7747 41.5851L57.7513 41.5861Z" fill="#0F1011"/>
<path d="M63.9256 41.5861C63.9135 41.5861 63.9015 41.5852 63.8895 41.5834L62.5031 41.3822C62.4711 41.3778 62.4404 41.3675 62.4126 41.352C62.3849 41.3365 62.3607 41.316 62.3416 41.2918C62.3224 41.2676 62.3085 41.24 62.3008 41.2108C62.2931 41.1816 62.2916 41.1512 62.2966 41.1215C62.3015 41.0917 62.3127 41.0632 62.3296 41.0375C62.3464 41.0118 62.3686 40.9894 62.3947 40.9717C62.4209 40.954 62.4506 40.9413 62.482 40.9343C62.5135 40.9272 62.5462 40.9261 62.5781 40.9309L63.9649 41.1321C64.0254 41.1413 64.0801 41.1713 64.1181 41.2161C64.156 41.2609 64.1746 41.3173 64.1701 41.3743C64.1656 41.4312 64.1383 41.4845 64.0936 41.5236C64.049 41.5628 63.9902 41.5849 63.9288 41.5858L63.9256 41.5861Z" fill="#0F1011"/>
<path d="M62.9946 46.3811C62.9946 46.3811 61.0898 46.7164 59.7041 46.3811C59.7041 46.3811 59.8184 47.5575 61.3493 47.5575C62.8803 47.5575 62.9946 46.3811 62.9946 46.3811Z" fill="white"/>
<path d="M67.3599 38.7825C67.6707 48.5656 69.1984 49.4612 69.1984 49.4612C69.1984 49.4612 74.173 46.135 74.3399 40.2331C74.4971 34.7001 69.8674 31.7938 66.878 31.4068C55.5195 29.9373 55.1208 39.478 55.1208 39.478C60.8212 40.3871 68.5856 38.8851 68.5856 38.8851" fill="#0F1011"/>
<path d="M65.7119 43.5265C65.7081 43.7992 65.7626 44.0699 65.8722 44.3228C65.9818 44.5758 66.1443 44.806 66.3503 45.0001C66.5563 45.1941 66.8017 45.3482 67.0722 45.4534C67.3427 45.5586 67.6329 45.6127 67.9261 45.6127C68.2193 45.6127 68.5096 45.5586 68.7801 45.4534C69.0506 45.3482 69.2959 45.1941 69.5019 45.0001C69.7079 44.806 69.8704 44.5758 69.98 44.3228C70.0896 44.0699 70.1441 43.7992 70.1404 43.5265C70.1453 43.2547 70.0915 42.9848 69.982 42.7328C69.8725 42.4809 69.7096 42.252 69.503 42.0598C69.2964 41.8676 69.0503 41.7161 68.7794 41.6142C68.5086 41.5123 68.2184 41.4622 67.9263 41.4668C66.3492 41.5393 65.7119 42.3894 65.7119 43.5265Z" fill="#FFCEA9"/>
<path d="M76.3995 40.2333C79.1879 40.2333 81.4484 38.1305 81.4484 35.5366C81.4484 32.9426 79.1879 30.8398 76.3995 30.8398C73.6111 30.8398 71.3506 32.9426 71.3506 35.5366C71.3506 38.1305 73.6111 40.2333 76.3995 40.2333Z" fill="#0F1011"/>
<path d="M80.767 56.5409C79.1196 55.0085 76.2754 54.0192 72.8076 54.0159C72.548 55.8971 60.27 55.9038 60.1763 54.0595C59.7077 54.0662 59.3436 54.0729 59.1165 54.0829C50.7832 54.4183 50.8077 60.6649 51.6275 67.5698L44.7704 64.7567L41.5981 71.4466L52.511 75.924C52.5182 76.1252 52.5233 76.3264 52.5262 76.5276C52.6667 87.4126 49.5053 89.4649 51.063 92.7914C52.573 96.0207 82.2515 97.362 82.648 91.6814C82.9004 88.0665 79.4758 84.911 79.4758 77.8656C79.4758 70.8202 86.4446 61.8225 80.767 56.5409Z" fill="#0E82FD"/>
<path d="M60.1763 54.0595C60.27 55.9038 61.3478 58.6167 64.6751 58.8212C69.109 59.0928 72.548 55.8971 72.8076 54.0159H72.7967C68.4313 54.0159 62.7224 54.0226 60.1763 54.0595Z" fill="#FFCEA9"/>
<g opacity="0.15">
<path d="M60.8119 45.4116C60.7988 45.4116 60.7857 45.4102 60.773 45.4076L59.4882 45.145C59.4633 45.1399 59.4398 45.1299 59.4193 45.1157C59.3988 45.1015 59.3818 45.0835 59.3694 45.0627C59.357 45.0419 59.3494 45.0189 59.3473 44.9953C59.3452 44.9716 59.3485 44.9478 59.357 44.9254L60.0304 43.1558C60.0474 43.1153 60.0808 43.0825 60.1233 43.0645C60.1659 43.0464 60.2143 43.0444 60.2584 43.059C60.3025 43.0735 60.3388 43.1034 60.3596 43.1424C60.3804 43.1814 60.3841 43.2263 60.3699 43.2678L59.7647 44.8583L60.8505 45.0803C60.8937 45.0893 60.9319 45.1128 60.9577 45.1463C60.9836 45.1798 60.9952 45.221 60.9904 45.262C60.9856 45.303 60.9648 45.3409 60.9319 45.3685C60.8989 45.3961 60.8562 45.4114 60.8119 45.4116Z" fill="black"/>
</g>
<path d="M51.3525 193.937C51.1489 193.936 50.9477 193.896 50.7615 193.82C50.5752 193.744 50.4079 193.632 50.27 193.493C50.1321 193.354 50.0266 193.189 49.96 193.01C49.8935 192.831 49.8673 192.642 49.8832 192.453C49.9051 192.191 50.0069 191.941 50.1768 191.731C50.3466 191.521 50.5773 191.361 50.8417 191.269L59.6526 188.524C59.8233 188.471 60.0043 188.454 60.183 188.472C60.3618 188.491 60.5341 188.545 60.6883 188.631C61.8995 189.413 63.3484 189.813 64.8219 189.771C65.9698 189.695 67.0716 189.321 68.0017 188.691C68.0835 188.628 68.1826 188.589 68.2875 188.577C68.3924 188.565 68.4987 188.581 68.5942 188.623C68.6897 188.666 68.7703 188.732 68.8266 188.815C68.883 188.898 68.9129 188.995 68.9126 189.093V193.101C68.9126 193.219 68.8875 193.336 68.8388 193.445C68.79 193.555 68.7186 193.654 68.6285 193.737C68.5384 193.821 68.4315 193.887 68.314 193.932C68.1964 193.977 68.0704 193.999 67.9433 193.999L51.3525 193.937Z" fill="#C1D8ED"/>
<path d="M340.624 191.871C347.764 189.812 354.691 187.123 361.003 179.595C362.298 178.052 363.515 176.076 362.805 174.229C362.271 172.84 360.725 171.949 359.155 171.722C358.571 171.643 357.978 171.628 357.389 171.677C357.386 171.677 357.383 171.679 357.382 171.677C356.477 171.764 355.583 171.927 354.71 172.165L354.461 172.232C350.295 173.333 346.326 175 342.684 177.18C342.354 177.375 341.962 177.461 341.573 177.424C341.184 177.386 340.82 177.227 340.54 176.973C340.26 176.718 340.081 176.383 340.032 176.022C339.982 175.661 340.066 175.295 340.269 174.983C340.64 174.418 341.073 173.89 341.559 173.407C342.277 172.709 343.063 172.075 343.907 171.513C345.03 170.751 346.227 170.071 347.399 169.376C351.756 166.794 355.884 163.893 359.743 160.699C362.497 158.416 365.19 155.884 366.499 152.675C367.1 151.2 367.374 149.498 366.657 148.069C365.473 145.721 362.12 145.063 359.377 145.55C354.572 146.406 350.734 149.683 347.329 152.949C344.507 155.663 341.343 158.668 337.288 158.834C336.596 158.895 335.901 158.765 335.288 158.461C334.131 157.809 333.834 156.299 334.246 155.1C334.659 153.901 335.613 152.943 336.534 152.022C341.887 146.68 347.155 141.122 350.632 134.575C354.108 128.029 355.648 120.3 353.232 113.349C352.524 111.316 351.46 109.339 349.8 107.863C348.139 106.387 345.811 105.461 343.533 105.744C340.428 106.124 338.089 108.561 336.516 111.078C331.109 119.715 331.439 130.296 329.916 140.188C329.49 142.958 328.871 145.798 327.097 148.078C326.934 148.297 326.722 148.481 326.475 148.618C325.016 149.404 323.707 147.819 323.159 146.474C320.996 141.152 320.455 135.067 316.583 130.662C315.105 128.986 313.014 127.585 310.683 127.598C307.837 127.616 305.4 129.828 304.57 132.36C303.739 134.893 304.236 137.644 305.126 140.158C306.778 144.821 309.74 149.011 313.227 152.693C315.065 154.638 317.146 156.601 317.697 159.138C317.866 160 317.795 160.888 317.491 161.718C317.188 162.548 316.661 163.292 315.961 163.879C315.634 164.143 315.253 164.344 314.841 164.47C314.429 164.595 313.994 164.642 313.562 164.608C312.628 164.528 311.783 164.085 310.967 163.655C310.625 163.474 310.282 163.29 309.937 163.11C308.576 162.389 307.216 161.668 305.856 160.946C302.395 159.11 298.22 157.235 294.617 158.815C292.777 159.624 291.574 161.212 291.008 163.036C290.501 164.691 290.501 166.445 291.008 168.099C292.081 171.541 298.845 181.118 301.635 183.588C304.896 186.47 316.195 198.914 340.624 191.871Z" fill="#8DDBE0"/>
</g>
<defs>
<filter id="filter0_d_1_4928" x="0" y="0" width="381" height="202" filterUnits="userSpaceOnUse" color-interpolation-filters="sRGB">
<feFlood flood-opacity="0" result="BackgroundImageFix"/>
<feColorMatrix in="SourceAlpha" type="matrix" values="0 0 0 0 0 0 0 0 0 0 0 0 0 0 0 0 0 0 127 0" result="hardAlpha"/>
<feOffset dy="4"/>
<feGaussianBlur stdDeviation="2"/>
<feComposite in2="hardAlpha" operator="out"/>
<feColorMatrix type="matrix" values="0 0 0 0 0 0 0 0 0 0 0 0 0 0 0 0 0 0 0.25 0"/>
<feBlend mode="normal" in2="BackgroundImageFix" result="effect1_dropShadow_1_4928"/>
<feBlend mode="normal" in="SourceGraphic" in2="effect1_dropShadow_1_4928" result="shape"/>
</filter>
<clipPath id="clip0_1_4928">
<rect width="373" height="194" fill="white" transform="translate(4)"/>
</clipPath>
</defs>
</svg>
