<svg width="301" height="261" viewBox="0 0 301 261" fill="none" xmlns="http://www.w3.org/2000/svg">
<path d="M294.76 175.112C294.81 205.701 284.304 235.435 264.901 259.62H38.0937C18.6909 235.435 8.18504 205.701 8.23455 175.112C8.23455 98.7384 72.378 36.8296 151.501 36.8296C230.623 36.8296 294.76 98.7404 294.76 175.112Z" fill="white"/>
<path opacity="0.1" d="M294.76 175.112C294.81 205.701 284.304 235.435 264.901 259.62H38.0937C18.6909 235.435 8.18504 205.701 8.23455 175.112C8.23455 98.7384 72.378 36.8296 151.501 36.8296C230.623 36.8296 294.76 98.7404 294.76 175.112Z" fill="#0E82FD"/>
<path d="M222.276 260.066H162.017L158.401 213.643L220.118 215.741C220.118 215.741 220.864 210.328 220.902 220.588C220.926 227.706 222.466 241.816 222.276 260.066Z" fill="#262626"/>
<path d="M183.929 210.976C183.874 212.081 183.811 213.192 183.737 214.298C182.777 229.696 180.57 244.999 177.138 260.066H116.911C117.695 236.494 118.349 217.824 118.349 217.824L158.402 213.643L160.804 213.389L183.929 210.976Z" fill="#262626"/>
<path d="M198.455 53.6662C198.455 53.6662 199.138 68.8498 202.537 74.4297C212.327 90.4929 214.845 108.372 204.434 117.45C194.022 126.527 129.044 125.196 124.637 103.681C120.928 85.5663 129.868 83.828 132.39 69.0106C133.532 62.3062 136.565 48.2612 136.565 48.2612" fill="#0A0A0A"/>
<path d="M142.856 101.316C142.968 101.302 144.213 121.241 168.211 119.503C184.825 118.302 190.749 101.287 191.129 101.287C189.338 100.92 186.322 100.386 185.526 99.9757C182.91 98.6189 179.673 97.2073 178.83 92.3035C178.344 89.4767 179.168 75.0174 178.915 72.1577L153.413 77.6519C153.769 83.6919 156.263 97.6927 147.522 100.173C146.068 100.581 144.501 100.957 142.856 101.316Z" fill="#FFCEA9"/>
<path opacity="0.52" d="M153.056 94.4492C153.455 93.2066 153.712 91.9255 153.823 90.6288C154.103 87.6698 154.047 84.6901 153.656 81.7428C158.84 81.0677 163.723 79.0025 167.751 75.782C168.224 77.47 170.828 84.846 170.107 86.4504C168.744 89.483 162.34 94.4492 153.056 94.4492Z" fill="#0C0C0C"/>
<path d="M155.34 88.1474C165.369 89.314 178.468 85.7234 181.474 72.8628L184.186 61.2591C187.192 48.399 182.63 36.45 170.086 33.717C157.542 30.9852 145.729 39.369 142.723 52.2306L141.522 57.3677C140.37 62.3015 137.446 86.0693 155.34 88.1474Z" fill="#FFCEA9"/>
<path d="M152.942 73.9406C154.867 73.9755 156.757 74.4466 158.459 75.3162C158.528 75.3521 158.58 75.4125 158.603 75.4845C158.626 75.5566 158.62 75.6346 158.585 75.702C158.549 75.7694 158.488 75.8209 158.414 75.8456C158.34 75.8702 158.259 75.8661 158.189 75.834C154.517 74.0466 151.074 74.0618 148.232 75.8782C148.175 75.9166 148.115 75.9521 148.054 75.9847C147.983 76.0134 147.904 76.0149 147.832 75.9887C147.76 75.9626 147.701 75.9109 147.668 75.8442C147.634 75.7775 147.628 75.7009 147.651 75.6302C147.674 75.5594 147.724 75.4999 147.791 75.4638C147.814 75.4516 147.851 75.4272 147.903 75.3943C149.395 74.4366 151.15 73.9305 152.942 73.9406Z" fill="#0C0C0C"/>
<path d="M152.452 70.0035H152.427C151.911 69.9277 151.4 69.8246 150.897 69.6946C150.144 69.4953 149.155 69.1544 149.252 68.5021C149.363 67.7586 152.675 60.0316 153.053 59.1531C153.068 59.114 153.092 59.0783 153.122 59.0481C153.152 59.0179 153.188 58.9938 153.228 58.9773C153.268 58.9608 153.31 58.9522 153.354 58.9519C153.397 58.9517 153.44 58.9598 153.48 58.9759C153.52 58.992 153.557 59.0156 153.587 59.0455C153.618 59.0753 153.642 59.1107 153.658 59.1497C153.674 59.1886 153.681 59.2302 153.68 59.2721C153.679 59.314 153.67 59.3553 153.652 59.3935C152.239 62.6838 149.969 68.0913 149.894 68.5919C149.988 68.8181 151.24 69.2041 152.522 69.3832C152.604 69.3952 152.679 69.4375 152.73 69.5014C152.781 69.5652 152.805 69.6456 152.796 69.7259C152.788 69.8062 152.747 69.8801 152.683 69.9323C152.62 69.9844 152.537 70.0109 152.454 70.0061L152.452 70.0035Z" fill="#0C0C0C"/>
<path d="M194.141 65.6699L182.896 63.286C174.444 59.6487 172.369 45.2361 172.369 45.2361C172.369 45.2361 161.602 54.6825 136.568 48.2611C136.568 48.2611 142.855 14.4615 179.779 25.5934C191.686 29.183 199.891 41.1651 198.252 56.7586C197.1 67.6831 194.141 65.6699 194.141 65.6699Z" fill="#0A0A0A"/>
<path d="M179.779 76.6103C183.591 77.4407 187.602 74.1757 188.462 70.4973C189.322 66.819 186.706 64.115 182.892 63.2852L180.351 65.3227L176.501 75.9002L179.779 76.6103Z" fill="#FFCEA9"/>
<path d="M151.002 52.2838C149.907 51.5485 148.629 51.1105 147.299 51.0158C146.644 50.9655 145.986 51.0105 145.345 51.1492C144.711 51.2839 144.096 51.4952 143.517 51.7781C143.437 51.8146 143.375 51.8797 143.345 51.9596C143.314 52.0394 143.316 52.1277 143.352 52.2056C143.388 52.2836 143.453 52.3451 143.535 52.377C143.617 52.4089 143.708 52.4088 143.79 52.3766L143.814 52.367C144.349 52.1354 144.912 51.9694 145.49 51.873C146.06 51.7749 146.644 51.7607 147.219 51.8309C148.36 51.9619 149.446 52.3819 150.365 53.0482L150.394 53.071C150.501 53.1511 150.636 53.1871 150.77 53.171C150.904 53.155 151.026 53.0882 151.109 52.9853C151.192 52.8825 151.229 52.752 151.213 52.6226C151.196 52.4933 151.127 52.3756 151.02 52.2955L151.002 52.2838Z" fill="#0C0C0C"/>
<path d="M160.827 54.4821C161.952 54.2557 163.12 54.3208 164.211 54.6708C164.763 54.8436 165.284 55.0959 165.757 55.419C166.238 55.7432 166.674 56.1244 167.056 56.5536L167.073 56.5719C167.133 56.6342 167.216 56.6716 167.304 56.6762C167.392 56.6808 167.478 56.6522 167.544 56.5964C167.611 56.5407 167.652 56.4621 167.66 56.3775C167.667 56.2928 167.64 56.2086 167.585 56.1428C167.185 55.6491 166.722 55.206 166.207 54.824C165.688 54.4354 165.112 54.1243 164.498 53.9014C163.253 53.4407 161.902 53.3118 160.588 53.528C160.521 53.5378 160.456 53.5605 160.398 53.5947C160.34 53.629 160.289 53.6742 160.25 53.7276C160.21 53.7809 160.182 53.8414 160.167 53.9055C160.152 53.9696 160.15 54.0359 160.162 54.1006C160.174 54.1653 160.2 54.227 160.237 54.282C160.274 54.3371 160.322 54.3844 160.378 54.4212C160.435 54.458 160.498 54.4836 160.565 54.4963C160.632 54.509 160.7 54.5087 160.767 54.4953L160.788 54.4912L160.827 54.4821Z" fill="#0C0C0C"/>
<path d="M182.874 63.1465L182.997 62.8478C168.834 57.3957 172.832 43.9284 172.874 43.7925L172.555 43.7002C172.514 43.8382 168.424 57.5838 182.874 63.1465Z" fill="#0C0C0C"/>
<path d="M144.907 57.7523C145.781 57.7523 146.49 57.0679 146.49 56.2236C146.49 55.3793 145.781 54.6948 144.907 54.6948C144.032 54.6948 143.323 55.3793 143.323 56.2236C143.323 57.0679 144.032 57.7523 144.907 57.7523Z" fill="#0C0C0C"/>
<path d="M160.562 60.3532C161.437 60.3532 162.146 59.6687 162.146 58.8244C162.146 57.9801 161.437 57.2957 160.562 57.2957C159.688 57.2957 158.979 57.9801 158.979 58.8244C158.979 59.6687 159.688 60.3532 160.562 60.3532Z" fill="#0C0C0C"/>
<path opacity="0.1" d="M165.437 69.6564C165.61 68.4884 164.413 67.357 162.763 67.1293C161.114 66.9016 159.636 67.6638 159.463 68.8319C159.29 69.9999 160.487 71.1314 162.137 71.3591C163.786 71.5868 165.264 70.8245 165.437 69.6564Z" fill="#0C0C0C"/>
<path opacity="0.1" d="M144.771 66.2841C144.595 67.4507 143.118 68.2116 141.468 67.9864C141.183 67.9467 140.903 67.8787 140.633 67.7835C140.589 66.3871 140.617 65.0445 140.689 63.8048C141.151 63.7045 141.629 63.6881 142.097 63.7566C143.747 63.9803 144.943 65.1135 144.771 66.2841Z" fill="#0C0C0C"/>
<path d="M27.0772 100.145C27.2979 99.7231 27.6491 99.3776 28.0821 99.1564C28.5151 98.9352 29.0086 98.8494 29.4943 98.9106C29.4901 98.8824 29.493 98.8536 29.5029 98.8267C29.5128 98.7998 29.5293 98.7756 29.5511 98.7563C29.5728 98.7369 29.5991 98.723 29.6277 98.7157C29.6562 98.7084 29.6862 98.7079 29.715 98.7143L28.0761 97.5802C27.5858 97.2562 27.2335 96.772 27.0844 96.2169C26.9353 95.6617 26.9993 95.0733 27.2647 94.5602C27.5439 94.0617 28.0049 93.6811 28.5583 93.4921C29.1117 93.303 29.7181 93.3191 30.26 93.5371C30.2558 93.5148 30.2715 93.4935 30.2752 93.4707L29.6015 93.0045C29.1409 92.6974 28.8043 92.246 28.6487 91.7269C28.4931 91.2077 28.528 90.6526 28.7476 90.1555C28.8921 89.8465 29.1057 89.5724 29.3732 89.3527C29.6407 89.1331 29.9554 88.9736 30.2945 88.8856C30.6336 88.7975 30.9887 88.7833 31.3342 88.8438C31.6797 88.9042 32.007 89.038 32.2925 89.2354L33.8463 90.3107C33.8511 90.3016 33.8463 90.2914 33.8527 90.2828C33.859 90.2742 33.8758 90.2716 33.8847 90.2625C33.5275 89.8753 33.3173 89.3824 33.2886 88.8646C33.26 88.3469 33.4146 87.8352 33.7271 87.4134C34.4627 86.2742 36.1537 86.507 37.159 87.2019L46.3054 93.3007L44.6706 90.6439C44.3422 90.1328 44.2269 89.5204 44.3479 88.9303C44.4689 88.3403 44.8173 87.8165 45.3228 87.4647C45.5904 87.2918 45.8917 87.1734 46.2084 87.1166C46.525 87.0599 46.8503 87.066 47.1644 87.1345C47.4785 87.2031 47.7748 87.3328 48.0353 87.5155C48.2958 87.6983 48.515 87.9304 48.6795 88.1976L57.6068 102.704C58.6541 104.406 58.9726 106.435 58.4948 108.36C58.0169 110.285 56.7803 111.954 55.0478 113.013C53.0385 114.241 50.695 114.862 48.3178 114.796C45.9405 114.73 43.6379 113.98 41.7049 112.643L27.8916 103.087C27.4321 102.757 27.1016 102.287 26.9538 101.753C26.8059 101.219 26.8494 100.652 27.0772 100.145Z" fill="#FFCEA9"/>
<g opacity="0.25">
<path d="M42.8997 96.3411C42.8662 96.3859 42.8159 96.4162 42.7596 96.4257C42.7032 96.4352 42.6452 96.423 42.5981 96.3918L33.9072 90.578C33.8825 90.5626 33.8613 90.5426 33.8449 90.5192C33.8284 90.4957 33.817 90.4693 33.8113 90.4415C33.8056 90.4137 33.8057 90.385 33.8117 90.3573C33.8177 90.3295 33.8295 90.3032 33.8462 90.28C33.8629 90.2567 33.8843 90.2369 33.9091 90.2217C33.934 90.2066 33.9617 90.1964 33.9907 90.1918C34.0196 90.1872 34.0493 90.1882 34.0778 90.1949C34.1063 90.2016 34.1332 90.2137 34.1568 90.2306L42.8477 96.0413C42.8952 96.0733 42.9277 96.1221 42.9381 96.1772C42.9484 96.2322 42.9357 96.289 42.9028 96.335L42.8997 96.3411Z" fill="#0C0C0C"/>
</g>
<g opacity="0.25">
<path d="M40.3505 100.11C40.317 100.155 40.2667 100.185 40.2104 100.194C40.154 100.204 40.0961 100.192 40.0489 100.161L30.3501 93.6742C30.3025 93.6423 30.2699 93.5935 30.2594 93.5385C30.249 93.4834 30.2616 93.4266 30.2944 93.3805C30.3287 93.3359 30.3793 93.3056 30.4359 93.2957C30.4925 93.2858 30.5509 93.2971 30.5992 93.3273L40.2985 99.8121C40.346 99.844 40.3785 99.8929 40.3889 99.9479C40.3992 100.003 40.3865 100.06 40.3536 100.106L40.3505 100.11Z" fill="#0C0C0C"/>
</g>
<g opacity="0.25">
<path d="M37.6138 104.209C37.5805 104.253 37.5303 104.284 37.474 104.293C37.4176 104.303 37.3597 104.291 37.3127 104.259L29.5755 99.0857C29.5309 99.0526 29.5011 99.0043 29.4924 98.9506C29.4837 98.8969 29.4967 98.8421 29.5287 98.7975C29.5607 98.7528 29.6093 98.7217 29.6644 98.7107C29.7195 98.6997 29.7768 98.7095 29.8246 98.7382L37.5617 103.912C37.6095 103.944 37.6421 103.993 37.6524 104.048C37.6628 104.103 37.65 104.16 37.6169 104.206L37.6138 104.209Z" fill="#0C0C0C"/>
</g>
<path d="M61.5428 97.47L83.761 146.998L114.417 106.497L140.985 129.615L95.6168 186.33L95.3194 186.736C93.5035 189.136 91.0842 191.051 88.2896 192.3C85.495 193.549 82.417 194.09 79.3458 193.873C76.2745 193.656 73.311 192.688 70.7345 191.06C68.158 189.432 66.0534 187.197 64.6189 184.567L32.6699 112.972L61.5428 97.47Z" fill="#0E82FD"/>
<path d="M86.3326 152.18C86.3897 152.18 86.4458 152.166 86.4955 152.139C86.5453 152.112 86.5871 152.073 86.6168 152.026C86.6466 151.979 86.6633 151.926 86.6655 151.871C86.6676 151.816 86.655 151.761 86.629 151.712L84.0589 146.852C84.0173 146.778 83.9476 146.723 83.8648 146.699C83.782 146.674 83.6925 146.682 83.6153 146.72C83.5382 146.758 83.4794 146.823 83.4514 146.902C83.4235 146.982 83.4286 147.068 83.4656 147.144L86.0357 152.005C86.0637 152.058 86.1062 152.102 86.1586 152.133C86.211 152.164 86.2712 152.18 86.3326 152.18Z" fill="#0C0C0C"/>
<path d="M113.04 145.214C113.796 153.786 117.473 207.265 118.199 217.823H220.85C221.416 208.3 221.467 166.66 223.613 148.038C225.662 130.269 229.679 121.372 226.734 116.119C221.92 107.533 215.008 99.7901 201.756 98.7214C196.249 98.2766 186.087 100.173 186.087 100.173C186.087 100.173 185.388 113.789 168.76 114.547C146.123 115.578 147.628 100.208 147.523 100.171C142.856 98.5241 126.614 97.6857 119.462 102.246C105.815 110.943 111.435 127.049 113.04 145.214Z" fill="#0E82FD"/>
<path d="M113.804 150.778L113.14 150.814L113.94 164.427L114.605 164.39L113.804 150.778Z" fill="#0C0C0C"/>
<path d="M300.687 106.155C300.427 105.755 300.045 105.442 299.593 105.261C299.141 105.079 298.642 105.037 298.165 105.141C298.166 105.112 298.161 105.084 298.148 105.058C298.136 105.032 298.117 105.01 298.094 104.992C298.07 104.975 298.043 104.963 298.013 104.959C297.984 104.954 297.954 104.956 297.926 104.965L299.45 103.69C299.908 103.324 300.212 102.81 300.308 102.244C300.403 101.678 300.283 101.098 299.97 100.611C299.644 100.139 299.149 99.8015 298.58 99.6625C298.011 99.5235 297.408 99.5934 296.89 99.8585C296.89 99.8357 296.874 99.8159 296.869 99.7936L297.494 99.2696C297.924 98.9228 298.216 98.4434 298.321 97.9126C298.427 97.3818 298.339 96.8321 298.072 96.3567C297.899 96.0619 297.66 95.8079 297.373 95.613C297.086 95.4182 296.757 95.2873 296.411 95.2298C296.065 95.1723 295.71 95.1896 295.372 95.2805C295.034 95.3715 294.72 95.5337 294.455 95.7556L293.01 96.9643C293.005 96.9557 293.01 96.945 293.002 96.9374C292.993 96.9298 292.977 96.9283 292.968 96.9202C293.286 96.5026 293.448 95.993 293.427 95.4749C293.406 94.9569 293.203 94.4612 292.851 94.0691C292.011 92.9999 290.348 93.3823 289.414 94.1634L280.888 101.049L282.262 98.2597C282.542 97.7214 282.599 97.1007 282.422 96.5233C282.245 95.9459 281.848 95.4549 281.31 95.1495C281.027 95.001 280.716 94.9098 280.395 94.8814C280.074 94.853 279.751 94.8879 279.445 94.9841C279.139 95.0804 278.856 95.2358 278.614 95.441C278.372 95.6462 278.176 95.8968 278.038 96.1776L270.533 111.416C269.652 113.204 269.529 115.252 270.188 117.127C270.847 119.001 272.238 120.553 274.064 121.454C276.182 122.498 278.575 122.908 280.936 122.631C283.297 122.354 285.518 121.403 287.315 119.899L300.158 109.155C300.584 108.786 300.868 108.288 300.964 107.744C301.06 107.199 300.962 106.64 300.687 106.155Z" fill="#FFCEA9"/>
<g opacity="0.25">
<path d="M284.569 103.771C284.606 103.812 284.659 103.838 284.716 103.842C284.773 103.846 284.829 103.828 284.873 103.793L292.973 97.2348C292.995 97.217 293.013 97.1951 293.026 97.1705C293.04 97.146 293.048 97.1191 293.05 97.0915C293.053 97.0638 293.05 97.036 293.041 97.0095C293.032 96.9831 293.018 96.9586 293 96.9373C292.982 96.9161 292.959 96.8985 292.933 96.8857C292.908 96.8729 292.88 96.8651 292.852 96.8626C292.823 96.8602 292.794 96.8632 292.767 96.8716C292.739 96.8799 292.714 96.8934 292.692 96.9112L284.592 103.47C284.548 103.506 284.52 103.557 284.515 103.613C284.51 103.669 284.528 103.724 284.565 103.767L284.569 103.771Z" fill="#0C0C0C"/>
</g>
<g opacity="0.25">
<path d="M287.467 107.297C287.505 107.339 287.558 107.364 287.615 107.368C287.672 107.372 287.728 107.355 287.772 107.319L296.81 100C296.854 99.9642 296.882 99.9126 296.887 99.8568C296.892 99.801 296.874 99.7456 296.837 99.7025C296.799 99.6613 296.746 99.6358 296.688 99.6309C296.631 99.6261 296.574 99.6425 296.529 99.6767L287.491 106.996C287.446 107.032 287.418 107.084 287.413 107.139C287.408 107.195 287.427 107.251 287.464 107.294L287.467 107.297Z" fill="#0C0C0C"/>
</g>
<g opacity="0.25">
<path d="M290.583 111.137C290.62 111.178 290.673 111.204 290.73 111.208C290.787 111.212 290.844 111.195 290.887 111.159L298.098 105.319C298.143 105.283 298.17 105.231 298.175 105.175C298.18 105.12 298.162 105.064 298.125 105.021C298.088 104.978 298.034 104.952 297.977 104.947C297.919 104.942 297.861 104.959 297.817 104.995L290.606 110.834C290.562 110.87 290.534 110.921 290.529 110.977C290.524 111.033 290.542 111.088 290.579 111.131L290.583 111.137Z" fill="#0C0C0C"/>
</g>
<path d="M267.009 105.516L250.118 147.328L225.456 113.902L198.893 137.02L236.934 193.091L237.231 193.497C239.047 195.898 241.467 197.813 244.261 199.061C247.056 200.31 250.134 200.851 253.205 200.634C256.277 200.417 259.24 199.449 261.817 197.821C264.393 196.193 266.498 193.958 267.932 191.328L295.22 120.377L267.009 105.516Z" fill="#0E82FD"/>
<path d="M247.548 152.511C247.491 152.51 247.435 152.496 247.385 152.469C247.335 152.442 247.294 152.404 247.264 152.357C247.234 152.31 247.217 152.256 247.215 152.201C247.213 152.146 247.225 152.091 247.251 152.042L249.821 147.182C249.862 147.107 249.932 147.051 250.015 147.025C250.099 146.999 250.19 147.007 250.268 147.045C250.346 147.084 250.405 147.15 250.432 147.231C250.46 147.311 250.453 147.399 250.415 147.474L247.844 152.335C247.817 152.388 247.774 152.432 247.722 152.463C247.67 152.494 247.609 152.51 247.548 152.511Z" fill="#0C0C0C"/>
<path d="M279.482 260.062H26.7369C26.575 260.058 26.4212 259.993 26.3084 259.88C26.1955 259.768 26.1323 259.618 26.1323 259.462C26.1323 259.305 26.1955 259.155 26.3084 259.043C26.4212 258.931 26.575 258.865 26.7369 258.861H279.482C279.644 258.865 279.798 258.931 279.911 259.043C280.024 259.155 280.087 259.305 280.087 259.462C280.087 259.618 280.024 259.768 279.911 259.88C279.798 259.993 279.644 260.058 279.482 260.062Z" fill="#292A2E"/>
<path d="M85.5692 66.8065V5.41913C85.5692 4.04129 85.0023 2.71985 83.9932 1.74539C82.984 0.770916 81.6152 0.223194 80.1878 0.222656L5.38351 0.222656C3.95572 0.222656 2.5864 0.77014 1.57679 1.74467C0.56719 2.7192 0 4.04094 0 5.41913L0 51.1917C0 52.5699 0.56719 53.8917 1.57679 54.8662C2.5864 55.8407 3.95572 56.3882 5.38351 56.3882H66.1665L83.1194 68.0264C83.3514 68.1857 83.6244 68.2803 83.9083 68.2999C84.1923 68.3194 84.4764 68.2631 84.7295 68.1371C84.9825 68.0111 85.1947 67.8203 85.3428 67.5856C85.4909 67.3509 85.5693 67.0813 85.5692 66.8065Z" fill="#0CBC8B"/>
<path d="M40.4822 48.9414C42.3019 48.9414 43.777 47.5175 43.777 45.7611C43.777 44.0047 42.3019 42.5808 40.4822 42.5808C38.6626 42.5808 37.1875 44.0047 37.1875 45.7611C37.1875 47.5175 38.6626 48.9414 40.4822 48.9414Z" fill="white"/>
<path d="M40.3288 38.8586C39.76 38.8585 39.2145 38.6403 38.8124 38.252C38.4102 37.8637 38.1843 37.3372 38.1843 36.7881V29.0987C38.1843 28.6341 38.3462 28.1831 38.644 27.8181C38.9418 27.4532 39.3581 27.1955 39.8259 27.0865C39.9189 27.0642 49.5136 24.7204 49.5136 18.4881C49.5136 14.5775 46.1921 11.8435 41.4365 11.8435C36.2868 11.8435 33.6395 16.8143 33.5296 17.0243C33.2723 17.5079 32.8282 17.8745 32.2933 18.0447C31.7583 18.215 31.1755 18.1753 30.6706 17.9343C30.1657 17.6932 29.7793 17.2702 29.5948 16.7565C29.4104 16.2427 29.4427 15.6796 29.6847 15.1887C29.8424 14.8843 33.5911 7.70361 41.4365 7.70361C48.6019 7.70361 53.8025 12.2377 53.8025 18.4856C53.8025 26.0153 45.9729 29.4644 42.4738 30.63V36.7881C42.4736 37.3372 42.2476 37.8638 41.8454 38.252C41.4431 38.6403 40.8976 38.8585 40.3288 38.8586Z" fill="white"/>
</svg>
