<svg width="342" height="358" viewBox="0 0 342 358" fill="none" xmlns="http://www.w3.org/2000/svg">
<ellipse cx="171.5" cy="282" rx="153.5" ry="75" fill="#0E82FD"/>
<path d="M226.966 265.381L158.258 226.652C152.443 223.373 147.72 214.574 147.72 206.998V19.8931C147.764 12.3106 152.465 8.83087 158.28 12.1102L226.966 50.8386C232.833 54.125 237.527 62.9247 237.527 70.5V257.605C237.527 265.18 232.833 268.639 226.966 265.381Z" fill="#B1B4C4"/>
<path d="M228.162 268.753L233.61 266.068L228.389 257.326L228.162 268.753Z" fill="#B1B4C4"/>
<path d="M146.679 13.9788L151.688 11.4155L150.676 18.6256L146.679 13.9788Z" fill="#B1B4C4"/>
<path d="M222.603 267.522L153.902 228.793C148.079 225.514 143.364 216.714 143.364 209.132V22.0266C143.364 14.4585 148.079 10.9716 153.902 14.2508L222.603 52.9793C228.426 56.2586 233.141 65.0582 233.141 72.6335V259.746C233.141 267.321 228.433 270.786 222.603 267.522Z" fill="#616E84"/>
<path d="M232.415 73.1131V260.218C232.415 267.794 227.7 271.273 221.877 268.001L194.933 252.808L186.559 248.089L153.169 229.258C147.353 225.972 142.638 217.179 142.638 209.597V22.5062C142.631 14.9238 147.353 11.4512 153.169 14.7233L221.877 53.4518C227.7 56.7382 232.415 65.5307 232.415 73.1131Z" fill="#20232D"/>
<path d="M227.458 71.2157V253.445C227.458 258.034 224.157 259.889 220.087 257.598L198.607 245.497L196.708 244.423L196.077 244.065L191.435 241.43L178 233.869L172.427 230.726L170.183 229.466L154.958 220.874C150.888 218.576 147.588 212.998 147.588 208.394V26.1936C147.588 21.5969 150.888 19.7496 154.958 22.0337L181.784 37.1556V37.2272C181.892 39.1714 182.468 41.0635 183.464 42.7503C184.46 44.437 185.85 45.871 187.519 46.9361C190.694 48.7118 193.269 47.2727 193.269 43.6998C193.269 43.6998 193.269 43.6425 193.269 43.6211L220.102 58.743C224.157 61.0342 227.458 66.619 227.458 71.2157Z" fill="white"/>
<path d="M189.071 45.0537C189.92 44.5752 189.918 43.0213 189.068 41.583C188.217 40.1447 186.839 39.3666 185.991 39.8451C185.142 40.3235 185.143 41.8774 185.994 43.3157C186.844 44.7541 188.222 45.5322 189.071 45.0537Z" fill="#2B303F"/>
<path opacity="0.1" d="M187.527 43.478C187.265 43.3059 187.047 43.0765 186.892 42.808C186.737 42.5395 186.648 42.2394 186.632 41.9315C186.632 41.3658 187.043 41.1296 187.549 41.416C187.813 41.5865 188.033 41.8153 188.191 42.0838C188.349 42.3524 188.44 42.6533 188.458 42.9625C188.436 43.5282 188.025 43.7573 187.527 43.478Z" fill="white"/>
<path d="M235.202 97.7295C234.637 98.0517 234.183 97.7295 234.183 97.0135V89.0086C234.188 88.6364 234.283 88.2707 234.46 87.9411C234.637 87.6114 234.891 87.3271 235.202 87.1112C235.759 86.7962 236.214 87.1112 236.214 87.8272V95.8035C236.214 96.1799 236.122 96.551 235.946 96.8859C235.77 97.2208 235.515 97.51 235.202 97.7295Z" fill="#757B89"/>
<path d="M235.202 110.804C234.637 111.119 234.183 110.804 234.183 110.052V102.076C234.188 101.704 234.283 101.34 234.46 101.011C234.637 100.683 234.892 100.4 235.202 100.185C235.759 99.8704 236.214 100.185 236.214 100.901V108.885C236.213 109.26 236.121 109.63 235.945 109.963C235.769 110.297 235.514 110.585 235.202 110.804Z" fill="#757B89"/>
<path d="M166.281 41.8742C160.29 38.4947 155.413 41.2442 155.413 48.0032C155.432 49.8849 155.751 51.7522 156.359 53.5379C159.08 61.7791 164.294 71.7959 165.826 74.6742C165.93 74.8758 166.087 75.0465 166.281 75.1683C166.349 75.2135 166.43 75.2377 166.512 75.2377C166.595 75.2377 166.675 75.2135 166.743 75.1683C168.276 74.0227 173.49 69.877 176.211 64.7075C176.876 63.3249 177.2 61.8095 177.157 60.2826C177.157 53.5021 172.28 45.2466 166.281 41.8742ZM166.281 60.4903C164.644 59.4452 163.28 58.04 162.3 56.3875C161.319 54.735 160.749 52.8812 160.634 50.9746C160.634 47.4662 163.172 46.0342 166.281 47.7884C167.927 48.8294 169.299 50.2337 170.286 51.8879C171.274 53.5422 171.849 55.4 171.965 57.3112C171.965 60.8268 169.398 62.2516 166.281 60.4974V60.4903Z" fill="#DADCE5"/>
<path d="M214.206 177.757L160.671 147.578C157.738 145.945 155.42 141.556 155.42 137.783V101.482C155.42 97.7082 157.767 95.9755 160.671 97.608L214.206 127.795C217.139 129.427 219.457 133.809 219.457 137.589V173.883C219.457 177.657 217.11 179.397 214.206 177.757Z" fill="#E9EAF2"/>
<path d="M216.831 77.3447L188.231 61.2204C186.764 60.4041 185.605 58.2132 185.605 56.3229V56.1726C185.605 54.2895 186.779 53.4231 188.231 54.2394L216.831 70.3637C218.298 71.1799 219.457 73.3709 219.457 75.2611V75.4115C219.457 77.2946 218.284 78.1824 216.831 77.3447Z" fill="#E9EAF2"/>
<path d="M216.831 90.7772L188.231 74.6457C186.764 73.8295 185.605 71.6385 185.605 69.7554V69.5907C185.605 67.7005 186.779 66.8341 188.231 67.6504L216.831 83.7819C218.298 84.5981 219.457 86.7891 219.457 88.6721V88.8225C219.457 90.7271 218.284 91.5934 216.831 90.7772Z" fill="#E9EAF2"/>
<path d="M216.831 104.975L188.231 88.8509C186.764 88.0347 185.605 85.8366 185.605 83.9535V83.8031C185.605 81.9129 186.779 81.0465 188.231 81.8628L216.831 97.9943C218.298 98.8105 219.457 101.001 219.457 102.892V103.042C219.457 104.925 218.284 105.791 216.831 104.975Z" fill="#E9EAF2"/>
<path d="M216.831 119.174L158.031 86.0586C156.564 85.2424 155.406 83.0514 155.406 81.1683V81.018C155.406 79.1277 156.579 78.2614 158.031 79.0776L216.824 112.221C218.291 113.037 219.449 115.228 219.449 117.119V117.269C219.457 119.123 218.283 119.99 216.831 119.174Z" fill="#E9EAF2"/>
<path d="M216.831 195.034L158.031 161.89C156.564 161.074 155.406 158.883 155.406 156.993V156.842C155.406 154.959 156.579 154.093 158.031 154.909L216.824 188.053C218.291 188.869 219.449 191.06 219.449 192.95V193.094C219.457 194.984 218.283 195.85 216.831 195.034Z" fill="#E9EAF2"/>
<path d="M216.831 210.356L158.031 177.213C156.564 176.396 155.406 174.205 155.406 172.315V172.165C155.406 170.282 156.579 169.408 158.031 170.232L216.824 203.368C218.291 204.192 219.449 206.383 219.449 208.266V208.416C219.457 210.306 218.283 211.173 216.831 210.356Z" fill="#E9EAF2"/>
<path d="M216.831 225.679L158.031 192.535C156.564 191.712 155.406 189.521 155.406 187.638V187.487C155.406 185.597 156.579 184.731 158.031 185.547L216.824 218.69C218.291 219.507 219.449 221.698 219.449 223.588V223.738C219.457 225.621 218.283 226.495 216.831 225.679Z" fill="#E9EAF2"/>
<path d="M191.157 226.523L158.691 208.222C157.224 207.406 156.066 205.215 156.066 203.325V203.175C156.066 201.292 157.246 200.418 158.691 201.241L191.157 219.535C192.623 220.351 193.782 222.55 193.782 224.433V224.583C193.782 226.466 192.601 227.34 191.157 226.523Z" fill="#E9EAF2"/>
<path d="M219.017 305.742L185.202 286.682L219.017 267.622L252.832 286.682L219.017 305.742Z" fill="#EFDA86"/>
<path d="M250.544 325.646L219.017 343.418V307.875L250.544 290.104V325.646Z" fill="#D1B66B"/>
<path d="M219.017 343.418L187.49 325.646V290.104L219.017 307.875V343.418Z" fill="#E2C979"/>
<path opacity="0.1" d="M187.49 290.104V299.405L219.017 316.969V307.911L187.49 290.104Z" fill="black"/>
<path opacity="0.1" d="M250.544 290.104V300.064L219.017 316.969V307.911L250.544 290.104Z" fill="black"/>
<path d="M185.202 286.682V296.541L219.017 315.343V305.742L185.202 286.682Z" fill="#E2C979"/>
<path d="M219.017 315.343L252.832 297.314V286.682L219.017 305.742V315.343Z" fill="#D1B66B"/>
<path opacity="0.05" d="M218.863 296.842L202.487 287.398L220.22 277.403L236.595 286.847L218.863 296.842Z" fill="black"/>
<path d="M220.99 275.92L203.25 265.925L220.99 255.922L238.722 265.925L220.99 275.92Z" fill="#EFDA86"/>
<path d="M237.519 286.36L220.99 295.675V277.037L237.519 267.715V286.36Z" fill="#D1B66B"/>
<path d="M220.99 295.675L204.452 286.36V267.715L220.99 277.037V295.675Z" fill="#E2C979"/>
<path opacity="0.1" d="M204.452 267.715V272.591L220.99 281.806V277.052L204.452 267.715Z" fill="black"/>
<path opacity="0.1" d="M237.519 267.715V272.942L220.99 281.806V277.052L237.519 267.715Z" fill="black"/>
<path d="M203.25 265.925V271.095L220.99 280.954V275.92L203.25 265.925Z" fill="#E2C979"/>
<path d="M220.99 280.954L238.722 271.496V265.925L220.99 275.92V280.954Z" fill="#D1B66B"/>
<path opacity="0.4" d="M257.628 353.635L233.72 340.217L251.849 329.993L275.749 343.418L257.628 353.635Z" fill="#D6D8E5"/>
<path d="M260.407 331.811L235.37 317.678L253.499 307.46L278.536 321.594L260.407 331.811Z" fill="#EFDA86"/>
<path d="M277.311 342.48L260.407 352.01V332.95L277.311 323.427V342.48Z" fill="#D1B66B"/>
<path d="M260.407 352.01L236.595 338.563V319.51L260.407 332.95V352.01Z" fill="#E2C979"/>
<path opacity="0.1" d="M236.595 319.51V324.501L260.407 337.826V332.971L236.595 319.51Z" fill="black"/>
<path opacity="0.1" d="M277.311 323.427V328.768L260.407 337.826V332.971L277.311 323.427Z" fill="black"/>
<path d="M235.37 317.677V322.962L260.407 336.959V331.811L235.37 317.677Z" fill="#E2C979"/>
<path d="M260.407 336.959L278.536 327.293V321.594L260.407 331.811V336.959Z" fill="#D1B66B"/>
<path d="M69.2437 154.165C70.483 156.928 73.9591 169.917 76.9072 173.325C79.8553 176.733 94.5077 177.041 94.5077 177.041L92.117 169.644L82.7301 167.31L77.8972 155.546L69.2437 154.165Z" fill="#FFCEA9"/>
<path d="M88.5384 165.47C82.9503 166.845 81.6376 163.401 80.8969 160.551C79.1222 153.656 78.0075 168.284 80.3469 170.124C83.2289 172.401 84.1603 174.356 90.7312 172.759C93.5326 172.043 96.598 170.439 101.915 168.027C103.338 167.382 104.445 166.945 107.173 165.707C109.901 164.468 112.746 162.392 114.177 160.365C115.607 158.339 115.805 157.394 115.511 156.929C115.145 156.349 114.492 156.477 113.729 157.329C112.623 158.767 111.262 159.999 109.71 160.967C109.71 160.967 111.47 159.184 112.431 158.024C113.288 156.998 113.998 155.864 114.543 154.652C115.049 153.47 114.008 151.874 113.216 152.711C112.424 153.549 112.05 154.408 110.605 156.105C109.843 157.005 108.974 157.812 108.016 158.511C108.912 157.327 109.709 156.075 110.4 154.766C111.015 153.742 111.318 152.567 111.272 151.38C111.228 150.757 110.341 150.026 109.498 151.193C108.764 152.246 108.258 153.893 106.498 155.676C105.222 156.971 104.137 157.709 104.108 157.351C104.078 156.993 104.878 156.284 105.332 154.781C105.787 153.277 105.332 151.68 104.482 151.508C103.631 151.337 103.792 151.38 103.103 152.79C102.414 154.201 101.372 155.239 100.565 157.294C100.133 158.745 99.3454 160.072 98.27 161.16C96.8913 162.585 93.8553 164.16 88.5384 165.47Z" fill="#FFCEA9"/>
<path opacity="0.4" d="M95.2998 301.696C112.695 301.696 126.797 293.746 126.797 283.94C126.797 274.133 112.695 266.183 95.2998 266.183C77.9042 266.183 63.8022 274.133 63.8022 283.94C63.8022 293.746 77.9042 301.696 95.2998 301.696Z" fill="#D6D8E5"/>
<path d="M80.3466 137.697C79.1323 137.145 77.7529 137.05 76.4709 137.427C75.1889 137.805 74.0939 138.63 73.3944 139.744C71.5537 142.723 69.6396 152.919 69.4709 154.659C69.4709 154.659 72.045 158.138 75.9171 157.558L80.3466 137.697Z" fill="#EDEDED"/>
<path d="M94.6178 281.67C97.3318 282.393 100.228 282.048 102.685 280.71C104.628 280.768 115.203 276.35 116.618 280.059C117.88 283.31 113.296 286.317 110.854 286.897C105.508 288.164 101.563 290.763 99.414 291.193C97.8153 291.522 95.7472 291.744 94.4712 290.513C92.9898 289.052 93.1218 283.603 94.6178 281.67Z" fill="#2B2A30"/>
<path d="M99.4579 290.305C101.607 289.861 105.552 287.262 110.898 286.009C112.944 285.529 116.479 283.338 116.838 280.725C117.308 283.718 113.172 286.374 110.898 286.911C105.552 288.178 101.607 290.777 99.4579 291.207C97.8591 291.536 95.7911 291.758 94.515 290.527C94.185 290.171 93.9462 289.744 93.8184 289.281C95.6957 290.785 97.8958 290.634 99.4579 290.305Z" fill="#BF4B4B"/>
<path d="M77.4647 274.145C80.1773 274.875 83.0752 274.533 85.5316 273.193C87.4823 273.25 98.0499 268.832 99.4653 272.541C100.719 275.792 96.1432 278.799 93.6938 279.379C88.355 280.646 84.4022 283.245 82.2608 283.675C80.6621 284.004 78.594 284.226 77.318 282.995C75.8439 281.527 75.9759 276.085 77.4647 274.145Z" fill="#2B2A30"/>
<path d="M82.3122 282.787C84.4536 282.343 88.4063 279.744 93.7452 278.491C95.7986 278.011 99.326 275.82 99.6853 273.207C100.162 276.2 96.0186 278.856 93.7452 279.393C88.4063 280.66 84.4536 283.259 82.3122 283.689C80.7134 284.018 78.6454 284.24 77.3693 283.009C77.0288 282.655 76.7776 282.228 76.636 281.763C78.528 283.267 80.7134 283.116 82.3122 282.787Z" fill="#BF4B4B"/>
<path d="M77.2593 246.099C77.7143 242.265 78.5318 238.48 79.7014 234.793C79.7014 234.793 78.968 225.034 78.6087 215.783C78.1907 205.287 74.4652 196.051 77.406 187.673L110.583 194.891C110.583 194.891 108.574 236.741 108.134 241.81C107.893 245.752 107.403 249.676 106.667 253.56C105.149 261.686 102.692 281.011 102.692 281.011C99.1793 283.002 94.5738 281.899 94.5738 281.899C94.5738 281.899 94.8305 257.462 95.0578 251.605C95.3292 244.445 95.5565 245.003 95.5565 245.003L94.4565 227.197L93.7231 218.34C93.7231 218.34 92.8064 224.841 92.2124 230.648C91.6917 235.71 90.4377 240.285 89.037 249.715C87.8269 257.891 85.8542 274.316 85.8542 274.316C82.3488 276.307 77.582 274.653 77.582 274.653C77.582 274.653 76.3059 253.194 77.2593 246.099Z" fill="#FF5A5A"/>
<path d="M82.1067 137.868C84.6294 137.99 86.5068 138.627 86.8295 137.868C87.0984 136.597 87.2894 135.31 87.4015 134.016C87.1082 133.3 86.8588 132.534 86.8588 132.534C83.6907 130.622 82.686 127.279 82.268 123.377C81.5347 116.711 85.2455 110.882 92.073 110.181C98.4898 109.529 103.205 113.932 104.467 119.976C105.149 122.961 106.498 128.603 104.672 133.515C103.653 136.257 102.333 138.434 101.005 138.864C99.7334 138.829 98.4648 138.719 97.2065 138.534C97.2065 138.534 96.8618 140.382 96.6271 141.57C96.3924 142.759 96.4878 143.389 98.9079 144.842C101.328 146.296 95.2411 149.296 91.2736 149.002C87.3062 148.709 82.8181 146.36 81.5934 143.854C80.2513 141.09 80.3686 137.79 82.1067 137.868Z" fill="#FFCEA9"/>
<path d="M85.7587 138.241C85.062 139.945 86.8368 142.028 91.5816 143.482C96.3264 144.935 96.7517 143.067 96.7517 143.067C96.7517 143.067 103.711 146.16 105.977 147.706C108.83 149.647 110.091 155.274 110.473 164.769C110.92 175.759 110.957 192.062 110.583 194.876C110.583 194.876 105.259 200.053 98.4458 199.509C91.6329 198.965 80.1779 193.065 77.3985 188.533C77.4718 178.895 78.6232 177.327 77.0245 171.778C73.3577 159.069 71.4436 153.878 73.2184 145.422C74.6851 138.463 76.7385 137.596 79.5545 137.668C81.6317 137.749 83.7028 137.94 85.7587 138.241Z" fill="#F0F3F7"/>
<path d="M121.18 173.855C115.592 175.229 114.279 171.793 113.546 168.943C111.763 162.041 110.803 155.811 109.483 151.895C107.921 147.277 106.285 146.539 103.983 145.637C101.284 144.585 98.9664 146.811 99.8611 152.69C100.924 159.642 102.318 164.525 104.995 172.738C105.684 174.886 107.246 178.702 109.585 180.549C112.468 182.826 116.809 182.697 123.38 181.129C126.189 180.413 130.85 178.246 136.167 175.826C137.589 175.182 138.697 174.752 141.425 173.506C144.153 172.26 146.998 170.191 148.436 168.172C149.873 166.153 150.056 165.194 149.763 164.735C149.396 164.155 148.744 164.284 147.981 165.136C146.874 166.571 145.513 167.8 143.962 168.766C143.962 168.766 145.722 166.984 146.683 165.831C147.54 164.805 148.251 163.671 148.795 162.458C149.301 161.277 148.26 159.673 147.468 160.511C146.676 161.349 146.301 162.215 144.857 163.905C144.094 164.805 143.225 165.615 142.268 166.318C143.163 165.13 143.96 163.876 144.651 162.566C145.268 161.541 145.57 160.366 145.524 159.179C145.48 158.563 144.593 157.833 143.757 159C143.023 160.045 142.51 161.692 140.75 163.475C139.474 164.771 138.389 165.516 138.359 165.158C138.33 164.8 139.129 164.084 139.584 162.58C140.039 161.077 139.584 159.48 138.733 159.308C137.883 159.136 138.044 159.179 137.362 160.59C136.68 162 135.624 163.038 134.817 165.1C134.382 166.558 133.586 167.888 132.5 168.974C131.136 170.399 126.497 172.552 121.18 173.855Z" fill="#FFCEA9"/>
<path d="M101.915 144.699C105.647 144.162 108.287 145.802 109.937 151.322C111.587 156.843 112.731 161.346 112.731 161.346C111.257 163.429 109.021 164.882 106.483 165.406C102.017 166.459 100.411 164.375 100.411 164.375C100.411 164.375 99.1718 158.59 98.4017 154.652C97.6317 150.714 97.2944 145.365 101.915 144.699Z" fill="#EDEDED"/>
<path d="M104.254 119.124C104.254 119.124 110.121 110.374 97.3678 108.591C88.1495 107.302 82.2313 113.081 81.5493 119.331C80.8893 125.324 84.6734 131.546 87.4162 134.016C88.7509 134.482 91.6183 134.732 95.3804 133.079C95.5345 131.446 95.5933 129.806 95.5564 128.167C95.5564 128.167 91.0536 118.995 104.254 119.124Z" fill="#2B2A30"/>
<path d="M198.608 245.498L196.708 244.424L196.078 244.066C196.668 243.94 197.22 243.683 197.691 243.314C197.889 243.292 198.278 244.295 198.608 245.498Z" fill="#38226D"/>
<path d="M197.823 243.894C197.48 244.123 197.104 244.301 196.708 244.424L191.436 241.431C190.35 236.483 187.908 225.299 186.603 219.5C184.901 211.932 184.608 207.564 183.728 202.874C182.665 197.196 180.362 170.697 180.362 170.697L179.452 170.747L177.003 200.655C177.754 202.862 178.27 205.139 178.543 207.45C179.071 211.28 178.338 227.182 178 233.863L172.427 230.712L170.183 229.452C168.386 219.621 165.365 202.645 165.365 199.187C165.365 195.922 165.944 152.833 165.944 152.833L197.808 160.809C197.706 164.189 196.62 178.86 196.144 186.635C195.667 194.411 195.55 203.927 195.55 203.927C195.55 203.927 196.921 209.583 197.808 216.242C198.696 222.901 197.823 243.894 197.823 243.894Z" fill="#37B9C5"/>
<path d="M189.565 95.4741C189.565 95.4741 189.177 102.842 189.345 103.493C189.514 104.145 192.807 106.307 193.745 107.073C194.684 107.839 188.524 113.797 185.525 115.143C182.525 116.489 172.999 112.945 172.83 108.376C172.661 103.808 174.458 99.9849 175.918 99.7844C177.377 99.584 189.565 95.4741 189.565 95.4741Z" fill="#FFCEA9"/>
<path d="M168.855 109.143C168.415 105.899 170.601 102.813 168.474 100.221C161.023 107.381 161.977 126.226 160.282 138.298C154.746 143.947 143.628 149.511 140.482 150.885C139.91 151.143 139.411 151.415 139.528 152.009C139.976 154.365 140.673 155.26 142.117 157.537C149.451 154.437 154.782 152.661 163.971 144.133C164.842 143.211 165.623 142.212 166.303 141.148C168.951 133.451 169.611 114.763 168.855 109.143Z" fill="#FFCEA9"/>
<path d="M190.372 104.768C190.372 104.768 184.894 112.737 177.245 113.481C174.839 111.169 174.619 102.913 177.978 100.278C177.978 100.278 174.913 97.8582 172.845 98.3307C170.593 99.6647 168.916 101.755 168.129 104.209C166.161 109.685 165.224 115.463 165.365 121.264C165.497 129.083 165.365 152.976 165.365 152.976C165.365 152.976 166.443 158.031 173.351 161.79C180.259 165.549 185.4 165.914 190.086 164.847C193.951 163.966 197.148 162.635 198.483 159.892C198.138 154.415 195.63 140.109 196.569 133.221C197.507 126.333 198.996 121.185 199.378 115.615C199.759 110.044 198.644 110.152 195.762 108.169C194.051 106.91 192.25 105.774 190.372 104.768Z" fill="#D1D5DB"/>
<path d="M172.442 84.4834C173.344 78.7554 177.575 74.4594 183.611 74.753C186.045 74.8689 188.379 75.7292 190.285 77.2121C192.191 78.695 193.57 80.7254 194.229 83.0161C194.887 85.3067 194.791 87.7415 193.954 89.976C193.117 92.2104 191.582 94.1313 189.565 95.4668C189.352 96.3345 189.037 97.1753 188.627 97.9728C186.493 100.414 180.024 101.918 178.169 101.66C175.786 101.324 174.502 100.357 173.358 97.8082C171.32 93.3188 171.965 87.3116 172.442 84.4834Z" fill="#FFCEA9"/>
<path d="M189.565 95.4669L189.008 90.455C189.008 90.455 193.188 79.9011 183.317 81.9274C176.805 83.2663 175.169 83.8463 173.182 79.5789C171.195 75.3115 178.191 71.4738 186.492 72.5406C189.351 72.8343 191.992 74.165 193.893 76.2693C195.795 78.3735 196.817 81.0981 196.759 83.9035C196.51 87.0683 195.652 93.4192 189.565 95.4669Z" fill="#50555C"/>
<path d="M161.771 140.052L138.641 127.014L161.771 113.976L184.901 127.014L161.771 140.052Z" fill="#EFDA86"/>
<path opacity="0.4" d="M159.864 134.031C165.332 134.031 169.764 131.626 169.764 128.661C169.764 125.695 165.332 123.291 159.864 123.291C154.396 123.291 149.964 125.695 149.964 128.661C149.964 131.626 154.396 134.031 159.864 134.031Z" fill="#D6D8E5"/>
<path d="M161.331 134.031C166.798 134.031 171.231 131.466 171.231 128.303C171.231 125.139 166.798 122.575 161.331 122.575C155.863 122.575 151.43 125.139 151.43 128.303C151.43 131.466 155.863 134.031 161.331 134.031Z" fill="#D9DCE8"/>
<path d="M151.43 128.303C151.43 128.278 151.43 125.439 151.43 125.439L154.364 126.486L151.43 128.303Z" fill="#D9DCE8"/>
<path d="M171.231 125.439V128.303L167.564 127.51L171.231 125.439Z" fill="#D9DCE8"/>
<path d="M161.331 131.167C166.798 131.167 171.231 128.602 171.231 125.439C171.231 122.275 166.798 119.711 161.331 119.711C155.863 119.711 151.43 122.275 151.43 125.439C151.43 128.602 155.863 131.167 161.331 131.167Z" fill="#EFF1F9"/>
<path d="M154.729 129.735L153.631 129.122L167.933 121.143L169.031 121.755L154.729 129.735Z" fill="#D3D6E2"/>
<path d="M153.631 129.019V131.951L154.274 132.528L154.364 132.599V129.637L153.631 129.019Z" fill="#C5C8D3"/>
<path d="M183.339 153.67L161.771 165.828V141.513L183.339 129.355V153.67Z" fill="#D1B66B"/>
<path d="M161.771 165.828L140.203 153.67V129.355L161.771 141.513V165.828Z" fill="#E2C979"/>
<path opacity="0.1" d="M140.203 129.355V135.713L161.771 147.735V141.534L140.203 129.355Z" fill="black"/>
<path opacity="0.1" d="M183.339 129.355V136.171L161.771 147.735V141.534L183.339 129.355Z" fill="black"/>
<path d="M138.641 127.014V133.758L161.771 146.618V140.052L138.641 127.014Z" fill="#E2C979"/>
<path d="M161.771 146.618L184.901 134.288V127.014L161.771 140.052V146.618Z" fill="#D1B66B"/>
<path d="M201.087 112.329C198.219 111.527 200.405 112.193 198.219 111.527C190.768 118.687 191.7 130.859 190.006 142.966C185.899 149.604 170.63 158.604 170.63 158.604C170.44 159.886 170.902 160.272 172.552 162.9C179.885 159.8 186.067 157.129 195.286 148.58C195.645 148.243 196.18 148.157 196.334 147.692C198.93 139.988 201.842 117.942 201.087 112.329Z" fill="#FFCEA9"/>
<path d="M174.473 158.869C174.106 157.609 173.167 157.917 172.119 158.239C170.973 158.687 169.717 158.791 168.511 158.539C167.513 158.239 166.787 157.394 165.937 156.835C165.442 156.552 164.882 156.397 164.309 156.384C164.36 156.706 164.866 158.59 164.866 158.59C164.866 158.59 159.534 158.64 158.999 158.532C158.816 158.496 158.625 158.517 158.454 158.592C158.283 158.667 158.141 158.792 158.047 158.95C157.953 159.108 157.912 159.291 157.931 159.473C157.949 159.655 158.025 159.827 158.148 159.964C158.031 159.964 157.906 159.964 157.789 159.914C156.696 159.678 156.234 161.346 157.327 161.554C157.62 161.618 157.921 161.647 158.222 161.683C157.488 161.955 157.327 163.115 158.222 163.272L158.5 163.315C158.623 163.365 158.757 163.385 158.889 163.372H159.058C159.034 163.497 159.036 163.625 159.063 163.748C159.091 163.872 159.145 163.989 159.22 164.092C159.295 164.195 159.391 164.282 159.502 164.348C159.613 164.414 159.736 164.457 159.864 164.475C162.468 164.804 166.303 165.821 168.665 163.723C170.299 163.569 171.896 163.148 173.387 162.477C174.898 161.804 174.898 160.38 174.473 158.869Z" fill="#FFCEA9"/>
<path d="M147.837 153.284C147.713 153.284 147.595 153.284 147.471 153.284C147.623 153.177 147.737 153.025 147.797 152.851C147.856 152.677 147.858 152.49 147.802 152.314C147.746 152.139 147.635 151.986 147.485 151.876C147.335 151.766 147.153 151.705 146.965 151.701C146.407 151.701 140.915 150.584 140.915 150.584L140.255 148.379C140.218 148.257 139.301 148.816 139.272 148.845C138.808 149.141 138.418 149.536 138.131 149.999C137.844 150.463 137.668 150.983 137.614 151.522C137.584 152.28 137.707 153.036 137.978 153.746C138.249 154.456 138.661 155.107 139.191 155.661C140.177 156.634 141.508 157.198 142.909 157.236C143.577 157.279 144.215 157.308 144.794 157.351C144.923 157.36 145.053 157.344 145.175 157.303C145.298 157.262 145.41 157.197 145.506 157.112C145.601 157.026 145.678 156.923 145.731 156.808C145.784 156.692 145.812 156.568 145.813 156.441H145.982C146.115 156.468 146.252 156.468 146.385 156.441H146.664C147.595 156.441 147.669 155.31 147.031 154.895C147.331 154.895 147.632 154.952 147.933 154.952C149.055 154.974 148.959 153.277 147.837 153.284Z" fill="#FFCEA9"/>
<path d="M165.746 113.982C165.746 113.982 162.937 113.846 161.771 112.243C161.984 109.507 165.57 99.1112 172.772 98.3379C170.806 99.6802 169.248 101.516 168.261 103.651C166.971 106.78 165.746 113.982 165.746 113.982Z" fill="#ADB3BC"/>
<path d="M202.384 127.716C202.384 127.716 195.197 130.136 190.137 126.069C189.587 125.138 193.071 113.181 193.071 113.181C193.071 113.181 196.085 107.08 200.808 109.508C205.53 111.935 202.384 127.716 202.384 127.716Z" fill="#ADB3BC"/>
</svg>
