<svg width="22" height="21" viewBox="0 0 22 21" fill="none" xmlns="http://www.w3.org/2000/svg">
<path fill-rule="evenodd" clip-rule="evenodd" d="M11.0134 13.1127C13.8089 13.1127 16.087 10.3831 16.087 7.02448C16.087 3.66582 13.8089 0.936279 11.0134 0.936279C8.21795 0.936279 5.93994 3.66582 5.93994 7.02448C5.93994 10.3831 8.22302 13.1127 11.0134 13.1127ZM11.0136 2.45833C12.9771 2.45833 14.5651 4.48773 14.5651 7.02448C14.5651 9.56123 12.9771 11.5906 11.0136 11.5906C9.05018 11.5906 7.46217 9.56123 7.46217 7.02448C7.46217 4.48773 9.05018 2.45833 11.0136 2.45833Z" fill="#989BA5"/>
<path fill-rule="evenodd" clip-rule="evenodd" d="M15.656 12.6053C15.2357 12.5633 14.8609 12.8699 14.8188 13.2902C14.7768 13.7105 15.0835 14.0853 15.5038 14.1273C17.864 14.4047 19.6925 16.3227 19.8568 18.6935H2.1706C2.35045 16.3296 4.17108 14.4199 6.52367 14.1273C6.94397 14.0853 7.25062 13.7105 7.20859 13.2902C7.16656 12.8699 6.79177 12.5633 6.37146 12.6053C6.31566 12.6053 0.613037 13.2547 0.613037 19.4495C0.613037 19.8698 0.95376 20.2105 1.37406 20.2105H20.6534C21.0737 20.2105 21.4144 19.8698 21.4144 19.4495C21.4144 13.2547 15.7118 12.6053 15.656 12.6053Z" fill="#989BA5"/>
</svg>
