<svg width="312" height="300" viewBox="0 0 312 300" fill="none" xmlns="http://www.w3.org/2000/svg">
<g clip-path="url(#clip0_1_4725)" filter="url(#filter0_d_1_4725)">
<path d="M221.937 292C269.468 292 308 288.474 308 284.124C308 279.774 269.468 276.247 221.937 276.247C174.406 276.247 135.875 279.774 135.875 284.124C135.875 288.474 174.406 292 221.937 292Z" fill="white"/>
<path opacity="0.1" d="M221.937 292C269.468 292 308 288.474 308 284.124C308 279.774 269.468 276.247 221.937 276.247C174.406 276.247 135.875 279.774 135.875 284.124C135.875 288.474 174.406 292 221.937 292Z" fill="#292A2E"/>
<path d="M79.0698 166.996H51.637V174.913H79.0698V166.996Z" fill="#F4F4F4"/>
<path opacity="0.05" d="M58.9153 166.996H55.3208V174.913H58.9153V166.996Z" fill="#292A2E"/>
<path d="M75.5644 168.717H60.6182V173.408H75.5644V168.717Z" fill="white"/>
<path d="M100.951 168.029L75.4614 156.987L72.2666 164.242L97.7564 175.284L100.951 168.029Z" fill="#F4F4F4"/>
<path opacity="0.05" d="M100.951 168.029L75.4614 156.987L72.2666 164.242L97.7564 175.284L100.951 168.029Z" fill="#292A2E"/>
<path d="M97.5282 166.546L94.1882 165.099L90.9934 172.354L94.3334 173.801L97.5282 166.546Z" fill="white"/>
<path d="M91.9113 165.991L78.0239 159.975L76.1307 164.274L90.0181 170.29L91.9113 165.991Z" fill="white"/>
<path opacity="0.05" d="M100.999 267.284H94.1052V271.851H100.999V267.284Z" fill="#292A2E"/>
<path opacity="0.05" d="M30.5162 267.284H23.6223V271.851H30.5162V267.284Z" fill="#292A2E"/>
<path d="M107.319 175.284H17.3032V267.13H107.319V175.284Z" fill="#F4F4F4"/>
<path opacity="0.03" d="M107.319 175.284H17.3032V267.13H107.319V175.284Z" fill="#292A2E"/>
<path d="M124 175.284H33.9844V267.13H124V175.284Z" fill="#F4F4F4"/>
<path opacity="0.05" d="M117.68 267.284H110.786V271.851H117.68V267.284Z" fill="#292A2E"/>
<path opacity="0.05" d="M47.1976 267.284H40.3037V271.851H47.1976V267.284Z" fill="#292A2E"/>
<path opacity="0.7" d="M120.621 179.586H37.3638V197.231H120.621V179.586Z" fill="white"/>
<path opacity="0.7" d="M120.621 201.55H37.3638V219.196H120.621V201.55Z" fill="white"/>
<path opacity="0.7" d="M120.621 223.514H37.3638V241.16H120.621V223.514Z" fill="white"/>
<path opacity="0.05" d="M78.9923 190.878C80.3671 190.878 81.4816 189.772 81.4816 188.409C81.4816 187.045 80.3671 185.94 78.9923 185.94C77.6174 185.94 76.5029 187.045 76.5029 188.409C76.5029 189.772 77.6174 190.878 78.9923 190.878Z" fill="#292A2E"/>
<path opacity="0.05" d="M78.9923 212.842C80.3671 212.842 81.4816 211.737 81.4816 210.373C81.4816 209.009 80.3671 207.904 78.9923 207.904C77.6174 207.904 76.5029 209.009 76.5029 210.373C76.5029 211.737 77.6174 212.842 78.9923 212.842Z" fill="#292A2E"/>
<path opacity="0.05" d="M78.9923 234.807C80.3671 234.807 81.4816 233.701 81.4816 232.338C81.4816 230.974 80.3671 229.869 78.9923 229.869C77.6174 229.869 76.5029 230.974 76.5029 232.338C76.5029 233.701 77.6174 234.807 78.9923 234.807Z" fill="#292A2E"/>
<path opacity="0.7" d="M120.621 245.974H37.3638V263.619H120.621V245.974Z" fill="white"/>
<path opacity="0.05" d="M78.9925 257.266C80.3673 257.266 81.4818 256.16 81.4818 254.797C81.4818 253.433 80.3673 252.328 78.9925 252.328C77.6177 252.328 76.5032 253.433 76.5032 254.797C76.5032 256.16 77.6177 257.266 78.9925 257.266Z" fill="#292A2E"/>
<path d="M49.257 84.123H102.484L102.484 15.4091H49.257L49.257 84.123Z" fill="#F4F4F4"/>
<path d="M49.2572 15.4092H47.5305V84.1231H49.2572V15.4092Z" fill="#F4F4F4"/>
<path opacity="0.05" d="M49.2572 15.4092H47.5305V84.1231H49.2572V15.4092Z" fill="#292A2E"/>
<path opacity="0.05" d="M58.9533 71.606H92.7878V27.9261L58.9533 27.9261L58.9533 71.606Z" fill="#292A2E"/>
<path opacity="0.03" d="M58.9533 71.606H60.7166L60.7166 27.9261H58.9533L58.9533 71.606Z" fill="#292A2E"/>
<path d="M5.72649 144.592H49.2571L49.2571 101.021H5.72649L5.72649 144.592Z" fill="#F4F4F4"/>
<path opacity="0.05" d="M13.656 136.655H41.3271V108.958H13.656L13.656 136.655Z" fill="#292A2E"/>
<path d="M5.72672 101.021H4V144.592H5.72672V101.021Z" fill="#F4F4F4"/>
<path opacity="0.05" d="M5.72672 101.021H4V144.592H5.72672V101.021Z" fill="#292A2E"/>
<path opacity="0.03" d="M13.6562 136.655H15.4194L15.4194 108.958H13.6562L13.6562 136.655Z" fill="#292A2E"/>
<path d="M271.17 15.2456H160.094V125.412H271.17V15.2456Z" fill="#F4F4F4"/>
<path d="M160.094 15.2456H158.821V125.412H160.094V15.2456Z" fill="#F4F4F4"/>
<path opacity="0.05" d="M160.094 15.2456H158.821V125.412H160.094V15.2456Z" fill="#292A2E"/>
<path opacity="0.05" d="M187.003 91.1596V62.3362H210.808V79.082H247.682V108.732H263.355V125.412H247.682H244.663H165.438V91.1596H187.003Z" fill="#292A2E"/>
<path opacity="0.34" d="M207.752 65.4656H190.417V68.595H207.752V65.4656Z" fill="#FFFFFA"/>
<path opacity="0.34" d="M207.752 71.9507H190.417V75.0802H207.752V71.9507Z" fill="#FFFFFA"/>
<path opacity="0.34" d="M207.752 78.436H190.417V81.5655H207.752V78.436Z" fill="#FFFFFA"/>
<path opacity="0.34" d="M171.707 94.1973H168.511V97.3267H171.707V94.1973Z" fill="#FFFFFA"/>
<path opacity="0.34" d="M171.707 100.682H168.511V103.812H171.707V100.682Z" fill="#FFFFFA"/>
<path opacity="0.34" d="M171.707 107.167H168.511V110.297H171.707V107.167Z" fill="#FFFFFA"/>
<path opacity="0.34" d="M177.618 94.1973H174.422V97.3267H177.618V94.1973Z" fill="#FFFFFA"/>
<path opacity="0.34" d="M177.618 100.682H174.422V103.812H177.618V100.682Z" fill="#FFFFFA"/>
<path opacity="0.34" d="M177.618 107.167H174.422V110.297H177.618V107.167Z" fill="#FFFFFA"/>
<path opacity="0.34" d="M183.369 94.1973H180.174V97.3267H183.369V94.1973Z" fill="#FFFFFA"/>
<path opacity="0.34" d="M183.369 100.682H180.174V103.812H183.369V100.682Z" fill="#FFFFFA"/>
<path opacity="0.34" d="M183.369 107.167H180.174V110.297H183.369V107.167Z" fill="#FFFFFA"/>
<path d="M160.094 69.7109H182.444V15.2454H184.293V69.7109H244.663V15.2454H246.512V69.7109H271.17V71.5441H246.512V125.412H244.663V71.5441H184.293V125.412H182.444V71.5441H160.094V69.7109Z" fill="white"/>
<path d="M275.595 125.279H155.669V128.943H275.595V125.279Z" fill="#F4F4F4"/>
<path opacity="0.1" d="M275.595 125.279H155.669V128.943H275.595V125.279Z" fill="#292A2E"/>
<path opacity="0.1" d="M155.669 125.279H153.938V128.943H155.669V125.279Z" fill="#292A2E"/>
<path opacity="0.1" d="M155.669 125.279H153.938V128.943H155.669V125.279Z" fill="#292A2E"/>
<path d="M252.123 144.152C235.118 144.152 221.333 148.753 221.333 154.429V166.664H282.914V154.429C282.914 148.753 269.128 144.152 252.123 144.152Z" fill="#0E82FD"/>
<path opacity="0.49" d="M252.123 144.152C235.118 144.152 221.333 148.753 221.333 154.429V166.664H282.914V154.429C282.914 148.753 269.128 144.152 252.123 144.152Z" fill="white"/>
<path opacity="0.49" d="M274.526 154.431V166.664H221.332V154.431C221.332 149.228 232.909 144.929 247.929 144.25C262.95 144.929 274.526 149.228 274.526 154.431Z" fill="white"/>
<path d="M282.914 285.548H283.947L282.914 165.579L281.889 166.604L282.62 250.405L246.141 251.02L245.405 166.595L244.38 166.604L245.117 251.038L223.096 251.409L222.357 166.595L221.332 165.588L222.365 285.548L223.381 285.539L223.105 252.425L245.125 252.054L245.405 285.548L246.43 285.539L246.15 252.037L282.628 251.422L282.914 285.548Z" fill="#292A2E"/>
<path d="M190.039 267.587C190.039 267.587 188.207 277.001 179.32 277.526C170.433 278.05 172.36 285.072 172.36 285.072H206.322V268.243L190.039 267.587Z" fill="#0E82FD"/>
<path d="M209.415 239.271C209.415 239.271 211.962 248.52 204.221 252.882C196.48 257.243 201.335 262.701 201.335 262.701L231.809 247.831L224.319 232.73L209.415 239.271Z" fill="#0E82FD"/>
<path d="M206.191 245.384L183.229 159.453C181.487 149.96 184.109 145.845 188.15 141.848C195.248 134.825 224.664 119.878 224.664 119.878L259.953 119.782C269.31 119.782 278.509 128.934 278.509 138.214C278.509 147.494 268.996 155.365 259.639 155.365L216.183 159.667L227.963 238.348L206.191 245.384Z" fill="#262626"/>
<path d="M227.963 238.347L223.325 207.371L199.832 221.586L206.191 245.384L227.963 238.347Z" fill="#0C0C0C"/>
<path d="M233.288 137.267C233.288 137.267 218.454 140.546 203.762 155.118C194.854 163.953 195.584 179.941 196.921 210.691L211.513 189.314L227.518 160.685L233.288 137.267Z" fill="#0C0C0C"/>
<path d="M284.652 119.773L260.686 119.661L260.677 119.974H253.42C253.42 119.974 235.242 136.563 220.608 147.017C209.963 154.621 203.469 161.87 202.907 169.771C201.537 189.031 186.088 271.174 186.088 271.174L209.339 274.666L229.744 176.499C229.744 176.499 261.648 161.91 269.028 156.834C275.977 152.054 280.886 150.206 283.186 144.989C287.157 135.978 284.652 119.773 284.652 119.773Z" fill="#262626"/>
<path d="M257.765 125.76L218.887 126.271L240.696 139.189L258.843 129.895C259.28 129.662 259.626 129.291 259.825 128.84C260.024 128.389 260.064 127.885 259.94 127.408C259.816 126.932 259.534 126.51 259.14 126.211C258.745 125.912 258.261 125.753 257.765 125.76Z" fill="#292A2E"/>
<path opacity="0.2" d="M257.765 125.76L218.887 126.271L240.696 139.189L258.843 129.895C259.28 129.662 259.626 129.291 259.825 128.84C260.024 128.389 260.064 127.885 259.94 127.408C259.816 126.932 259.534 126.51 259.14 126.211C258.745 125.912 258.261 125.753 257.765 125.76Z" fill="white"/>
<path d="M219.109 56.582L208.112 91.9215L186.086 120.524L198.953 135.173L225.157 106.165C226.365 105.219 227.309 103.983 227.901 102.575L228.309 101.595L243.446 65.272L219.109 56.582Z" fill="#0E82FD"/>
<path d="M236.05 19.07C236.05 19.07 231.618 15.7505 230.521 8.11566C229.67 2.2039 235.169 6.03386 235.169 6.03386C235.169 6.03386 234.598 1.77101 237.73 2.19408C240.862 2.61715 242.614 7.09508 242.614 7.09508" fill="#0C0C0C"/>
<path d="M253.915 2.69312C253.915 2.69312 269.452 4.34507 263.835 25.2267L262.461 25.3182L259.67 25.5038" fill="#0C0C0C"/>
<path d="M238.652 47.0346C238.72 47.0258 239.478 59.4996 254.088 58.4133C264.205 57.6617 267.811 47.017 268.043 47.017C266.952 46.787 265.604 46.4381 265.069 46.3185C263.901 46.0498 262.844 45.4349 262.038 44.5556C261.231 43.6763 260.714 42.5743 260.554 41.3962C260.258 39.628 260.759 30.5814 260.606 28.7922L245.08 32.2296C245.297 36.0084 246.815 44.7682 241.494 46.3185C240.607 46.5746 239.653 46.8117 238.652 47.0346Z" fill="#FFCEA9"/>
<path opacity="0.52" d="M244.862 42.7386C245.105 41.9611 245.262 41.1595 245.329 40.3482C245.5 38.4969 245.465 36.6326 245.227 34.7887C248.383 34.3669 251.357 33.0754 253.81 31.061C254.098 32.1172 255.684 36.732 255.244 37.7339C254.415 39.6308 250.515 42.7386 244.862 42.7386Z" fill="#0C0C0C"/>
<path d="M248.067 40.2695C254.193 39.7245 261.525 35.8857 261.631 27.6381L261.726 20.1964C261.832 11.9491 257.55 5.20815 249.721 5.10924C241.891 5.01067 235.953 11.6226 235.847 19.8702L235.805 23.1646C235.811 24.2961 235.894 25.4258 236.054 26.5461C236.456 29.5099 237.079 34.016 239.107 37.0642C241.021 39.942 244.153 40.6174 248.067 40.2695Z" fill="#FFCEA9"/>
<path opacity="0.52" d="M245.225 32.7308C243.96 32.7876 242.7 32.5489 241.546 32.034C241.499 32.0129 241.462 31.9743 241.443 31.9265C241.425 31.8787 241.425 31.8256 241.446 31.7784C241.466 31.7312 241.504 31.6938 241.552 31.6742C241.6 31.6545 241.653 31.6542 241.701 31.6733C244.188 32.725 246.446 32.5712 248.23 31.2282C248.266 31.2 248.304 31.1736 248.342 31.1493C248.387 31.1283 248.439 31.1249 248.486 31.1396C248.533 31.1544 248.573 31.1862 248.598 31.2288C248.623 31.2715 248.63 31.3218 248.62 31.3698C248.609 31.4178 248.58 31.46 248.539 31.488C248.525 31.4968 248.502 31.5148 248.471 31.5391C247.533 32.2481 246.402 32.663 245.225 32.7308Z" fill="#0C0C0C"/>
<path opacity="0.52" d="M245.283 34.5888C245.054 34.6028 244.825 34.5973 244.598 34.5725C244.572 34.5698 244.547 34.5621 244.524 34.5498C244.501 34.5375 244.481 34.5209 244.465 34.5009C244.448 34.4809 244.436 34.4579 244.429 34.4332C244.422 34.4086 244.419 34.3827 244.422 34.3571C244.425 34.3315 244.433 34.3067 244.445 34.2842C244.457 34.2616 244.474 34.2416 244.494 34.2254C244.514 34.2093 244.538 34.1972 244.562 34.1899C244.587 34.1826 244.613 34.1803 244.639 34.183C246.007 34.327 246.661 33.7054 246.688 33.6786C246.725 33.6419 246.776 33.6212 246.828 33.6211C246.88 33.621 246.931 33.6416 246.968 33.6783C247.005 33.715 247.026 33.7648 247.026 33.8168C247.026 33.8687 247.005 33.9186 246.968 33.9554C246.497 34.3533 245.901 34.5771 245.283 34.5888Z" fill="#0C0C0C"/>
<path d="M238.433 24.7505C238.966 24.7505 239.397 24.3223 239.397 23.794C239.397 23.2657 238.966 22.8374 238.433 22.8374C237.9 22.8374 237.469 23.2657 237.469 23.794C237.469 24.3223 237.9 24.7505 238.433 24.7505Z" fill="#0C0C0C"/>
<path d="M247.855 24.1641C248.388 24.1641 248.82 23.7358 248.82 23.2075C248.82 22.6792 248.388 22.251 247.855 22.251C247.322 22.251 246.891 22.6792 246.891 23.2075C246.891 23.7358 247.322 24.1641 247.855 24.1641Z" fill="#0C0C0C"/>
<path d="M261.112 30.1463C263.492 30.1764 265.453 27.6759 265.484 25.3161C265.515 22.9562 263.601 21.6304 261.222 21.6006L259.976 23.1662L259.067 30.1205L261.112 30.1463Z" fill="#FFCEA9"/>
<path d="M258.745 26.3527C258.745 26.3527 257.942 14.6827 254.373 13.9619C251.997 13.4819 246.235 16.8251 240.897 15.8154C238.562 15.375 236.345 15.9468 236.12 17.0409C236.03 17.4741 234.576 11.2487 238.233 6.52551C241.144 2.76567 250.671 1.70207 255.006 2.93503C267.008 6.35005 261.712 22.1126 261.712 22.1126L261.177 26.136L258.745 26.3527Z" fill="#0C0C0C"/>
<g opacity="0.52">
<path d="M243.786 29.9772C243.781 29.9775 243.776 29.9775 243.771 29.9772C243.004 29.9697 241.719 29.8718 241.724 29.3031C241.73 28.8316 243.082 23.7565 243.236 23.1793C243.25 23.1296 243.282 23.0872 243.327 23.0614C243.372 23.0356 243.425 23.0285 243.475 23.0416C243.525 23.0548 243.568 23.0871 243.594 23.1316C243.62 23.176 243.627 23.2289 243.614 23.2786C243.013 25.5263 242.118 28.9867 242.115 29.3078C242.189 29.4433 242.981 29.5829 243.775 29.591C243.825 29.5921 243.872 29.6122 243.908 29.6472C243.944 29.6821 243.964 29.7293 243.966 29.779C243.967 29.8286 243.949 29.8769 243.916 29.9139C243.883 29.951 243.836 29.9738 243.786 29.9778V29.9772Z" fill="#0C0C0C"/>
</g>
<path d="M241.171 18.6074C240.365 18.3874 239.514 18.3874 238.708 18.6074C238.312 18.7129 237.935 18.8769 237.588 19.0938C237.245 19.3061 236.931 19.5606 236.652 19.8512C236.601 19.9029 236.572 19.9723 236.571 20.0449C236.57 20.1175 236.597 20.1878 236.647 20.241C236.696 20.2942 236.765 20.3263 236.838 20.3307C236.911 20.3351 236.983 20.3113 237.039 20.2644L237.056 20.2495C237.314 20.0127 237.601 19.809 237.91 19.6435C238.213 19.4787 238.54 19.3604 238.879 19.2926C239.546 19.1539 240.239 19.1923 240.886 19.404L240.913 19.4135C241.019 19.4474 241.134 19.439 241.234 19.39C241.334 19.341 241.41 19.2553 241.447 19.1512C241.484 19.0471 241.479 18.9327 241.433 18.8324C241.386 18.7321 241.302 18.6538 241.198 18.6141L241.171 18.6074Z" fill="#0C0C0C"/>
<path d="M246.876 19.0874C247.49 18.7919 248.171 18.6623 248.851 18.7118C249.196 18.734 249.535 18.808 249.858 18.9313C250.186 19.0547 250.497 19.2186 250.784 19.419L250.803 19.4312C250.864 19.4706 250.939 19.4849 251.011 19.471C251.083 19.4572 251.147 19.4163 251.189 19.3569C251.232 19.2976 251.249 19.2243 251.238 19.1523C251.227 19.0804 251.189 19.0154 251.131 18.9709C250.816 18.7197 250.47 18.5091 250.102 18.3439C249.729 18.1748 249.333 18.0622 248.926 18.0099C248.098 17.898 247.255 18.01 246.486 18.3341C246.434 18.3563 246.388 18.3884 246.349 18.4285C246.31 18.4687 246.279 18.516 246.258 18.5679C246.238 18.6198 246.228 18.6752 246.229 18.731C246.23 18.7868 246.242 18.8418 246.264 18.893C246.309 18.9963 246.394 19.0775 246.5 19.1188C246.552 19.1393 246.608 19.1493 246.664 19.1483C246.72 19.1473 246.776 19.1354 246.828 19.1131L246.851 19.102L246.876 19.0874Z" fill="#0C0C0C"/>
<path d="M246.486 6.57855C247.027 4.00756 246.039 1.62751 244.277 1.26256C242.516 0.897609 240.649 2.68596 240.108 5.25694C239.566 7.82792 240.555 10.208 242.316 10.5729C244.077 10.9379 245.944 9.14953 246.486 6.57855Z" fill="#0C0C0C"/>
<path d="M220.497 74.4516C220.958 79.8143 224.22 113.273 224.664 119.879H284.625C284.97 113.921 286.517 87.8691 287.823 76.217C289.071 65.0994 290.818 60.0402 289.382 56.5856C286.849 50.4919 278.785 47.7709 273.324 47.0376C269.99 46.5898 264.974 46.269 264.974 46.269C264.974 46.269 264.55 54.789 254.425 55.2632C240.641 55.9068 241.562 46.269 241.493 46.269C239.26 46.269 227.106 47.8797 224.066 49.8443C219.774 52.6191 218.505 56.401 218.455 59.8753C218.398 63.8766 219.976 68.3684 220.497 74.4516Z" fill="#0E82FD"/>
<path d="M223.538 106.693C223.495 106.693 223.454 106.678 223.422 106.649C223.391 106.62 223.371 106.581 223.367 106.539L221.095 80.7687C221.091 80.7239 221.105 80.6795 221.135 80.645C221.164 80.6106 221.205 80.5891 221.25 80.5851C221.273 80.5828 221.296 80.585 221.317 80.5916C221.339 80.5982 221.359 80.6089 221.376 80.6233C221.393 80.6377 221.407 80.6554 221.418 80.6753C221.428 80.6952 221.434 80.7169 221.436 80.7392L223.707 106.509C223.711 106.554 223.697 106.598 223.668 106.633C223.639 106.667 223.597 106.689 223.552 106.693C223.547 106.693 223.543 106.693 223.538 106.693Z" fill="#0C0C0C"/>
<path d="M227.886 121.662L236.119 115.037L234.733 115.426C234.284 115.542 233.806 115.485 233.397 115.266C232.988 115.046 232.679 114.681 232.531 114.244C232.462 114.016 232.441 113.776 232.469 113.54C232.498 113.303 232.574 113.075 232.694 112.869C232.814 112.663 232.975 112.483 233.167 112.34C233.359 112.198 233.579 112.096 233.812 112.04L251.109 107.868L252.597 113.332C253.06 115.029 253 116.824 252.427 118.488C251.854 120.151 250.794 121.607 249.381 122.669L242.972 127.466C242.644 127.721 242.237 127.856 241.82 127.848C241.403 127.841 241.002 127.69 240.684 127.423C240.401 127.175 240.206 126.844 240.127 126.478C240.048 126.112 240.089 125.731 240.244 125.39C240.216 125.382 240.191 125.367 240.172 125.346C240.155 125.325 240.143 125.301 240.137 125.274C240.132 125.248 240.133 125.221 240.141 125.195L238.96 126.082C238.595 126.368 238.135 126.506 237.671 126.468C237.208 126.429 236.777 126.218 236.465 125.877C236.196 125.562 236.049 125.163 236.047 124.751C236.046 124.339 236.192 123.939 236.458 123.623C236.44 123.62 236.422 123.614 236.405 123.605L235.92 123.969C235.592 124.225 235.185 124.36 234.768 124.352C234.351 124.344 233.95 124.193 233.632 123.926C233.29 123.625 233.078 123.205 233.042 122.753C233.005 122.301 233.146 121.852 233.436 121.501C233.429 121.491 233.423 121.481 233.419 121.469L229.99 124.228C229.82 124.365 229.625 124.467 229.415 124.529C229.205 124.591 228.985 124.611 228.767 124.589C228.55 124.566 228.339 124.501 228.146 124.398C227.954 124.295 227.784 124.155 227.646 123.986C227.508 123.817 227.405 123.624 227.342 123.415C227.28 123.207 227.26 122.989 227.282 122.773C227.305 122.557 227.37 122.348 227.475 122.157C227.579 121.966 227.72 121.798 227.89 121.661L227.886 121.662Z" fill="#FFCEA9"/>
<path opacity="0.2" d="M233.624 121.568C233.642 121.562 233.659 121.552 233.674 121.54L236.973 118.822C236.99 118.808 237.003 118.791 237.014 118.772C237.024 118.753 237.03 118.732 237.032 118.71C237.034 118.689 237.032 118.667 237.025 118.646C237.019 118.626 237.008 118.606 236.994 118.59C236.98 118.573 236.963 118.559 236.944 118.549C236.924 118.539 236.903 118.533 236.882 118.531C236.86 118.529 236.838 118.532 236.817 118.538C236.796 118.544 236.777 118.555 236.76 118.569L233.462 121.287C233.432 121.311 233.411 121.346 233.404 121.384C233.398 121.422 233.404 121.461 233.424 121.495C233.443 121.528 233.474 121.554 233.51 121.568C233.547 121.581 233.587 121.581 233.624 121.568Z" fill="#0A0A0A"/>
<path opacity="0.2" d="M236.531 123.621C236.549 123.615 236.566 123.605 236.58 123.594L239.19 121.477C239.224 121.45 239.245 121.41 239.25 121.366C239.254 121.323 239.241 121.279 239.213 121.246C239.185 121.212 239.145 121.19 239.101 121.186C239.057 121.182 239.014 121.195 238.98 121.222L236.37 123.339C236.34 123.363 236.319 123.398 236.312 123.436C236.304 123.474 236.311 123.513 236.33 123.547C236.35 123.581 236.38 123.607 236.417 123.621C236.454 123.634 236.494 123.634 236.531 123.621Z" fill="#0A0A0A"/>
<path opacity="0.2" d="M240.351 125.396C240.37 125.389 240.388 125.378 240.403 125.365L241.612 124.337C241.628 124.323 241.642 124.306 241.652 124.287C241.662 124.268 241.667 124.247 241.669 124.225C241.671 124.204 241.668 124.182 241.661 124.161C241.655 124.141 241.644 124.122 241.63 124.105C241.616 124.089 241.598 124.076 241.579 124.066C241.559 124.056 241.538 124.05 241.517 124.049C241.495 124.047 241.473 124.05 241.452 124.056C241.432 124.063 241.412 124.074 241.396 124.088L240.187 125.116C240.158 125.141 240.138 125.175 240.132 125.213C240.125 125.251 240.132 125.29 240.152 125.323C240.171 125.356 240.202 125.382 240.238 125.395C240.275 125.408 240.314 125.408 240.351 125.396Z" fill="#0A0A0A"/>
<path d="M300.654 105.435L300.591 105.157L289.646 57.1455L267.994 62.0001L276.536 99.4762L242.317 107.816L246.528 126.967L292.129 118.34C292.232 118.32 292.384 118.29 292.488 118.266C293.873 117.956 295.184 117.377 296.344 116.564C297.504 115.751 298.492 114.72 299.25 113.528C300.008 112.337 300.523 111.009 300.764 109.62C301.004 108.231 300.967 106.809 300.654 105.435Z" fill="#0E82FD"/>
<path d="M242.149 107.852C242.14 107.809 242.148 107.764 242.172 107.727C242.195 107.69 242.233 107.663 242.275 107.653L276.343 99.3541L270.804 75.0893C270.797 75.0672 270.796 75.0441 270.799 75.0213C270.802 74.9986 270.809 74.9767 270.821 74.9569C270.833 74.9372 270.849 74.9201 270.868 74.9066C270.886 74.8931 270.908 74.8835 270.93 74.8785C270.953 74.8734 270.976 74.8729 270.999 74.8771C271.022 74.8812 271.043 74.8899 271.063 74.9026C271.082 74.9154 271.098 74.9318 271.111 74.951C271.124 74.9703 271.132 74.9918 271.136 75.0144L276.712 99.4415C276.723 99.485 276.715 99.5307 276.692 99.5688C276.668 99.6069 276.631 99.6342 276.587 99.6448L242.517 107.944C242.517 107.944 242.745 108.931 242.81 109.265C242.815 109.308 242.803 109.352 242.775 109.386C242.748 109.42 242.708 109.442 242.664 109.447C242.62 109.452 242.576 109.44 242.542 109.413C242.507 109.385 242.485 109.346 242.48 109.302C242.402 108.937 242.149 107.852 242.149 107.852Z" fill="#0C0C0C"/>
<path d="M243.485 134.594L230.328 94.4816C230.096 93.7766 229.646 93.1624 229.042 92.7267C228.437 92.2911 227.709 92.0566 226.961 92.0566H173.359C172.8 92.0566 172.249 92.1878 171.751 92.4394C171.254 92.691 170.823 93.056 170.495 93.5044C170.166 93.9528 169.95 94.4719 169.862 95.0193C169.775 95.5667 169.82 96.1268 169.993 96.6538L183.15 136.767C183.381 137.471 183.831 138.086 184.436 138.521C185.041 138.957 185.769 139.191 186.516 139.191H240.118C240.677 139.191 241.228 139.06 241.726 138.809C242.223 138.557 242.654 138.192 242.982 137.744C243.311 137.295 243.527 136.776 243.615 136.229C243.702 135.681 243.657 135.121 243.485 134.594Z" fill="#292A2E"/>
<path opacity="0.2" d="M243.485 134.594L230.328 94.4816C230.096 93.7766 229.646 93.1624 229.042 92.7267C228.437 92.2911 227.709 92.0566 226.961 92.0566H173.359C172.8 92.0566 172.249 92.1878 171.751 92.4394C171.254 92.691 170.823 93.056 170.495 93.5044C170.166 93.9528 169.95 94.4719 169.862 95.0193C169.775 95.5667 169.82 96.1268 169.993 96.6538L183.15 136.767C183.381 137.471 183.831 138.086 184.436 138.521C185.041 138.957 185.769 139.191 186.516 139.191H240.118C240.677 139.191 241.228 139.06 241.726 138.809C242.223 138.557 242.654 138.192 242.982 137.744C243.311 137.295 243.527 136.776 243.615 136.229C243.702 135.681 243.657 135.121 243.485 134.594Z" fill="white"/>
<path d="M205.194 121.2C208.299 121.2 210.816 118.703 210.816 115.624C210.816 112.545 208.299 110.048 205.194 110.048C202.09 110.048 199.573 112.545 199.573 115.624C199.573 118.703 202.09 121.2 205.194 121.2Z" fill="white"/>
<path d="M152.272 4.23877H45.8849C40.9562 4.23877 36.9607 8.20159 36.9607 13.09V141.185C36.9607 146.074 40.9562 150.037 45.8849 150.037H152.272C157.201 150.037 161.196 146.074 161.196 141.185V13.09C161.196 8.20159 157.201 4.23877 152.272 4.23877Z" fill="#292A2E"/>
<path d="M156.204 0.338623H49.817C44.8883 0.338623 40.8928 4.30144 40.8928 9.18983V137.285C40.8928 142.174 44.8883 146.136 49.817 146.136H156.204C161.133 146.136 165.129 142.174 165.129 137.285V9.18983C165.129 4.30144 161.133 0.338623 156.204 0.338623Z" fill="white"/>
<path d="M156.204 146.475H49.817C47.3603 146.473 45.0051 145.503 43.268 143.78C41.5309 142.058 40.5539 139.722 40.5513 137.285V9.18993C40.554 6.75343 41.5311 4.4175 43.2681 2.69464C45.0052 0.971775 47.3604 0.00268969 49.817 0L156.204 0C158.661 0.00277933 161.016 0.971905 162.753 2.69476C164.49 4.41761 165.467 6.75349 165.47 9.18993V137.285C165.467 139.721 164.49 142.057 162.753 143.78C161.016 145.503 158.661 146.472 156.204 146.475ZM49.817 0.677449C47.5415 0.679959 45.3599 1.57761 43.7509 3.17347C42.1419 4.76933 41.2368 6.93305 41.2343 9.18993V137.285C41.2368 139.542 42.1419 141.706 43.7509 143.301C45.3599 144.897 47.5415 145.795 49.817 145.797H156.204C158.48 145.795 160.661 144.897 162.27 143.301C163.879 141.706 164.784 139.542 164.787 137.285V9.18993C164.784 6.93308 163.879 4.76936 162.27 3.17349C160.661 1.57762 158.48 0.679959 156.204 0.677449H49.817Z" fill="#292A2E"/>
<path d="M39.4599 164.465C51.6967 164.465 61.6166 154.627 61.6166 142.49C61.6166 130.353 51.6967 120.515 39.4599 120.515C27.2231 120.515 17.3032 130.353 17.3032 142.49C17.3032 154.627 27.2231 164.465 39.4599 164.465Z" fill="#292A2E"/>
<path d="M34.8603 139.622C34.5686 139.622 34.2889 139.507 34.0826 139.303C33.8763 139.098 33.7603 138.821 33.7603 138.531V133.25C33.7603 130.33 36.3172 127.954 39.4599 127.954C42.6025 127.954 45.1594 130.33 45.1594 133.25V138.169C45.162 138.314 45.1355 138.458 45.0814 138.592C45.0272 138.727 44.9466 138.85 44.8442 138.953C44.7419 139.056 44.6197 139.138 44.485 139.194C44.3503 139.25 44.2057 139.279 44.0596 139.279C43.9135 139.279 43.7689 139.25 43.6342 139.194C43.4994 139.138 43.3773 139.056 43.2749 138.953C43.1725 138.85 43.0919 138.727 43.0378 138.592C42.9837 138.458 42.9572 138.314 42.9597 138.169V133.25C42.9597 131.533 41.3887 130.136 39.4599 130.136C37.531 130.136 35.96 131.533 35.96 133.25V138.532C35.9598 138.821 35.8439 139.099 35.6376 139.303C35.4314 139.507 35.1518 139.622 34.8603 139.622Z" fill="white"/>
<path d="M46.4767 137.619H32.443C31.6246 137.619 30.9612 138.277 30.9612 139.088V152.199C30.9612 153.011 31.6246 153.669 32.443 153.669H46.4767C47.2951 153.669 47.9585 153.011 47.9585 152.199V139.088C47.9585 138.277 47.2951 137.619 46.4767 137.619Z" fill="white"/>
<path d="M38.0627 144.346C38.0626 144.606 38.1362 144.861 38.2751 145.081C38.414 145.302 38.6126 145.479 38.8482 145.593V147.722C38.8482 147.883 38.9125 148.036 39.0269 148.15C39.1413 148.263 39.2964 148.327 39.4582 148.327C39.62 148.327 39.7751 148.263 39.8895 148.15C40.0039 148.036 40.0681 147.883 40.0681 147.722V145.593C40.2926 145.485 40.4838 145.319 40.6219 145.113C40.7599 144.907 40.8399 144.668 40.8533 144.421C40.8668 144.174 40.8133 143.928 40.6984 143.708C40.5835 143.488 40.4114 143.303 40.2 143.172C39.9885 143.041 39.7455 142.968 39.4961 142.961C39.2467 142.954 39.0001 143.014 38.7818 143.134C38.5635 143.253 38.3815 143.429 38.2548 143.642C38.128 143.855 38.0611 144.098 38.061 144.346H38.0627Z" fill="#292A2E"/>
<path d="M146.914 73.0876H59.1075C57.0115 73.0876 55.3123 74.773 55.3123 76.8519V89.0609C55.3123 91.1398 57.0115 92.8251 59.1075 92.8251H146.914C149.01 92.8251 150.71 91.1398 150.71 89.0609V76.8519C150.71 74.773 149.01 73.0876 146.914 73.0876Z" fill="white"/>
<path d="M146.914 93.1634H59.1075C58.0108 93.1622 56.9593 92.7295 56.1837 91.9603C55.4082 91.1911 54.972 90.1483 54.9707 89.0605V76.8518C54.972 75.764 55.4082 74.7211 56.1837 73.9519C56.9592 73.1826 58.0107 72.7499 59.1075 72.7485H146.914C148.011 72.7498 149.062 73.1825 149.838 73.9518C150.613 74.721 151.05 75.764 151.051 76.8518V89.0605C151.05 90.1483 150.613 91.1913 149.838 91.9605C149.062 92.7296 148.011 93.1623 146.914 93.1634ZM59.1075 73.426C58.1918 73.427 57.3138 73.7882 56.6663 74.4305C56.0188 75.0728 55.6546 75.9436 55.6537 76.8518V89.0605C55.6547 89.9687 56.0189 90.8394 56.6664 91.4816C57.3139 92.1238 58.1918 92.485 59.1075 92.486H146.914C147.83 92.485 148.708 92.1238 149.355 91.4816C150.003 90.8394 150.367 89.9687 150.368 89.0605V76.8518C150.367 75.9435 150.003 75.0727 149.355 74.4305C148.708 73.7882 147.83 73.427 146.914 73.426H59.1075Z" fill="#292A2E"/>
<path d="M146.914 101.294H59.1075C57.0115 101.294 55.3123 102.98 55.3123 105.059V117.268C55.3123 119.347 57.0115 121.032 59.1075 121.032H146.914C149.01 121.032 150.71 119.347 150.71 117.268V105.059C150.71 102.98 149.01 101.294 146.914 101.294Z" fill="white"/>
<path d="M146.914 121.37H59.1075C58.0106 121.369 56.9589 120.936 56.1834 120.167C55.4078 119.398 54.9717 118.354 54.9707 117.266V105.059C54.972 103.971 55.4082 102.928 56.1837 102.159C56.9593 101.39 58.0108 100.957 59.1075 100.956H146.914C148.011 100.957 149.062 101.39 149.838 102.159C150.613 102.928 151.05 103.971 151.051 105.059V117.266C151.05 118.354 150.614 119.398 149.838 120.167C149.063 120.936 148.011 121.369 146.914 121.37ZM59.1075 101.633C58.1918 101.634 57.3139 101.995 56.6664 102.638C56.0189 103.28 55.6547 104.151 55.6537 105.059V117.266C55.6547 118.175 56.0189 119.045 56.6664 119.688C57.3139 120.33 58.1918 120.691 59.1075 120.692H146.914C147.83 120.691 148.708 120.33 149.355 119.688C150.003 119.045 150.367 118.175 150.368 117.266V105.059C150.367 104.151 150.003 103.28 149.355 102.638C148.708 101.995 147.83 101.634 146.914 101.633H59.1075Z" fill="#292A2E"/>
<path d="M103.011 58.4062C114.27 58.4062 123.397 49.3535 123.397 38.1864C123.397 27.0193 114.27 17.9666 103.011 17.9666C91.7514 17.9666 82.624 27.0193 82.624 38.1864C82.624 49.3535 91.7514 58.4062 103.011 58.4062Z" fill="white"/>
<path d="M103.011 58.745C98.9109 58.745 94.9034 57.5393 91.4947 55.2803C88.0859 53.0213 85.4292 49.8105 83.8603 46.0539C82.2914 42.2973 81.881 38.1637 82.6808 34.1757C83.4806 30.1877 85.4547 26.5246 88.3536 23.6494C91.2525 20.7742 94.9459 18.8162 98.9667 18.023C102.988 17.2297 107.155 17.6368 110.943 19.1929C114.73 20.7489 117.968 23.3839 120.245 26.7648C122.523 30.1456 123.739 34.1204 123.739 38.1865C123.733 43.6371 121.547 48.8627 117.661 52.7168C113.775 56.571 108.506 58.7389 103.011 58.745ZM103.011 18.3054C99.046 18.3054 95.1705 19.4714 91.8741 21.656C88.5777 23.8405 86.0085 26.9455 84.4914 30.5783C82.9742 34.2111 82.5772 38.2085 83.3507 42.0651C84.1241 45.9216 86.0332 49.4641 88.8366 52.2445C91.6399 55.0249 95.2116 56.9184 99.1 57.6856C102.988 58.4527 107.019 58.059 110.681 56.5542C114.344 55.0494 117.475 52.5012 119.677 49.2318C121.88 45.9624 123.056 42.1186 123.056 38.1865C123.05 32.9155 120.936 27.8621 117.178 24.135C113.42 20.4078 108.325 18.3113 103.011 18.3054Z" fill="#292A2E"/>
<path opacity="0.5" d="M122.944 38.1864C122.95 42.8665 121.276 47.3957 118.221 50.9628C116.34 48.7873 114.006 47.0412 111.381 45.8443C108.755 44.6474 105.899 44.028 103.009 44.0285C100.12 44.029 97.2643 44.6495 94.639 45.8473C92.0138 47.0452 89.6808 48.7921 87.8002 50.9682C85.7259 48.5401 84.2733 45.6512 83.5657 42.5471C82.8581 39.4429 82.9165 36.2153 83.7358 33.1383C84.5552 30.0613 86.1113 27.226 88.272 24.8732C90.4327 22.5204 93.1341 20.7196 96.1466 19.624C99.1592 18.5283 102.394 18.1701 105.576 18.5798C108.758 18.9895 111.793 20.155 114.424 21.9772C117.055 23.7994 119.203 26.2245 120.686 29.0465C122.17 31.8685 122.944 35.0039 122.944 38.1864Z" fill="#0E82FD"/>
<path d="M118.221 50.9628C116.35 53.1542 114.021 54.915 111.394 56.1229C108.768 57.3307 105.907 57.9567 103.012 57.9572C100.117 57.9577 97.2564 57.3328 94.6294 56.1258C92.0025 54.9189 89.6721 53.1589 87.8003 50.9683C89.6809 48.7922 92.0139 47.0453 94.6391 45.8474C97.2644 44.6495 100.12 44.0291 103.01 44.0286C105.899 44.028 108.755 44.6475 111.381 45.8444C114.006 47.0413 116.34 48.7874 118.221 50.9628Z" fill="white"/>
<path d="M103.011 40.3397C107.461 40.3397 111.068 36.7618 111.068 32.3482C111.068 27.9346 107.461 24.3567 103.011 24.3567C98.561 24.3567 94.9536 27.9346 94.9536 32.3482C94.9536 36.7618 98.561 40.3397 103.011 40.3397Z" fill="white"/>
<g opacity="0.4">
<path d="M62.7034 113.567C64.0419 113.567 65.1269 112.491 65.1269 111.163C65.1269 109.836 64.0419 108.76 62.7034 108.76C61.365 108.76 60.28 109.836 60.28 111.163C60.28 112.491 61.365 113.567 62.7034 113.567Z" fill="#292A2E"/>
<path d="M70.284 113.567C71.6224 113.567 72.7074 112.491 72.7074 111.163C72.7074 109.836 71.6224 108.76 70.284 108.76C68.9456 108.76 67.8606 109.836 67.8606 111.163C67.8606 112.491 68.9456 113.567 70.284 113.567Z" fill="#292A2E"/>
<path d="M77.8648 113.567C79.2032 113.567 80.2882 112.491 80.2882 111.163C80.2882 109.836 79.2032 108.76 77.8648 108.76C76.5264 108.76 75.4414 109.836 75.4414 111.163C75.4414 112.491 76.5264 113.567 77.8648 113.567Z" fill="#292A2E"/>
<path d="M85.4454 113.567C86.7838 113.567 87.8688 112.491 87.8688 111.163C87.8688 109.836 86.7838 108.76 85.4454 108.76C84.107 108.76 83.022 109.836 83.022 111.163C83.022 112.491 84.107 113.567 85.4454 113.567Z" fill="#292A2E"/>
<path d="M93.0257 113.567C94.3641 113.567 95.4491 112.491 95.4491 111.163C95.4491 109.836 94.3641 108.76 93.0257 108.76C91.6873 108.76 90.6023 109.836 90.6023 111.163C90.6023 112.491 91.6873 113.567 93.0257 113.567Z" fill="#292A2E"/>
<path d="M100.607 113.567C101.945 113.567 103.03 112.491 103.03 111.163C103.03 109.836 101.945 108.76 100.607 108.76C99.2681 108.76 98.1831 109.836 98.1831 111.163C98.1831 112.491 99.2681 113.567 100.607 113.567Z" fill="#292A2E"/>
<path d="M108.187 113.567C109.526 113.567 110.61 112.491 110.61 111.163C110.61 109.836 109.526 108.76 108.187 108.76C106.849 108.76 105.764 109.836 105.764 111.163C105.764 112.491 106.849 113.567 108.187 113.567Z" fill="#292A2E"/>
</g>
<g opacity="0.3">
<path d="M65.1069 82.8115V83.6245H61.9946V82.8115H65.1069Z" fill="black"/>
<path d="M68.9746 82.8115V83.6245H65.8623V82.8115H68.9746Z" fill="black"/>
<path d="M72.842 82.8115V83.6245H69.7297V82.8115H72.842Z" fill="black"/>
<path d="M76.7092 82.8115V83.6245H73.5969V82.8115H76.7092Z" fill="black"/>
<path d="M80.5772 82.8115V83.6245H77.4646V82.8115H80.5772Z" fill="black"/>
<path d="M87.5569 87.3981C86.8646 87.7509 86.0934 87.9233 85.3155 87.8991C83.249 87.8991 81.4973 86.3993 81.4973 83.9997C81.4973 81.4254 83.2995 79.2007 86.0965 79.2007C88.2891 79.2007 89.7634 80.7249 89.7634 82.8125C89.7634 84.6873 88.7047 85.7868 87.5203 85.7868C87.0166 85.7868 86.5504 85.4481 86.588 84.6873H86.5374C86.3745 85.0168 86.1218 85.2945 85.8079 85.4888C85.494 85.6831 85.1316 85.7864 84.7615 85.7868C84.0307 85.7868 83.4006 85.1995 83.4006 84.2124C83.3992 83.8231 83.4755 83.4373 83.6251 83.0772C83.7747 82.7172 83.9946 82.3901 84.2722 82.1148C84.5498 81.8395 84.8796 81.6213 85.2426 81.473C85.6056 81.3246 85.9946 81.2489 86.3872 81.2503C86.8501 81.2436 87.3094 81.333 87.7355 81.5128L87.3069 83.7748C87.118 84.7232 87.2693 85.1636 87.6849 85.1748C88.3277 85.187 89.0459 84.3371 89.0459 82.8877C89.0459 81.0755 87.9496 79.7758 85.9965 79.7758C83.9426 79.7758 82.2162 81.3878 82.2162 83.9249C82.2162 86.0121 83.5898 87.2992 85.4548 87.2992C86.116 87.3145 86.7704 87.1641 87.3574 86.8619L87.5569 87.3981ZM86.8639 81.9992C86.6594 81.9396 86.447 81.9102 86.2338 81.9118C85.1249 81.9118 84.2305 82.949 84.2305 84.1613C84.2305 84.711 84.5078 85.1097 85.0621 85.1097C85.7929 85.1097 86.4606 84.185 86.5989 83.41L86.8639 81.9992Z" fill="black"/>
<path d="M93.7294 82.8115V83.6245H90.6172V82.8115H93.7294Z" fill="black"/>
<path d="M97.5972 82.8115V83.6245H94.4846V82.8115H97.5972Z" fill="black"/>
<path d="M101.465 82.8115V83.6245H98.3523V82.8115H101.465Z" fill="black"/>
</g>
</g>
<defs>
<filter id="filter0_d_1_4725" x="0" y="0" width="312" height="300" filterUnits="userSpaceOnUse" color-interpolation-filters="sRGB">
<feFlood flood-opacity="0" result="BackgroundImageFix"/>
<feColorMatrix in="SourceAlpha" type="matrix" values="0 0 0 0 0 0 0 0 0 0 0 0 0 0 0 0 0 0 127 0" result="hardAlpha"/>
<feOffset dy="4"/>
<feGaussianBlur stdDeviation="2"/>
<feComposite in2="hardAlpha" operator="out"/>
<feColorMatrix type="matrix" values="0 0 0 0 0 0 0 0 0 0 0 0 0 0 0 0 0 0 0.25 0"/>
<feBlend mode="normal" in2="BackgroundImageFix" result="effect1_dropShadow_1_4725"/>
<feBlend mode="normal" in="SourceGraphic" in2="effect1_dropShadow_1_4725" result="shape"/>
</filter>
<clipPath id="clip0_1_4725">
<rect width="304" height="292" fill="white" transform="translate(4)"/>
</clipPath>
</defs>
</svg>
