<svg width="24" height="26" viewBox="0 0 24 26" fill="none" xmlns="http://www.w3.org/2000/svg">
<path fill-rule="evenodd" clip-rule="evenodd" d="M23.2484 23.7448L17.7135 18.2398C21.5917 14.3376 21.7099 8.07356 17.9816 4.02784C14.2533 -0.0178921 8.0005 -0.41081 3.79507 3.13637C-0.41035 6.68356 -1.07725 12.9131 2.28199 17.2701C5.64123 21.6271 11.8355 22.5667 16.3357 19.4019L21.9785 25.0447C22.3325 25.3746 22.8842 25.3648 23.2264 25.0227C23.5686 24.6805 23.5783 24.1288 23.2484 23.7748V23.7448ZM2.09698 11.0516C2.09698 6.41998 5.85166 2.6653 10.4833 2.6653C15.1149 2.6653 18.8696 6.41998 18.8696 11.0516C18.8696 15.6832 15.1149 19.4379 10.4833 19.4379C5.85166 19.4379 2.09698 15.6832 2.09698 11.0516Z" fill="#989BA5"/>
</svg>
