<svg width="316" height="253" viewBox="0 0 316 253" fill="none" xmlns="http://www.w3.org/2000/svg">
<ellipse cx="156.158" cy="137.66" rx="62.9073" ry="62.9239" fill="#0E82FD"/>
<g filter="url(#filter0_d_1_5649)">
<path d="M134.333 142.155L149.804 155.639L177.983 119.682" stroke="white" stroke-width="5.85568" stroke-linecap="round" stroke-linejoin="round"/>
</g>
<rect width="6.29184" height="7.34228" rx="1.17114" transform="matrix(0.98191 -0.189347 0.189251 0.981929 162.812 37.8354)" fill="url(#paint0_linear_1_5649)"/>
<rect width="6.29217" height="7.34189" rx="1.17114" transform="matrix(0.873803 0.486281 -0.486085 0.873912 261.666 194.736)" fill="url(#paint1_linear_1_5649)"/>
<rect width="6.29217" height="7.34189" rx="1.17114" transform="matrix(0.873803 0.486281 -0.486085 0.873912 85.0791 243.386)" fill="url(#paint2_linear_1_5649)"/>
<rect x="120.896" y="58.4602" width="2.90297" height="3.3877" rx="1.17114" fill="url(#paint3_linear_1_5649)"/>
<rect width="5.34656" height="6.23862" rx="1.17114" transform="matrix(0.890958 0.454086 -0.453895 0.891055 257.326 34.4907)" fill="url(#paint4_linear_1_5649)"/>
<rect x="249.06" y="61.8872" width="2.90297" height="3.3877" rx="1.17114" fill="url(#paint5_linear_1_5649)"/>
<rect x="240.494" y="189.155" width="2.90297" height="3.3877" rx="1.17114" fill="url(#paint6_linear_1_5649)"/>
<rect x="263.74" y="140.206" width="2.90297" height="3.3877" rx="1.17114" fill="url(#paint7_linear_1_5649)"/>
<rect x="296.773" y="96.1516" width="2.90297" height="3.3877" rx="1.17114" fill="url(#paint8_linear_1_5649)"/>
<rect x="269.856" y="174.469" width="2.90297" height="3.3877" rx="1.17114" fill="url(#paint9_linear_1_5649)"/>
<rect x="210.078" y="239.109" width="2.90297" height="3.3877" rx="1.17114" fill="url(#paint10_linear_1_5649)"/>
<rect width="4.14534" height="4.83713" rx="1.17114" transform="matrix(0.922838 -0.385187 0.385014 0.922911 87.4214 46.2478)" fill="url(#paint11_linear_1_5649)"/>
<rect width="4.14528" height="4.83721" rx="1.17114" transform="matrix(0.954493 0.298234 -0.298091 0.954538 8.68457 219.078)" fill="url(#paint12_linear_1_5649)"/>
<rect width="1.56987" height="1.83191" rx="0.784933" transform="matrix(0.954493 0.298234 -0.298091 0.954538 74.6606 75.3486)" fill="url(#paint13_linear_1_5649)"/>
<rect width="1.56987" height="1.83191" rx="0.784933" transform="matrix(0.954493 0.298234 -0.298091 0.954538 234.925 85.1377)" fill="url(#paint14_linear_1_5649)"/>
<rect width="1.56987" height="1.83191" rx="0.784933" transform="matrix(0.954493 0.298234 -0.298091 0.954538 299.764 113.283)" fill="url(#paint15_linear_1_5649)"/>
<rect width="1.56987" height="1.83191" rx="0.784933" transform="matrix(0.954493 0.298234 -0.298091 0.954538 87.6467 189.603)" fill="url(#paint16_linear_1_5649)"/>
<rect width="1.56987" height="1.83191" rx="0.784933" transform="matrix(0.954493 0.298234 -0.298091 0.954538 30.6174 17.8333)" fill="url(#paint17_linear_1_5649)"/>
<rect width="2.98104" height="3.47863" rx="1.17114" transform="matrix(0.954493 0.298234 -0.298091 0.954538 42.1172 136.187)" fill="url(#paint18_linear_1_5649)"/>
<rect width="2.98104" height="3.47863" rx="1.17114" transform="matrix(0.954493 0.298234 -0.298091 0.954538 45.9639 180.445)" fill="url(#paint19_linear_1_5649)"/>
<rect width="2.98104" height="3.47863" rx="1.17114" transform="matrix(0.954493 0.298234 -0.298091 0.954538 133.861 223.123)" fill="url(#paint20_linear_1_5649)"/>
<rect width="4.14528" height="4.83721" rx="1.17114" transform="matrix(0.954493 0.298234 -0.298091 0.954538 184.436 16.6099)" fill="url(#paint21_linear_1_5649)"/>
<rect width="5.34038" height="6.2318" rx="1.17114" transform="matrix(0.954493 0.298234 -0.298091 0.954538 57.6177 58.2153)" fill="url(#paint22_linear_1_5649)"/>
<rect width="5.34167" height="6.23031" rx="1.17114" transform="matrix(-0.0462226 -0.998931 0.99893 -0.0462469 155.346 6.05908)" fill="url(#paint23_linear_1_5649)"/>
<rect width="8.23589" height="9.60857" rx="1.17114" transform="matrix(-0.710445 0.703753 -0.703565 -0.710631 13.1948 110.327)" fill="url(#paint24_linear_1_5649)"/>
<rect width="8.23491" height="9.60972" rx="1.17114" transform="matrix(0.979084 -0.203456 0.203353 0.979106 305.335 229.914)" fill="url(#paint25_linear_1_5649)"/>
<defs>
<filter id="filter0_d_1_5649" x="127.891" y="116.754" width="56.5327" height="50.0102" filterUnits="userSpaceOnUse" color-interpolation-filters="sRGB">
<feFlood flood-opacity="0" result="BackgroundImageFix"/>
<feColorMatrix in="SourceAlpha" type="matrix" values="0 0 0 0 0 0 0 0 0 0 0 0 0 0 0 0 0 0 127 0" result="hardAlpha"/>
<feOffset dy="4.68454"/>
<feGaussianBlur stdDeviation="1.7567"/>
<feColorMatrix type="matrix" values="0 0 0 0 0 0 0 0 0 0 0 0 0 0 0 0 0 0 0.15 0"/>
<feBlend mode="normal" in2="BackgroundImageFix" result="effect1_dropShadow_1_5649"/>
<feBlend mode="normal" in="SourceGraphic" in2="effect1_dropShadow_1_5649" result="shape"/>
</filter>
<linearGradient id="paint0_linear_1_5649" x1="3.14592" y1="0" x2="3.14592" y2="7.34228" gradientUnits="userSpaceOnUse">
<stop stop-color="#4157FF"/>
<stop offset="1" stop-color="#A3ADFF"/>
</linearGradient>
<linearGradient id="paint1_linear_1_5649" x1="3.14609" y1="0" x2="3.14609" y2="7.34189" gradientUnits="userSpaceOnUse">
<stop stop-color="#4157FF"/>
<stop offset="1" stop-color="#A3ADFF"/>
</linearGradient>
<linearGradient id="paint2_linear_1_5649" x1="3.14609" y1="0" x2="3.14609" y2="7.34189" gradientUnits="userSpaceOnUse">
<stop stop-color="#4157FF"/>
<stop offset="1" stop-color="#A3ADFF"/>
</linearGradient>
<linearGradient id="paint3_linear_1_5649" x1="122.348" y1="58.4602" x2="122.348" y2="61.8479" gradientUnits="userSpaceOnUse">
<stop stop-color="#4157FF"/>
<stop offset="1" stop-color="#A3ADFF"/>
</linearGradient>
<linearGradient id="paint4_linear_1_5649" x1="2.67328" y1="0" x2="2.67328" y2="6.23862" gradientUnits="userSpaceOnUse">
<stop stop-color="#4157FF"/>
<stop offset="1" stop-color="#A3ADFF"/>
</linearGradient>
<linearGradient id="paint5_linear_1_5649" x1="250.512" y1="61.8872" x2="250.512" y2="65.2749" gradientUnits="userSpaceOnUse">
<stop stop-color="#4157FF"/>
<stop offset="1" stop-color="#A3ADFF"/>
</linearGradient>
<linearGradient id="paint6_linear_1_5649" x1="241.946" y1="189.155" x2="241.946" y2="192.542" gradientUnits="userSpaceOnUse">
<stop stop-color="#4157FF"/>
<stop offset="1" stop-color="#A3ADFF"/>
</linearGradient>
<linearGradient id="paint7_linear_1_5649" x1="265.192" y1="140.206" x2="265.192" y2="143.593" gradientUnits="userSpaceOnUse">
<stop stop-color="#4157FF"/>
<stop offset="1" stop-color="#A3ADFF"/>
</linearGradient>
<linearGradient id="paint8_linear_1_5649" x1="298.224" y1="96.1516" x2="298.224" y2="99.5393" gradientUnits="userSpaceOnUse">
<stop stop-color="#4157FF"/>
<stop offset="1" stop-color="#A3ADFF"/>
</linearGradient>
<linearGradient id="paint9_linear_1_5649" x1="271.308" y1="174.469" x2="271.308" y2="177.857" gradientUnits="userSpaceOnUse">
<stop stop-color="#4157FF"/>
<stop offset="1" stop-color="#A3ADFF"/>
</linearGradient>
<linearGradient id="paint10_linear_1_5649" x1="211.53" y1="239.109" x2="211.53" y2="242.497" gradientUnits="userSpaceOnUse">
<stop stop-color="#4157FF"/>
<stop offset="1" stop-color="#A3ADFF"/>
</linearGradient>
<linearGradient id="paint11_linear_1_5649" x1="2.07267" y1="0" x2="2.07267" y2="4.83713" gradientUnits="userSpaceOnUse">
<stop stop-color="#4157FF"/>
<stop offset="1" stop-color="#A3ADFF"/>
</linearGradient>
<linearGradient id="paint12_linear_1_5649" x1="2.07264" y1="0" x2="2.07264" y2="4.83721" gradientUnits="userSpaceOnUse">
<stop stop-color="#4157FF"/>
<stop offset="1" stop-color="#A3ADFF"/>
</linearGradient>
<linearGradient id="paint13_linear_1_5649" x1="0.784933" y1="0" x2="0.784933" y2="1.83191" gradientUnits="userSpaceOnUse">
<stop stop-color="#4157FF"/>
<stop offset="1" stop-color="#A3ADFF"/>
</linearGradient>
<linearGradient id="paint14_linear_1_5649" x1="0.784933" y1="0" x2="0.784933" y2="1.83191" gradientUnits="userSpaceOnUse">
<stop stop-color="#4157FF"/>
<stop offset="1" stop-color="#A3ADFF"/>
</linearGradient>
<linearGradient id="paint15_linear_1_5649" x1="0.784933" y1="0" x2="0.784933" y2="1.83191" gradientUnits="userSpaceOnUse">
<stop stop-color="#4157FF"/>
<stop offset="1" stop-color="#A3ADFF"/>
</linearGradient>
<linearGradient id="paint16_linear_1_5649" x1="0.784933" y1="0" x2="0.784933" y2="1.83191" gradientUnits="userSpaceOnUse">
<stop stop-color="#4157FF"/>
<stop offset="1" stop-color="#A3ADFF"/>
</linearGradient>
<linearGradient id="paint17_linear_1_5649" x1="0.784933" y1="0" x2="0.784933" y2="1.83191" gradientUnits="userSpaceOnUse">
<stop stop-color="#4157FF"/>
<stop offset="1" stop-color="#A3ADFF"/>
</linearGradient>
<linearGradient id="paint18_linear_1_5649" x1="1.49052" y1="0" x2="1.49052" y2="3.47863" gradientUnits="userSpaceOnUse">
<stop stop-color="#4157FF"/>
<stop offset="1" stop-color="#A3ADFF"/>
</linearGradient>
<linearGradient id="paint19_linear_1_5649" x1="1.49052" y1="0" x2="1.49052" y2="3.47863" gradientUnits="userSpaceOnUse">
<stop stop-color="#4157FF"/>
<stop offset="1" stop-color="#A3ADFF"/>
</linearGradient>
<linearGradient id="paint20_linear_1_5649" x1="1.49052" y1="0" x2="1.49052" y2="3.47863" gradientUnits="userSpaceOnUse">
<stop stop-color="#4157FF"/>
<stop offset="1" stop-color="#A3ADFF"/>
</linearGradient>
<linearGradient id="paint21_linear_1_5649" x1="2.07264" y1="0" x2="2.07264" y2="4.83721" gradientUnits="userSpaceOnUse">
<stop stop-color="#4157FF"/>
<stop offset="1" stop-color="#A3ADFF"/>
</linearGradient>
<linearGradient id="paint22_linear_1_5649" x1="2.67019" y1="0" x2="2.67019" y2="6.2318" gradientUnits="userSpaceOnUse">
<stop stop-color="#4157FF"/>
<stop offset="1" stop-color="#A3ADFF"/>
</linearGradient>
<linearGradient id="paint23_linear_1_5649" x1="2.67083" y1="0" x2="2.67083" y2="6.23031" gradientUnits="userSpaceOnUse">
<stop stop-color="#4157FF"/>
<stop offset="1" stop-color="#A3ADFF"/>
</linearGradient>
<linearGradient id="paint24_linear_1_5649" x1="4.11795" y1="0" x2="4.11795" y2="9.60857" gradientUnits="userSpaceOnUse">
<stop stop-color="#4157FF"/>
<stop offset="1" stop-color="#A3ADFF"/>
</linearGradient>
<linearGradient id="paint25_linear_1_5649" x1="4.11745" y1="0" x2="4.11745" y2="9.60972" gradientUnits="userSpaceOnUse">
<stop stop-color="#4157FF"/>
<stop offset="1" stop-color="#A3ADFF"/>
</linearGradient>
</defs>
</svg>
