<svg width="310" height="174" viewBox="0 0 310 174" fill="none" xmlns="http://www.w3.org/2000/svg">
<path d="M302.102 67.6045L298.816 76.0125L301.146 76.9232L304.432 68.5152L302.102 67.6045Z" fill="#0E82FD"/>
<path d="M96.8098 46.987L94.9463 48.656L100.969 55.3807L102.832 53.7117L96.8098 46.987Z" fill="black"/>
<path d="M124.422 77.0855L117.197 82.4976L118.697 84.5L125.922 79.088L124.422 77.0855Z" fill="#0E82FD"/>
<path d="M207.989 14.9804L206.275 16.8022L212.849 22.9889L214.564 21.1671L207.989 14.9804Z" fill="#0E82FD"/>
<path d="M160.184 16.9923L155.685 24.8188L157.853 26.0656L162.353 18.2391L160.184 16.9923Z" fill="black"/>
<path d="M225.52 83.9223L223.405 85.2573L228.222 92.8917L230.338 91.5567L225.52 83.9223Z" fill="black"/>
<path d="M127.421 121.098L125.184 122.216L129.218 130.292L131.456 129.174L127.421 121.098Z" fill="black"/>
<path d="M94.6802 99.8494L92.0879 108.497L94.4839 109.215L97.0762 100.568L94.6802 99.8494Z" fill="#0E82FD"/>
<path d="M251.281 126.795L243.784 131.823L245.177 133.901L252.675 128.873L251.281 126.795Z" fill="#0E82FD"/>
<path d="M252.404 0.672905L247.905 8.49927L250.074 9.74603L254.573 1.91967L252.404 0.672905Z" fill="black"/>
<path d="M2.32996 64.7011L0 65.6118L3.28641 74.0198L5.61636 73.1091L2.32996 64.7011Z" fill="black"/>
<path d="M244.195 54.314L242.695 56.3164L249.92 61.7284L251.42 59.726L244.195 54.314Z" fill="black"/>
<path d="M41.2391 17.4286L34.6646 23.6152L36.3789 25.4371L42.9535 19.2504L41.2391 17.4286Z" fill="#0E82FD"/>
<path d="M114.06 10.0613L111.891 11.3081L116.39 19.1347L118.559 17.8879L114.06 10.0613Z" fill="#0E82FD"/>
<path d="M25.6004 108.328L20.7827 115.962L22.8983 117.297L27.716 109.663L25.6004 108.328Z" fill="black"/>
<path d="M4.26108 129.241L2.86768 131.32L10.3695 136.348L11.7629 134.269L4.26108 129.241Z" fill="#0E82FD"/>
<path d="M293.684 29.5452L291.516 30.792L296.015 38.6184L298.184 37.3716L293.684 29.5452Z" fill="#0E82FD"/>
<path d="M199.694 50.874L193.671 57.5986L195.535 59.2676L201.558 52.5429L199.694 50.874Z" fill="#0E82FD"/>
<path d="M146.822 126.672L142.788 134.748L145.025 135.866L149.06 127.79L146.822 126.672Z" fill="black"/>
<path d="M179.564 105.424L177.168 106.142L179.761 114.79L182.157 114.071L179.564 105.424Z" fill="#0E82FD"/>
<path d="M180.371 110.359L171.845 103.878C171.657 103.735 171.442 103.633 171.213 103.579C170.984 103.524 170.747 103.518 170.515 103.56C170.284 103.602 170.063 103.692 169.869 103.824C169.674 103.956 169.508 104.127 169.383 104.326C169.164 104.701 169.091 105.144 169.18 105.57C169.269 105.995 169.512 106.373 169.863 106.629L171.692 108.019L163.937 106.288C163.078 106.08 161.891 106.375 161.722 107.354C161.632 107.726 161.671 108.118 161.833 108.465C161.994 108.812 162.269 109.095 162.611 109.266C162.607 109.274 162.604 109.282 162.602 109.29C162.602 109.296 162.602 109.303 162.602 109.309L161.277 108.989C161.032 108.93 160.777 108.926 160.53 108.979C160.283 109.031 160.05 109.137 159.85 109.29C159.649 109.444 159.485 109.64 159.37 109.864C159.255 110.089 159.192 110.336 159.184 110.589C159.18 110.986 159.313 111.373 159.561 111.684C159.808 111.995 160.155 112.212 160.543 112.299L161.105 112.435C161.109 112.453 161.116 112.47 161.125 112.486C160.723 112.482 160.333 112.622 160.024 112.88C159.716 113.138 159.509 113.497 159.441 113.893C159.379 114.329 159.483 114.772 159.734 115.134C159.984 115.496 160.362 115.75 160.791 115.846L162.192 116.185C162.169 116.194 162.148 116.208 162.132 116.227C162.116 116.246 162.104 116.268 162.098 116.292C162.092 116.321 162.095 116.351 162.106 116.379C161.747 116.475 161.43 116.686 161.203 116.981C160.976 117.275 160.851 117.636 160.849 118.008C160.855 118.398 160.992 118.775 161.239 119.078C161.486 119.38 161.828 119.591 162.209 119.675L174.021 122.529C175.673 122.928 177.407 122.824 179.001 122.232C180.594 121.639 181.974 120.584 182.964 119.202C183.818 118.01 184.173 116.533 183.954 115.083C183.736 113.634 182.961 112.327 181.793 111.44L180.371 110.359Z" fill="#FFCEA9"/>
<g opacity="0.2">
<path d="M170.279 111.018C170.269 111.057 170.244 111.092 170.21 111.113C170.175 111.135 170.133 111.142 170.093 111.133L162.72 109.475C162.7 109.471 162.681 109.462 162.664 109.451C162.647 109.439 162.633 109.424 162.622 109.406C162.611 109.389 162.603 109.37 162.6 109.349C162.596 109.329 162.597 109.308 162.601 109.288C162.606 109.268 162.614 109.249 162.626 109.233C162.638 109.216 162.653 109.201 162.67 109.19C162.688 109.179 162.707 109.172 162.727 109.169C162.748 109.165 162.768 109.166 162.788 109.17L170.162 110.827C170.182 110.832 170.201 110.84 170.218 110.852C170.235 110.864 170.249 110.879 170.26 110.897C170.271 110.914 170.278 110.934 170.282 110.954C170.285 110.974 170.285 110.995 170.28 111.015L170.279 111.018Z" fill="#0C0C0C"/>
</g>
<g opacity="0.2">
<path d="M169.639 114.29C169.629 114.33 169.604 114.364 169.568 114.386C169.533 114.407 169.491 114.414 169.451 114.405L161.222 112.557C161.202 112.552 161.183 112.544 161.166 112.532C161.149 112.52 161.135 112.505 161.124 112.487C161.113 112.47 161.106 112.45 161.102 112.43C161.099 112.41 161.099 112.389 161.104 112.369C161.114 112.329 161.14 112.295 161.174 112.273C161.209 112.251 161.251 112.243 161.292 112.251L169.52 114.099C169.541 114.103 169.56 114.112 169.576 114.124C169.593 114.136 169.608 114.151 169.619 114.168C169.63 114.186 169.637 114.205 169.64 114.225C169.644 114.246 169.643 114.266 169.639 114.286V114.29Z" fill="#0C0C0C"/>
</g>
<g opacity="0.2">
<path d="M168.965 117.838C168.956 117.877 168.931 117.912 168.896 117.933C168.861 117.954 168.819 117.961 168.779 117.952L162.215 116.478C162.175 116.469 162.14 116.445 162.118 116.41C162.095 116.374 162.088 116.332 162.097 116.292C162.106 116.251 162.131 116.216 162.166 116.194C162.201 116.172 162.243 116.164 162.284 116.173L168.848 117.647C168.868 117.652 168.887 117.66 168.904 117.672C168.921 117.684 168.935 117.699 168.946 117.716C168.957 117.734 168.965 117.753 168.968 117.774C168.972 117.794 168.971 117.815 168.966 117.835L168.965 117.838Z" fill="#0C0C0C"/>
</g>
<path d="M139.891 65.7786L144.651 56.1846C144.756 55.9738 144.903 55.7871 145.084 55.6364C145.264 55.4856 145.475 55.3742 145.701 55.3091C145.927 55.244 146.164 55.2268 146.397 55.2584C146.631 55.2901 146.855 55.3699 147.055 55.4929C147.419 55.7313 147.681 56.0963 147.791 56.5169C147.9 56.9376 147.85 57.384 147.649 57.7697L146.628 59.827L152.807 54.8322C153.484 54.2646 154.679 54.0016 155.265 54.8034C155.511 55.0972 155.65 55.4656 155.659 55.8486C155.669 56.2315 155.548 56.6064 155.317 56.912C155.324 56.917 155.33 56.9228 155.336 56.9292C155.34 56.9347 155.343 56.9404 155.345 56.9464L156.39 56.0708C156.584 55.9088 156.811 55.7921 157.055 55.7291C157.3 55.6661 157.555 55.6584 157.803 55.7066C158.05 55.7548 158.284 55.8577 158.487 56.0077C158.69 56.1578 158.857 56.3512 158.976 56.5739C159.156 56.9284 159.208 57.3339 159.125 57.7226C159.042 58.1113 158.828 58.4597 158.518 58.7094L158.074 59.0818C158.079 59.0996 158.08 59.1182 158.078 59.1365C158.437 58.9546 158.849 58.9063 159.24 59.0001C159.631 59.0938 159.976 59.3237 160.213 59.6484C160.462 60.0115 160.565 60.4551 160.501 60.8907C160.437 61.3263 160.211 61.7219 159.869 61.9984L158.765 62.923C158.789 62.9209 158.814 62.9247 158.838 62.9342C158.861 62.9436 158.881 62.9585 158.897 62.9775C158.915 63.0011 158.926 63.0294 158.929 63.0591C159.293 62.9857 159.671 63.0341 160.006 63.1969C160.34 63.3597 160.611 63.6278 160.778 63.96C160.946 64.3123 160.991 64.7112 160.904 65.0919C160.817 65.4727 160.605 65.813 160.301 66.0579L150.985 73.8611C149.682 74.9527 148.083 75.6304 146.392 75.807C144.701 75.9837 142.996 75.6514 141.495 74.8526C140.202 74.164 139.227 72.9982 138.779 71.6027C138.331 70.2072 138.445 68.692 139.096 67.379L139.891 65.7786Z" fill="#FFCEA9"/>
<g opacity="0.2">
<path d="M149.225 61.8861C149.252 61.9176 149.289 61.9375 149.33 61.9413C149.371 61.9451 149.412 61.9326 149.444 61.9065L155.315 57.1478C155.347 57.1216 155.367 57.0838 155.372 57.0425C155.376 57.0013 155.364 56.96 155.338 56.9278C155.311 56.8956 155.274 56.875 155.232 56.8707C155.191 56.8664 155.15 56.8787 155.118 56.9048L149.247 61.6635C149.215 61.6896 149.195 61.7272 149.19 61.7682C149.186 61.8092 149.198 61.8502 149.224 61.8824L149.225 61.8861Z" fill="#0C0C0C"/>
</g>
<g opacity="0.2">
<path d="M151.252 64.5335C151.279 64.5649 151.317 64.5847 151.358 64.5884C151.398 64.5922 151.439 64.5796 151.471 64.5535L158.023 59.2429C158.055 59.2168 158.075 59.1791 158.079 59.1381C158.084 59.0971 158.071 59.0561 158.046 59.024C158.019 58.9932 157.981 58.9737 157.941 58.9694C157.9 58.9651 157.859 58.9763 157.827 59.0008L151.273 64.3105C151.241 64.3366 151.221 64.3742 151.216 64.4152C151.212 64.4562 151.224 64.4972 151.25 64.5294L151.252 64.5335Z" fill="#0C0C0C"/>
</g>
<g opacity="0.2">
<path d="M153.431 67.4127C153.458 67.4442 153.496 67.464 153.537 67.4678C153.578 67.4716 153.618 67.4591 153.65 67.433L158.876 63.1968C158.909 63.1707 158.929 63.1329 158.934 63.0916C158.938 63.0503 158.926 63.0091 158.899 62.9768C158.873 62.9446 158.835 62.9241 158.794 62.9198C158.753 62.9155 158.712 62.9277 158.679 62.9539L153.452 67.19C153.42 67.2161 153.4 67.2537 153.395 67.2947C153.391 67.3357 153.403 67.3768 153.429 67.4089L153.431 67.4127Z" fill="#0C0C0C"/>
</g>
<path d="M33.0527 57.5527C33.0527 57.5527 32.3813 67.6265 30.1151 71.2804C23.5903 81.8022 21.7 93.6386 28.2339 99.8229C34.7678 106.007 76.4432 106.093 79.6006 91.8693C82.2586 79.8944 76.5545 78.6067 75.1665 68.7294C74.5386 64.2596 72.8109 54.887 72.8109 54.887" fill="#0A0A0A"/>
<path d="M68.8144 89.7839C68.7425 89.7746 67.9442 103.021 52.5558 101.866C41.9027 101.068 38.1043 89.7646 37.8604 89.7646C39.0089 89.5203 40.943 89.1654 41.453 88.8931C43.1306 87.9918 45.2054 87.0537 45.747 83.796C46.0597 81.9198 45.5297 72.313 45.6926 70.4124L62.0451 74.0635C61.8165 78.0757 60.2173 87.3768 65.8225 89.0228C66.755 89.2958 67.7597 89.5463 68.8144 89.7839Z" fill="#FFCEA9"/>
<path opacity="0.5" d="M62.2745 85.2223C62.0183 84.3968 61.8534 83.5458 61.7826 82.6844C61.6029 80.7188 61.6388 78.7394 61.8895 76.7815C58.5661 76.3329 55.4351 74.961 52.8524 72.8218C52.5488 73.9431 50.8787 78.8432 51.3412 79.9089C52.2145 81.9236 56.3213 85.2223 62.2745 85.2223Z" fill="#0C0C0C"/>
<path d="M60.1599 81.0956C53.7126 81.721 45.371 79.1406 43.643 70.5547L42.0838 62.8078C40.3558 54.2222 43.4644 46.3547 51.5481 44.7277C59.632 43.1016 67.075 48.8444 68.803 57.4303L69.4934 60.86C70.1564 64.1543 71.6626 79.9823 60.1599 81.0956Z" fill="#FFCEA9"/>
<path opacity="0.1" d="M56.0615 69.8445C57.1225 69.7179 57.9073 68.9844 57.8144 68.2062C57.7216 67.4281 56.7862 66.8998 55.7253 67.0264C54.6643 67.153 53.8795 67.8865 53.9723 68.6647C54.0652 69.4429 55.0005 69.9711 56.0615 69.8445Z" fill="#0C0C0C"/>
<path opacity="0.1" d="M67.2725 66.7335C67.3663 67.5105 68.3028 68.0381 69.3638 67.913C69.5472 67.891 69.7277 67.85 69.9026 67.7907C69.952 66.8642 69.9548 65.973 69.9279 65.1477C69.6332 65.074 69.3274 65.0561 69.0261 65.0949C67.9651 65.22 67.1805 65.9533 67.2725 66.7335Z" fill="#0C0C0C"/>
<path opacity="0.5" d="M62.5844 69.1352C62.5896 69.1347 62.5949 69.1338 62.6 69.1327C62.9277 69.0644 63.2513 68.9781 63.5694 68.8741C64.0441 68.7152 64.6638 68.4544 64.5788 68.0251C64.4806 67.536 62.0772 62.5275 61.8045 61.9587C61.7933 61.933 61.7771 61.9098 61.7568 61.8906C61.7364 61.8713 61.7124 61.8564 61.6862 61.8466C61.66 61.8368 61.632 61.8324 61.6041 61.8337C61.5761 61.835 61.5487 61.8419 61.5234 61.854C61.4982 61.8661 61.4756 61.8832 61.4571 61.9042C61.4386 61.9253 61.4246 61.9498 61.4158 61.9764C61.407 62.003 61.4037 62.031 61.406 62.059C61.4083 62.0869 61.4162 62.114 61.4293 62.1388C62.454 64.2717 64.1044 67.7787 64.1707 68.108C64.1188 68.2615 63.3314 68.5614 62.5187 68.7252C62.4918 68.7296 62.4659 68.7392 62.4427 68.7535C62.4194 68.7679 62.3992 68.7867 62.3833 68.8088C62.3673 68.8309 62.3558 68.856 62.3495 68.8826C62.3432 68.9092 62.3422 68.9367 62.3466 68.9637C62.3509 68.9906 62.3605 69.0165 62.3749 69.0397C62.3892 69.0629 62.408 69.0831 62.4301 69.0991C62.4523 69.1151 62.4773 69.1266 62.5039 69.1329C62.5305 69.1392 62.558 69.1402 62.585 69.1358L62.5844 69.1352Z" fill="#0C0C0C"/>
<path d="M35.634 65.5892L42.8812 64.1736C48.3557 61.8843 49.9089 52.3434 49.9089 52.3434C49.9089 52.3434 56.6651 58.7779 72.8125 54.887C72.8125 54.887 69.3049 32.3455 45.462 39.1893C37.7742 41.3954 32.3285 49.2317 33.1384 59.611C33.7059 66.8825 35.634 65.5892 35.634 65.5892Z" fill="#0A0A0A"/>
<path d="M44.6713 73.0694C42.2147 73.5638 39.6943 71.3364 39.199 68.8792C38.7037 66.4219 40.4236 64.6671 42.8802 64.1724L44.4774 65.5639L46.783 72.6438L44.6713 73.0694Z" fill="#FFCEA9"/>
<path d="M63.546 57.9647C64.1606 57.53 64.8794 57.2659 65.6292 57.1992C66.006 57.1631 66.3861 57.1841 66.7565 57.2617C67.1301 57.3378 67.4926 57.4606 67.8357 57.627L67.8463 57.632C67.8843 57.6487 67.9274 57.65 67.9663 57.6354C68.0052 57.6209 68.0369 57.5917 68.0546 57.5541C68.0723 57.5165 68.0745 57.4734 68.0609 57.4342C68.0473 57.3949 68.0189 57.3625 67.9817 57.344C67.6182 57.1521 67.232 57.0067 66.8322 56.9112C66.4296 56.8133 66.0146 56.7765 65.6011 56.802C64.7635 56.8483 63.9536 57.1183 63.2558 57.5838C63.2298 57.6014 63.2075 57.624 63.1902 57.6503C63.173 57.6765 63.161 57.7059 63.1551 57.7368C63.1492 57.7676 63.1495 57.7994 63.1559 57.8301C63.1622 57.8609 63.1746 57.8901 63.1923 57.9161C63.21 57.942 63.2326 57.9643 63.2589 57.9815C63.2852 57.9987 63.3146 58.0106 63.3455 58.0164C63.3764 58.0222 63.4081 58.0219 63.4389 58.0154C63.4696 58.009 63.4988 57.9965 63.5247 57.9787L63.5304 57.975L63.546 57.9647Z" fill="#0C0C0C"/>
<path d="M56.9258 58.8794C56.1028 58.7157 55.251 58.7758 54.4592 59.0536C54.0678 59.1884 53.6989 59.3812 53.3647 59.6255C53.0319 59.8667 52.7308 60.1489 52.4685 60.4655C52.4421 60.4969 52.4288 60.5374 52.4315 60.5785C52.4342 60.6195 52.4527 60.6579 52.4831 60.6856C52.5135 60.7133 52.5535 60.7282 52.5946 60.7271C52.6357 60.7259 52.6748 60.709 52.7037 60.6797L52.7121 60.6709C52.9652 60.3858 53.253 60.1337 53.5689 59.9204C53.8816 59.7072 54.2246 59.5424 54.5865 59.4317C55.3047 59.206 56.0699 59.1747 56.8042 59.341L56.8223 59.3457C56.8839 59.3606 56.9489 59.3504 57.0031 59.3174C57.0572 59.2844 57.096 59.2312 57.1109 59.1696C57.1258 59.108 57.1157 59.043 57.0827 58.9888C57.0496 58.9347 56.9965 58.8959 56.9349 58.881L56.9258 58.8794Z" fill="#0C0C0C"/>
<path d="M42.8858 64.0541C47.7574 62.2404 49.374 58.8763 49.8719 56.3728C50.1941 54.7032 50.1639 52.9847 49.7834 51.3274L49.6326 51.369C50.0075 53.0047 50.0365 54.7006 49.7177 56.3481C49.2261 58.8107 47.6326 62.1209 42.8311 63.908L42.8858 64.0541Z" fill="#0C0C0C"/>
<path d="M81.3474 91.3597L127.605 106.822L114.024 112.859L137.089 65.5405L155.939 74.3256L134.539 122.419C133.457 124.851 131.535 126.813 129.126 127.945C126.717 129.077 123.981 129.305 121.418 128.587L120.958 128.456L74.0005 115.273L81.3474 91.3597Z" fill="#0E82FD"/>
<path d="M52.269 98.5545C41.6083 98.052 41.1596 89.0037 41.1596 89.0037C41.1596 89.0037 35.8774 89.3451 32.3661 89.8201C26.6174 90.5978 22.8249 92.5472 19.8067 95.5651C16.9993 98.3728 15.29 101.41 17.0987 120.804C18.4083 134.846 17.4868 165.732 17.4868 165.732H82.4507C82.4507 165.732 86.987 121.11 87.5249 114.79C88.5512 102.723 91.4509 100.059 85.5758 93.843C81.3153 89.3351 70.3159 89.0037 65.8887 89.0043C65.8165 89.0043 66.7871 99.239 52.269 98.5545Z" fill="#0E82FD"/>
<path d="M64.7458 70.8277C62.6511 71.8928 60.2611 72.2296 57.9536 71.7848C57.8737 71.7699 57.7912 71.7779 57.7157 71.8081C57.6403 71.8382 57.5749 71.8893 57.5273 71.9552C57.4798 72.0211 57.4519 72.0991 57.4471 72.1803C57.4422 72.2614 57.4605 72.3423 57.4999 72.4134C58.1878 73.6254 59.8195 75.6967 62.6188 74.8524C64.4262 74.3071 65.1095 72.4478 65.3628 71.2973C65.3801 71.2178 65.3743 71.1349 65.3462 71.0585C65.3181 70.9821 65.2687 70.9153 65.2039 70.866C65.1391 70.8166 65.0616 70.7868 64.9804 70.7801C64.8993 70.7733 64.8179 70.7898 64.7458 70.8277Z" fill="white"/>
<path d="M64.877 61.5115C65.436 61.5115 65.8892 61.0583 65.8892 60.4993C65.8892 59.9402 65.436 59.4871 64.877 59.4871C64.3179 59.4871 63.8647 59.9402 63.8647 60.4993C63.8647 61.0583 64.3179 61.5115 64.877 61.5115Z" fill="#0C0C0C"/>
<path d="M55.1504 63.2141C55.7094 63.2141 56.1626 62.7609 56.1626 62.2019C56.1626 61.6429 55.7094 61.1897 55.1504 61.1897C54.5914 61.1897 54.1382 61.6429 54.1382 62.2019C54.1382 62.7609 54.5914 63.2141 55.1504 63.2141Z" fill="#0C0C0C"/>
<path d="M87.3802 119.186C87.3737 119.187 87.3671 119.187 87.3605 119.186C87.3194 119.181 87.2821 119.16 87.2567 119.127C87.2312 119.095 87.2198 119.053 87.2248 119.012L88.2308 110.857C88.2329 110.837 88.2392 110.817 88.2492 110.799C88.2592 110.781 88.2727 110.765 88.289 110.753C88.3052 110.74 88.3239 110.731 88.3438 110.725C88.3637 110.72 88.3845 110.719 88.4049 110.722C88.4253 110.724 88.445 110.731 88.4629 110.741C88.4808 110.751 88.4965 110.765 88.5091 110.781C88.5218 110.797 88.5311 110.816 88.5365 110.835C88.542 110.855 88.5435 110.876 88.541 110.896L87.535 119.051C87.53 119.088 87.5116 119.123 87.4831 119.148C87.4546 119.172 87.4181 119.186 87.3802 119.186Z" fill="#0C0C0C"/>
<path d="M251.819 56.2638C251.819 56.2638 247.944 51.9119 248.394 43.762C248.742 37.4517 253.609 42.555 253.609 42.555C253.609 42.555 253.904 38.0136 257.039 39.0949C260.173 40.1762 261.053 45.1838 261.053 45.1838" fill="#0C0C0C"/>
<path d="M273.598 42.9336C273.598 42.9336 289.25 47.8365 279.148 68.3563L277.714 68.1687L274.803 67.7887" fill="#0C0C0C"/>
<path d="M251.332 89.7507C251.404 89.7413 252.199 102.944 267.537 101.793C278.155 100.997 281.941 89.7322 282.184 89.7322C281.039 89.4886 279.111 89.135 278.603 88.8635C276.931 87.9652 274.862 87.0305 274.323 83.7837C274.013 81.9122 274.54 72.3388 274.378 70.4451L258.079 74.0827C258.307 78.0816 259.901 87.3519 254.314 88.9927C253.385 89.2641 252.382 89.5137 251.332 89.7507Z" fill="#FFCEA9"/>
<path opacity="0.52" d="M257.851 85.2043C258.106 84.3814 258.27 83.5331 258.341 82.6745C258.52 80.7154 258.484 78.7424 258.234 76.791C261.547 76.344 264.668 74.9768 267.242 72.8447C267.545 73.9623 269.209 78.8461 268.748 79.9084C267.877 81.9162 263.784 85.2043 257.851 85.2043Z" fill="#0C0C0C"/>
<path d="M259.805 80.7333C266.223 81.4247 274.564 78.9447 276.38 70.4067L278.018 62.7026C279.831 54.1659 276.82 46.2898 268.78 44.5809C260.741 42.872 253.261 48.5163 251.446 57.0543L250.721 60.4649C250.493 61.6403 250.345 62.8299 250.278 64.0254C250.078 67.1836 249.787 71.9883 251.244 75.5681C252.62 78.9478 255.704 80.2915 259.805 80.7333Z" fill="#FFCEA9"/>
<path d="M254.706 61.0637C255.265 61.0637 255.718 60.6106 255.718 60.0515C255.718 59.4925 255.265 59.0393 254.706 59.0393C254.147 59.0393 253.694 59.4925 253.694 60.0515C253.694 60.6106 254.147 61.0637 254.706 61.0637Z" fill="#0C0C0C"/>
<path d="M264.32 62.0759C264.879 62.0759 265.332 61.6228 265.332 61.0637C265.332 60.5047 264.879 60.0515 264.32 60.0515C263.761 60.0515 263.308 60.5047 263.308 61.0637C263.308 61.6228 263.761 62.0759 264.32 62.0759Z" fill="#0C0C0C"/>
<path d="M275.327 72.9017C277.771 73.4211 280.307 71.2284 280.826 68.7852C281.345 66.3421 279.651 64.5741 277.208 64.0547L275.601 65.424L273.227 72.4551L275.327 72.9017Z" fill="#FFCEA9"/>
<path d="M273.677 68.4805C273.677 68.4805 275.265 56.2035 271.741 54.7235C269.396 53.7379 262.771 56.025 257.485 53.882C255.173 52.9439 252.773 53.0846 252.314 54.1738C252.133 54.605 251.923 47.8462 256.665 43.6936C260.439 40.387 270.467 41.2398 274.673 43.4093C286.322 49.416 277.609 64.689 277.609 64.689L276.226 68.7541L273.677 68.4805Z" fill="#0C0C0C"/>
<g opacity="0.52">
<path d="M257.34 69.3589L257.324 69.3564C256.536 69.191 255.233 68.8248 255.356 68.2366C255.459 67.7485 257.901 62.7584 258.18 62.1912C258.204 62.1423 258.246 62.105 258.298 62.0874C258.349 62.0699 258.405 62.0734 258.454 62.0973C258.503 62.1213 258.54 62.1636 258.558 62.215C258.575 62.2665 258.572 62.3228 258.548 62.3716C257.465 64.5811 255.828 67.989 255.757 68.3207C255.806 68.4771 256.592 68.7839 257.408 68.9549C257.459 68.9664 257.504 68.997 257.533 69.0406C257.562 69.0842 257.574 69.1373 257.565 69.1891C257.556 69.2408 257.528 69.2873 257.486 69.3189C257.444 69.3505 257.392 69.3648 257.34 69.3589Z" fill="#0C0C0C"/>
</g>
<path d="M257.158 56.8852C256.384 56.4947 255.519 56.32 254.654 56.3796C254.229 56.4063 253.811 56.4967 253.412 56.6476C253.019 56.795 252.645 56.9917 252.3 57.2329C252.243 57.2696 252.202 57.3275 252.186 57.3941C252.171 57.4607 252.182 57.5306 252.218 57.5888C252.254 57.647 252.311 57.6887 252.378 57.7051C252.444 57.7214 252.514 57.711 252.573 57.676L252.591 57.6657C252.907 57.4697 253.246 57.3142 253.601 57.2029C253.951 57.0911 254.316 57.033 254.683 57.0306C255.409 57.02 256.124 57.2013 256.757 57.5563L256.781 57.5703C256.826 57.5967 256.875 57.6141 256.926 57.6215C256.977 57.6288 257.029 57.626 257.079 57.6131C257.129 57.6003 257.176 57.5777 257.217 57.5467C257.258 57.5156 257.293 57.4767 257.319 57.4322C257.345 57.3877 257.362 57.3385 257.369 57.2874C257.376 57.2363 257.373 57.1843 257.36 57.1344C257.346 57.0845 257.324 57.0377 257.292 56.9967C257.261 56.9557 257.222 56.9213 257.177 56.8955L257.158 56.8852Z" fill="#0C0C0C"/>
<path d="M262.946 58.4497C263.649 58.2693 264.387 58.2778 265.086 58.4744C265.44 58.5713 265.777 58.7211 266.086 58.9187C266.401 59.1176 266.689 59.3552 266.944 59.6258L266.958 59.6398C267.006 59.6866 267.07 59.7129 267.138 59.7133C267.205 59.7137 267.269 59.6882 267.318 59.642C267.367 59.5959 267.396 59.5327 267.399 59.4656C267.403 59.3985 267.38 59.3328 267.336 59.2821C267.065 58.9605 266.754 58.6744 266.412 58.4306C266.065 58.1826 265.684 57.9878 265.28 57.8527C264.46 57.5726 263.579 57.5185 262.731 57.6964C262.681 57.7073 262.633 57.7281 262.591 57.7574C262.549 57.7867 262.513 57.824 262.485 57.8673C262.429 57.9546 262.41 58.0606 262.432 58.162C262.454 58.2634 262.515 58.3518 262.603 58.4079C262.69 58.464 262.796 58.483 262.897 58.4609L262.917 58.4559L262.946 58.4497Z" fill="#0C0C0C"/>
<path d="M256.101 71.2529C258.381 71.8225 260.786 71.6161 262.935 70.6663C263.01 70.6338 263.092 70.6232 263.172 70.6357C263.252 70.6482 263.327 70.6833 263.389 70.7369C263.45 70.7904 263.494 70.8603 263.517 70.9383C263.54 71.0162 263.54 71.0991 263.518 71.1772C263.118 72.5128 261.992 74.8984 259.075 74.7008C257.191 74.5738 256.109 72.9143 255.604 71.8498C255.569 71.776 255.556 71.6938 255.566 71.6127C255.576 71.5317 255.609 71.4553 255.662 71.3926C255.714 71.3298 255.783 71.2833 255.861 71.2586C255.939 71.2338 256.022 71.2318 256.101 71.2529Z" fill="white"/>
<path d="M265.147 45.4425C266.237 42.8853 265.712 40.2122 263.974 39.4721C262.237 38.732 259.945 40.205 258.856 42.7623C257.766 45.3195 258.292 47.9926 260.029 48.7327C261.767 49.4728 264.058 47.9998 265.147 45.4425Z" fill="#0C0C0C"/>
<path d="M267.775 98.5545C278.436 98.052 278.885 89.0037 278.885 89.0037C278.885 89.0037 284.167 89.3451 287.678 89.8201C293.427 90.5978 297.22 92.5472 300.237 95.5651C303.045 98.3728 304.754 101.41 302.945 120.804C301.636 134.846 302.558 165.732 302.558 165.732H237.594C237.594 165.732 233.057 121.111 232.52 114.79C231.493 102.723 228.594 100.059 234.468 93.843C238.729 89.3351 249.728 89.0037 254.156 89.0043C254.227 89.0043 253.258 99.239 267.775 98.5545Z" fill="#0E82FD"/>
<path d="M232.366 96.6377L215.57 132.246L182.447 107.337L169.291 124.832L213.15 157.814C213.543 158.106 213.953 158.373 214.378 158.615C215.631 159.317 217.011 159.765 218.437 159.934C219.864 160.103 221.309 159.99 222.692 159.6C224.075 159.211 225.367 158.552 226.495 157.663C227.624 156.774 228.566 155.671 229.268 154.418L229.458 154.08L255.083 108.341L232.366 96.6377Z" fill="#0E82FD"/>
<path d="M305.05 166.045H9.20772C9.12479 166.045 9.04525 166.012 8.98661 165.953C8.92797 165.895 8.89502 165.815 8.89502 165.732C8.89502 165.649 8.92797 165.57 8.98661 165.511C9.04525 165.453 9.12479 165.42 9.20772 165.42H305.05C305.133 165.42 305.212 165.453 305.271 165.511C305.33 165.57 305.363 165.649 305.363 165.732C305.363 165.815 305.33 165.895 305.271 165.953C305.212 166.012 305.133 166.045 305.05 166.045Z" fill="#292A2E"/>
<path d="M240.702 119.221H82.2812V173.372H240.702V119.221Z" fill="white"/>
<path d="M240.858 173.528H82.125V119.064H240.858V173.528ZM82.4377 173.216H240.546V119.377H82.4377V173.216Z" fill="#0C0C0C"/>
<path d="M74.4588 135.77L84.2379 131.403C84.4528 131.307 84.6853 131.257 84.9207 131.256C85.156 131.254 85.389 131.302 85.6048 131.396C85.8206 131.49 86.0145 131.628 86.1742 131.801C86.3339 131.974 86.4558 132.178 86.5322 132.4C86.6606 132.816 86.6301 133.264 86.4468 133.658C86.2635 134.052 85.9403 134.364 85.54 134.533L83.443 135.471L91.3891 135.553C92.2728 135.547 93.361 136.104 93.3028 137.096C93.3054 137.479 93.178 137.852 92.9416 138.153C92.7051 138.454 92.3734 138.667 92.0007 138.755C92.0029 138.764 92.0042 138.772 92.0045 138.781C92.0036 138.787 92.0022 138.794 92.0004 138.8L93.3632 138.79C93.6154 138.789 93.8648 138.843 94.0932 138.95C94.3216 139.057 94.5233 139.213 94.6836 139.408C94.8439 139.603 94.9588 139.831 95.0199 140.076C95.081 140.32 95.0868 140.575 95.0368 140.823C94.9499 141.211 94.7324 141.557 94.4207 141.804C94.109 142.05 93.722 142.183 93.3244 142.178L92.7447 142.182C92.737 142.199 92.7264 142.215 92.7134 142.228C93.1057 142.316 93.4539 142.541 93.6957 142.862C93.9375 143.183 94.0572 143.58 94.0333 143.981C93.9945 144.42 93.7917 144.828 93.4655 145.123C93.1392 145.419 92.7134 145.581 92.2731 145.576L90.8328 145.586C90.853 145.601 90.8697 145.619 90.8814 145.641C90.8931 145.663 90.8996 145.687 90.9003 145.711C90.8991 145.741 90.8893 145.77 90.8722 145.794C91.1999 145.969 91.4608 146.248 91.6149 146.586C91.769 146.924 91.8077 147.304 91.7249 147.666C91.6303 148.045 91.4106 148.381 91.1014 148.619C90.7923 148.857 90.4117 148.984 90.0213 148.98L77.8697 149.066C76.1699 149.078 74.5052 148.583 73.0889 147.642C71.6727 146.702 70.5694 145.361 69.9205 143.79C69.361 142.435 69.3518 140.915 69.8948 139.554C70.4379 138.192 71.4903 137.096 72.8287 136.498L74.4588 135.77Z" fill="#FFCEA9"/>
<g opacity="0.2">
<path d="M84.1353 138.712C84.1358 138.753 84.1526 138.792 84.1818 138.821C84.2111 138.85 84.2505 138.866 84.2916 138.866L91.8484 138.934C91.8898 138.934 91.9298 138.918 91.9593 138.889C91.9889 138.86 92.0058 138.82 92.0061 138.779C92.0065 138.737 91.9904 138.698 91.9613 138.668C91.9323 138.638 91.8926 138.622 91.8512 138.621L84.2944 138.553C84.253 138.553 84.2132 138.569 84.1839 138.599C84.1545 138.628 84.1381 138.668 84.1381 138.709L84.1353 138.712Z" fill="#0C0C0C"/>
</g>
<g opacity="0.2">
<path d="M84.0133 142.045C84.0139 142.086 84.0306 142.125 84.0598 142.154C84.0891 142.183 84.1285 142.199 84.1696 142.199L92.6029 142.275C92.6444 142.275 92.6841 142.259 92.7135 142.229C92.7428 142.2 92.7593 142.16 92.7593 142.119C92.7578 142.078 92.7409 142.039 92.7119 142.01C92.6829 141.981 92.6439 141.964 92.6029 141.962L84.1696 141.886C84.149 141.886 84.1285 141.89 84.1093 141.898C84.0902 141.906 84.0728 141.917 84.0581 141.932C84.0434 141.946 84.0317 141.964 84.0238 141.983C84.0158 142.002 84.0117 142.022 84.0117 142.043L84.0133 142.045Z" fill="#0C0C0C"/>
</g>
<g opacity="0.2">
<path d="M83.8604 145.652C83.8609 145.693 83.8777 145.732 83.9069 145.761C83.9362 145.79 83.9756 145.806 84.0167 145.806L90.7439 145.867C90.7853 145.867 90.8252 145.851 90.8548 145.822C90.8844 145.793 90.9012 145.753 90.9016 145.712C90.902 145.67 90.8859 145.63 90.8568 145.601C90.8278 145.571 90.7881 145.554 90.7467 145.554L84.0195 145.493C83.9781 145.493 83.9383 145.51 83.909 145.539C83.8796 145.568 83.8632 145.608 83.8632 145.65L83.8604 145.652Z" fill="#0C0C0C"/>
</g>
<path d="M77.2576 153.183L23.0391 165.508C21.2379 165.704 19.4158 165.48 17.7158 164.853C16.0157 164.227 14.4839 163.215 13.2406 161.897C11.9973 160.579 11.0763 158.991 10.5499 157.258C10.0234 155.524 9.90586 153.692 10.2064 151.905L16.411 101.998C16.927 98.9309 18.6403 96.1946 21.1738 94.3908C23.7073 92.5871 26.8536 91.8636 29.9205 92.3796C32.9875 92.8956 35.7238 94.6089 37.5276 97.1424C39.3314 99.6759 40.0548 102.822 39.5388 105.889L36.5509 141.611L74.2203 133.086L77.2576 153.183Z" fill="#0E82FD"/>
<path d="M28.9285 143.014C28.8892 143.014 28.8515 142.999 28.8229 142.972C28.7942 142.945 28.7767 142.909 28.7739 142.87C28.771 142.83 28.7829 142.792 28.8074 142.761C28.8318 142.73 28.8669 142.71 28.9057 142.704L36.4609 141.09C36.4812 141.087 36.502 141.088 36.522 141.093C36.542 141.098 36.5608 141.106 36.5774 141.119C36.5939 141.131 36.6079 141.146 36.6184 141.164C36.6289 141.182 36.6357 141.201 36.6385 141.222C36.6446 141.263 36.6342 141.304 36.6096 141.338C36.5849 141.371 36.5481 141.393 36.5072 141.399L28.952 143.013C28.9442 143.014 28.9364 143.014 28.9285 143.014Z" fill="#0C0C0C"/>
<path d="M24.6659 165.732C24.6244 165.735 24.5836 165.721 24.5523 165.694C24.5211 165.666 24.502 165.628 24.4994 165.586C24.4967 165.545 24.5105 165.504 24.538 165.473C24.5654 165.441 24.6041 165.422 24.6455 165.42L76.9175 153.108L73.9556 133.314L36.511 141.398C36.4868 141.401 36.4622 141.398 36.4392 141.39C36.4161 141.382 36.3952 141.369 36.3781 141.351C36.3611 141.334 36.3484 141.312 36.3411 141.289C36.3338 141.266 36.3322 141.241 36.3362 141.217L38.4367 120.807C38.4398 120.786 38.447 120.767 38.4578 120.749C38.4686 120.732 38.4828 120.716 38.4996 120.704C38.5164 120.692 38.5354 120.684 38.5556 120.679C38.5757 120.675 38.5965 120.675 38.6168 120.678C38.6577 120.685 38.6941 120.708 38.7182 120.742C38.7422 120.776 38.7519 120.818 38.745 120.858L36.6811 141.059L74.0284 132.969C74.0485 132.964 74.0695 132.962 74.0902 132.965C74.1109 132.968 74.1308 132.975 74.1488 132.985C74.1668 132.996 74.1825 133.01 74.195 133.026C74.2075 133.043 74.2165 133.062 74.2217 133.082L77.2589 153.181C77.2685 153.22 77.2624 153.262 77.2418 153.297C77.2212 153.332 77.1877 153.357 77.1486 153.368L24.6862 165.731C24.6795 165.732 24.6727 165.732 24.6659 165.732Z" fill="#0C0C0C"/>
<path d="M245.585 145.151L235.806 140.784C235.591 140.688 235.359 140.638 235.123 140.636C234.888 140.635 234.655 140.683 234.439 140.777C234.224 140.871 234.03 141.009 233.87 141.182C233.71 141.354 233.589 141.559 233.512 141.781C233.384 142.196 233.414 142.645 233.597 143.039C233.781 143.433 234.104 143.745 234.504 143.914L236.601 144.852L228.655 144.934C227.772 144.928 226.683 145.485 226.742 146.477C226.739 146.86 226.866 147.233 227.103 147.534C227.339 147.835 227.671 148.048 228.044 148.136C228.041 148.145 228.04 148.153 228.04 148.162C228.04 148.168 228.042 148.174 228.044 148.181L226.681 148.171C226.429 148.169 226.18 148.224 225.951 148.331C225.723 148.438 225.521 148.594 225.361 148.789C225.2 148.984 225.085 149.212 225.024 149.456C224.963 149.701 224.957 149.956 225.007 150.204C225.094 150.591 225.312 150.938 225.624 151.184C225.935 151.431 226.322 151.563 226.72 151.559L227.3 151.563C227.307 151.58 227.318 151.595 227.331 151.609C226.939 151.697 226.59 151.921 226.349 152.243C226.107 152.564 225.987 152.961 226.011 153.362C226.05 153.801 226.253 154.209 226.579 154.504C226.905 154.8 227.331 154.961 227.772 154.957L229.212 154.967C229.192 154.981 229.175 155 229.163 155.022C229.151 155.043 229.145 155.068 229.144 155.092C229.145 155.122 229.155 155.15 229.172 155.175C228.844 155.35 228.584 155.628 228.43 155.967C228.275 156.305 228.237 156.685 228.319 157.047C228.414 157.426 228.634 157.762 228.943 158C229.252 158.238 229.633 158.365 230.023 158.36L242.175 158.447C243.875 158.459 245.54 157.963 246.956 157.023C248.372 156.083 249.475 154.741 250.124 153.17C250.684 151.815 250.693 150.295 250.15 148.934C249.607 147.572 248.554 146.476 247.216 145.878L245.585 145.151Z" fill="#FFCEA9"/>
<g opacity="0.2">
<path d="M235.909 148.093C235.908 148.134 235.892 148.173 235.862 148.202C235.833 148.231 235.794 148.247 235.753 148.247L228.196 148.315C228.175 148.315 228.155 148.311 228.136 148.304C228.117 148.296 228.1 148.285 228.085 148.27C228.07 148.256 228.059 148.239 228.051 148.22C228.043 148.201 228.038 148.181 228.038 148.16C228.038 148.139 228.042 148.119 228.049 148.1C228.057 148.081 228.068 148.064 228.083 148.049C228.097 148.034 228.114 148.023 228.133 148.015C228.152 148.007 228.172 148.002 228.193 148.002L235.75 147.934C235.791 147.934 235.831 147.951 235.86 147.98C235.89 148.009 235.906 148.049 235.906 148.09L235.909 148.093Z" fill="#0C0C0C"/>
</g>
<g opacity="0.2">
<path d="M236.031 151.426C236.03 151.467 236.014 151.506 235.985 151.534C235.956 151.563 235.917 151.58 235.876 151.58L227.442 151.656C227.401 151.656 227.361 151.64 227.332 151.61C227.303 151.581 227.286 151.541 227.286 151.5C227.287 151.459 227.304 151.42 227.333 151.391C227.362 151.362 227.401 151.345 227.442 151.343L235.876 151.267C235.917 151.267 235.957 151.284 235.986 151.313C236.016 151.342 236.032 151.382 236.032 151.424L236.031 151.426Z" fill="#0C0C0C"/>
</g>
<g opacity="0.2">
<path d="M236.184 155.033C236.184 155.074 236.167 155.113 236.138 155.142C236.109 155.171 236.069 155.187 236.028 155.187L229.301 155.247C229.28 155.248 229.26 155.244 229.241 155.236C229.222 155.228 229.205 155.217 229.19 155.203C229.175 155.188 229.164 155.171 229.156 155.152C229.147 155.133 229.143 155.113 229.143 155.092C229.143 155.072 229.147 155.052 229.154 155.033C229.162 155.013 229.173 154.996 229.188 154.981C229.202 154.967 229.219 154.955 229.238 154.947C229.257 154.939 229.277 154.935 229.298 154.935L236.025 154.874C236.067 154.874 236.106 154.89 236.136 154.92C236.165 154.949 236.182 154.989 236.182 155.03L236.184 155.033Z" fill="#0C0C0C"/>
</g>
<path d="M245.913 162.563L297.005 165.508C298.806 165.704 300.628 165.48 302.328 164.853C304.028 164.227 305.56 163.215 306.803 161.897C308.046 160.579 308.967 158.991 309.494 157.257C310.02 155.524 310.138 153.692 309.837 151.905L303.634 101.996C303.378 100.478 302.826 99.0241 302.009 97.7189C301.192 96.4137 300.126 95.2822 298.871 94.3891C297.617 93.4959 296.199 92.8586 294.698 92.5136C293.197 92.1685 291.643 92.1224 290.124 92.3779C288.606 92.6334 287.152 93.1855 285.847 94.0027C284.542 94.8199 283.41 95.8861 282.517 97.1406C281.624 98.3951 280.987 99.8132 280.642 101.314C280.297 102.815 280.251 104.369 280.506 105.887L283.494 143.798L246.137 142.465L245.913 162.563Z" fill="#0E82FD"/>
<path d="M291.115 143.64C291.155 143.639 291.193 143.624 291.221 143.598C291.25 143.571 291.268 143.534 291.27 143.495C291.273 143.456 291.261 143.417 291.237 143.386C291.213 143.355 291.177 143.335 291.139 143.329L283.583 143.279C283.563 143.276 283.542 143.277 283.522 143.281C283.502 143.286 283.483 143.295 283.467 143.307C283.45 143.32 283.436 143.335 283.426 143.353C283.415 143.37 283.408 143.39 283.406 143.41C283.399 143.451 283.41 143.493 283.435 143.527C283.459 143.56 283.496 143.582 283.537 143.588L291.092 143.638C291.1 143.639 291.108 143.64 291.115 143.64Z" fill="#0C0C0C"/>
<path d="M295.379 165.732C295.42 165.735 295.461 165.721 295.492 165.694C295.523 165.666 295.542 165.627 295.545 165.586C295.548 165.545 295.534 165.504 295.506 165.473C295.479 165.441 295.44 165.422 295.399 165.42L246.253 162.491L246.4 142.697L283.532 143.588C283.556 143.591 283.581 143.588 283.604 143.58C283.627 143.572 283.648 143.559 283.665 143.541C283.682 143.524 283.695 143.502 283.702 143.479C283.709 143.456 283.711 143.431 283.707 143.407L281.607 120.808C281.604 120.787 281.597 120.768 281.586 120.75C281.575 120.733 281.561 120.718 281.544 120.706C281.527 120.694 281.508 120.685 281.488 120.681C281.468 120.676 281.447 120.676 281.427 120.679C281.407 120.683 281.387 120.69 281.37 120.701C281.352 120.712 281.337 120.726 281.325 120.743C281.313 120.76 281.305 120.779 281.3 120.799C281.296 120.819 281.295 120.839 281.298 120.86L283.364 143.249L246.329 142.352C246.309 142.346 246.288 142.345 246.267 142.347C246.247 142.35 246.227 142.357 246.209 142.367C246.191 142.378 246.175 142.392 246.163 142.409C246.15 142.425 246.141 142.444 246.136 142.464L245.913 162.563C245.903 162.602 245.909 162.644 245.93 162.679C245.95 162.714 245.984 162.74 246.023 162.75L295.357 165.729C295.364 165.731 295.371 165.732 295.379 165.732Z" fill="#0C0C0C"/>
<path d="M119.84 154.652H115.687L113.358 145.617C113.271 145.295 113.124 144.63 112.917 143.623C112.709 142.615 112.59 141.939 112.558 141.593C112.511 142.017 112.393 142.697 112.205 143.634C112.016 144.572 111.871 145.24 111.77 145.64L109.452 154.652H105.311L100.923 137.453H104.511L106.711 146.841C107.095 148.574 107.374 150.076 107.546 151.347C107.593 150.9 107.701 150.208 107.87 149.27C108.039 148.333 108.198 147.606 108.346 147.088L110.852 137.453H114.299L116.805 147.088C116.914 147.52 117.052 148.178 117.217 149.064C117.381 149.95 117.506 150.711 117.592 151.347C117.67 150.735 117.795 149.973 117.967 149.059C118.139 148.145 118.295 147.406 118.436 146.841L120.625 137.453H124.213L119.84 154.652Z" fill="black"/>
<path d="M136.286 154.652H126.38V137.453H136.286V140.441H130.028V144.218H135.851V147.204H130.028V151.64H136.286V154.652Z" fill="black"/>
<path d="M139.874 154.652V137.453H143.521V151.641H150.497V154.653L139.874 154.652Z" fill="black"/>
<path d="M160.792 140.24C160.173 140.212 159.558 140.339 159.001 140.609C158.444 140.879 157.963 141.284 157.602 141.787C156.849 142.819 156.473 144.256 156.473 146.099C156.473 149.935 157.912 151.853 160.79 151.853C162.293 151.795 163.776 151.488 165.179 150.946V154.005C163.676 154.61 162.069 154.91 160.449 154.887C157.948 154.887 156.034 154.128 154.708 152.611C153.382 151.093 152.719 148.914 152.72 146.075C152.684 144.455 153.018 142.847 153.696 141.375C154.298 140.085 155.276 139.006 156.502 138.281C157.808 137.542 159.29 137.17 160.79 137.205C162.538 137.224 164.259 137.638 165.825 138.417L164.648 141.381C164.016 141.08 163.368 140.813 162.707 140.581C162.092 140.36 161.445 140.245 160.792 140.24Z" fill="black"/>
<path d="M184.449 146.028C184.449 148.875 183.743 151.063 182.332 152.593C180.92 154.122 178.896 154.887 176.261 154.887C173.626 154.887 171.603 154.122 170.191 152.593C168.779 151.064 168.073 148.868 168.073 146.005C168.073 143.142 168.781 140.956 170.197 139.446C171.612 137.937 173.642 137.182 176.284 137.181C178.927 137.181 180.949 137.942 182.349 139.464C183.75 140.986 184.45 143.174 184.449 146.028ZM171.897 146.028C171.897 147.95 172.261 149.397 172.991 150.369C173.721 151.342 174.811 151.828 176.261 151.828C179.171 151.828 180.626 149.895 180.626 146.028C180.626 142.154 179.179 140.217 176.285 140.217C174.834 140.217 173.74 140.705 173.001 141.681C172.263 142.658 171.895 144.107 171.897 146.028Z" fill="black"/>
<path d="M195.296 154.652L191.155 141.158H191.049C191.198 143.903 191.272 145.734 191.273 146.652V154.652H188.014V137.453H192.978L197.049 150.606H197.119L201.437 137.453H206.401V154.652H203.002V146.511C203.002 146.127 203.008 145.683 203.019 145.181C203.03 144.679 203.083 143.346 203.178 141.181H203.072L198.637 154.652H195.296Z" fill="black"/>
<path d="M220.637 154.652H210.73V137.453H220.636V140.441H214.378V144.218H220.202V147.204H214.378V151.64H220.637V154.652Z" fill="black"/>
</svg>
